<svg version="1.2" xmlns="http://www.w3.org/2000/svg" viewBox="0 0 457 348" width="457" height="348">
	<title>Nws</title>
	<style>
		.s0 { fill: #8b8b8b } 
	</style>
	<g id="Nws">
		<g id="Footer">
			<g id="Group 2">
				<path id="-e-section-dots-2" class="s0" d="m519.5 64.7c-0.9 0-1.6 0.7-1.6 1.6 0 0.8 0.7 1.5 1.6 1.5 0.8 0 1.5-0.7 1.5-1.5 0-0.9-0.7-1.6-1.5-1.6m-21.6 0c-0.8 0-1.6 0.7-1.6 1.6 0 0.8 0.8 1.5 1.6 1.5 0.9 0 1.6-0.7 1.6-1.5 0-0.9-0.7-1.6-1.6-1.6m-21.5 0c-0.9 0-1.6 0.7-1.6 1.6 0 0.8 0.7 1.5 1.6 1.5 0.9 0 1.6-0.7 1.6-1.5 0-0.9-0.7-1.6-1.6-1.6m-21.6 0c-0.8 0-1.5 0.7-1.5 1.6 0 0.8 0.7 1.5 1.5 1.5 0.9 0 1.6-0.7 1.6-1.5 0-0.9-0.7-1.6-1.6-1.6m-21.5 0c-0.9 0-1.6 0.7-1.6 1.6 0 0.8 0.7 1.5 1.6 1.5 0.9 0 1.6-0.7 1.6-1.5 0-0.9-0.7-1.6-1.6-1.6m-21.5 0c-0.9 0-1.6 0.7-1.6 1.6 0 0.8 0.7 1.5 1.6 1.5 0.8 0 1.5-0.7 1.5-1.5 0-0.9-0.7-1.6-1.5-1.6m-21.6 0c-0.9 0-1.6 0.7-1.6 1.6 0 0.8 0.7 1.5 1.6 1.5 0.9 0 1.6-0.7 1.6-1.5 0-0.9-0.7-1.6-1.6-1.6m-21.5 0c-0.9 0-1.6 0.7-1.6 1.6 0 0.8 0.7 1.5 1.6 1.5 0.9 0 1.6-0.7 1.6-1.5 0-0.9-0.7-1.6-1.6-1.6m-21.6 0c-0.8 0-1.5 0.7-1.5 1.6 0 0.8 0.7 1.5 1.5 1.5 0.9 0 1.6-0.7 1.6-1.5 0-0.9-0.7-1.6-1.6-1.6m-21.5 0c-0.9 0-1.6 0.7-1.6 1.6 0 0.8 0.7 1.5 1.6 1.5 0.9 0 1.6-0.7 1.6-1.5 0-0.9-0.7-1.6-1.6-1.6m-21.5 0c-0.9 0-1.6 0.7-1.6 1.6 0 0.8 0.7 1.5 1.6 1.5 0.8 0 1.5-0.7 1.5-1.5 0-0.9-0.7-1.6-1.5-1.6m-21.6 0c-0.9 0-1.6 0.7-1.6 1.6 0 0.8 0.7 1.5 1.6 1.5 0.9 0 1.6-0.7 1.6-1.5 0-0.9-0.7-1.6-1.6-1.6m-21.5 0c-0.9 0-1.6 0.7-1.6 1.6 0 0.8 0.7 1.5 1.6 1.5 0.8 0 1.6-0.7 1.6-1.5 0-0.9-0.8-1.6-1.6-1.6m-21.6 0c-0.8 0-1.6 0.7-1.6 1.6 0 0.8 0.8 1.5 1.6 1.5 0.9 0 1.6-0.7 1.6-1.5 0-0.9-0.7-1.6-1.6-1.6m-21.5 0c-0.9 0-1.6 0.7-1.6 1.6 0 0.8 0.7 1.5 1.6 1.5 0.9 0 1.6-0.7 1.6-1.5 0-0.9-0.7-1.6-1.6-1.6m-21.6 0c-0.8 0-1.5 0.7-1.5 1.6 0 0.8 0.7 1.5 1.5 1.5 0.9 0 1.6-0.7 1.6-1.5 0-0.9-0.7-1.6-1.6-1.6m-21.5 0c-0.9 0-1.6 0.7-1.6 1.6 0 0.8 0.7 1.5 1.6 1.5 0.9 0 1.6-0.7 1.6-1.5 0-0.9-0.7-1.6-1.6-1.6m-21.5 0c-0.9 0-1.6 0.7-1.6 1.6 0 0.8 0.7 1.5 1.6 1.5 0.8 0 1.5-0.7 1.5-1.5 0-0.9-0.7-1.6-1.5-1.6m-21.6 0c-0.9 0-1.6 0.7-1.6 1.6 0 0.8 0.7 1.5 1.6 1.5 0.9 0 1.6-0.7 1.6-1.5 0-0.9-0.7-1.6-1.6-1.6m-21.5 0c-0.9 0-1.6 0.7-1.6 1.6 0 0.8 0.7 1.5 1.6 1.5 0.9 0 1.6-0.7 1.6-1.5 0-0.9-0.7-1.6-1.6-1.6m-21.6 0c-0.8 0-1.5 0.7-1.5 1.6 0 0.8 0.7 1.5 1.5 1.5 0.9 0 1.6-0.7 1.6-1.5 0-0.9-0.7-1.6-1.6-1.6m-21.5 0c-0.9 0-1.6 0.7-1.6 1.6 0 0.8 0.7 1.5 1.6 1.5 0.9 0 1.6-0.7 1.6-1.5 0-0.9-0.7-1.6-1.6-1.6m-21.5 0c-0.9 0-1.6 0.7-1.6 1.6 0 0.8 0.7 1.5 1.6 1.5 0.8 0 1.5-0.7 1.5-1.5 0-0.9-0.7-1.6-1.5-1.6m-21.6 0c-0.9 0-1.6 0.7-1.6 1.6 0 0.8 0.7 1.5 1.6 1.5 0.9 0 1.6-0.7 1.6-1.5 0-0.9-0.7-1.6-1.6-1.6m-21.5 0c-0.9 0-1.6 0.7-1.6 1.6 0 0.8 0.7 1.5 1.6 1.5 0.8 0 1.6-0.7 1.6-1.5 0-0.9-0.8-1.6-1.6-1.6m517 21.5c-0.9 0-1.6 0.7-1.6 1.6 0 0.9 0.7 1.6 1.6 1.6 0.8 0 1.5-0.7 1.5-1.6 0-0.9-0.7-1.6-1.5-1.6m-21.6 0c-0.8 0-1.6 0.7-1.6 1.6 0 0.9 0.8 1.6 1.6 1.6 0.9 0 1.6-0.7 1.6-1.6 0-0.9-0.7-1.6-1.6-1.6m-21.5 0c-0.9 0-1.6 0.7-1.6 1.6 0 0.9 0.7 1.6 1.6 1.6 0.9 0 1.6-0.7 1.6-1.6 0-0.9-0.7-1.6-1.6-1.6m-21.6 0c-0.8 0-1.5 0.7-1.5 1.6 0 0.9 0.7 1.6 1.5 1.6 0.9 0 1.6-0.7 1.6-1.6 0-0.9-0.7-1.6-1.6-1.6m-21.5 0c-0.9 0-1.6 0.7-1.6 1.6 0 0.9 0.7 1.6 1.6 1.6 0.9 0 1.6-0.7 1.6-1.6 0-0.9-0.7-1.6-1.6-1.6m-21.5 0c-0.9 0-1.6 0.7-1.6 1.6 0 0.9 0.7 1.6 1.6 1.6 0.8 0 1.5-0.7 1.5-1.6 0-0.9-0.7-1.6-1.5-1.6m-21.6 0c-0.9 0-1.6 0.7-1.6 1.6 0 0.9 0.7 1.6 1.6 1.6 0.9 0 1.6-0.7 1.6-1.6 0-0.9-0.7-1.6-1.6-1.6m-21.5 0c-0.9 0-1.6 0.7-1.6 1.6 0 0.9 0.7 1.6 1.6 1.6 0.9 0 1.6-0.7 1.6-1.6 0-0.9-0.7-1.6-1.6-1.6m-21.6 0c-0.8 0-1.5 0.7-1.5 1.6 0 0.9 0.7 1.6 1.5 1.6 0.9 0 1.6-0.7 1.6-1.6 0-0.9-0.7-1.6-1.6-1.6m-21.5 0c-0.9 0-1.6 0.7-1.6 1.6 0 0.9 0.7 1.6 1.6 1.6 0.9 0 1.6-0.7 1.6-1.6 0-0.9-0.7-1.6-1.6-1.6m-21.5 0c-0.9 0-1.6 0.7-1.6 1.6 0 0.9 0.7 1.6 1.6 1.6 0.8 0 1.5-0.7 1.5-1.6 0-0.9-0.7-1.6-1.5-1.6m-21.6 0c-0.9 0-1.6 0.7-1.6 1.6 0 0.9 0.7 1.6 1.6 1.6 0.9 0 1.6-0.7 1.6-1.6 0-0.9-0.7-1.6-1.6-1.6m-21.5 0c-0.9 0-1.6 0.7-1.6 1.6 0 0.9 0.7 1.6 1.6 1.6 0.8 0 1.6-0.7 1.6-1.6 0-0.9-0.8-1.6-1.6-1.6m-21.6 0c-0.8 0-1.6 0.7-1.6 1.6 0 0.9 0.8 1.6 1.6 1.6 0.9 0 1.6-0.7 1.6-1.6 0-0.9-0.7-1.6-1.6-1.6m-21.5 0c-0.9 0-1.6 0.7-1.6 1.6 0 0.9 0.7 1.6 1.6 1.6 0.9 0 1.6-0.7 1.6-1.6 0-0.9-0.7-1.6-1.6-1.6m-21.6 0c-0.8 0-1.5 0.7-1.5 1.6 0 0.9 0.7 1.6 1.5 1.6 0.9 0 1.6-0.7 1.6-1.6 0-0.9-0.7-1.6-1.6-1.6m-21.5 0c-0.9 0-1.6 0.7-1.6 1.6 0 0.9 0.7 1.6 1.6 1.6 0.9 0 1.6-0.7 1.6-1.6 0-0.9-0.7-1.6-1.6-1.6m-21.5 0c-0.9 0-1.6 0.7-1.6 1.6 0 0.9 0.7 1.6 1.6 1.6 0.8 0 1.5-0.7 1.5-1.6 0-0.9-0.7-1.6-1.5-1.6m-21.6 0c-0.9 0-1.6 0.7-1.6 1.6 0 0.9 0.7 1.6 1.6 1.6 0.9 0 1.6-0.7 1.6-1.6 0-0.9-0.7-1.6-1.6-1.6m-21.5 0c-0.9 0-1.6 0.7-1.6 1.6 0 0.9 0.7 1.6 1.6 1.6 0.9 0 1.6-0.7 1.6-1.6 0-0.9-0.7-1.6-1.6-1.6m-21.6 0c-0.8 0-1.5 0.7-1.5 1.6 0 0.9 0.7 1.6 1.5 1.6 0.9 0 1.6-0.7 1.6-1.6 0-0.9-0.7-1.6-1.6-1.6m-21.5 0c-0.9 0-1.6 0.7-1.6 1.6 0 0.9 0.7 1.6 1.6 1.6 0.9 0 1.6-0.7 1.6-1.6 0-0.9-0.7-1.6-1.6-1.6m-21.5 0c-0.9 0-1.6 0.7-1.6 1.6 0 0.9 0.7 1.6 1.6 1.6 0.8 0 1.5-0.7 1.5-1.6 0-0.9-0.7-1.6-1.5-1.6m-21.6 0c-0.9 0-1.6 0.7-1.6 1.6 0 0.9 0.7 1.6 1.6 1.6 0.9 0 1.6-0.7 1.6-1.6 0-0.9-0.7-1.6-1.6-1.6m-21.5 0c-0.9 0-1.6 0.7-1.6 1.6 0 0.9 0.7 1.6 1.6 1.6 0.8 0 1.6-0.7 1.6-1.6 0-0.9-0.8-1.6-1.6-1.6m517 21.6c-0.9 0-1.6 0.7-1.6 1.6 0 0.8 0.7 1.6 1.6 1.6 0.8 0 1.5-0.8 1.5-1.6 0-0.9-0.7-1.6-1.5-1.6m-21.6 0c-0.8 0-1.6 0.7-1.6 1.6 0 0.8 0.8 1.6 1.6 1.6 0.9 0 1.6-0.8 1.6-1.6 0-0.9-0.7-1.6-1.6-1.6m-21.5 0c-0.9 0-1.6 0.7-1.6 1.6 0 0.8 0.7 1.6 1.6 1.6 0.9 0 1.6-0.8 1.6-1.6 0-0.9-0.7-1.6-1.6-1.6m-21.6 0c-0.8 0-1.5 0.7-1.5 1.6 0 0.8 0.7 1.6 1.5 1.6 0.9 0 1.6-0.8 1.6-1.6 0-0.9-0.7-1.6-1.6-1.6m-21.5 0c-0.9 0-1.6 0.7-1.6 1.6 0 0.8 0.7 1.6 1.6 1.6 0.9 0 1.6-0.8 1.6-1.6 0-0.9-0.7-1.6-1.6-1.6m-21.5 0c-0.9 0-1.6 0.7-1.6 1.6 0 0.8 0.7 1.6 1.6 1.6 0.8 0 1.5-0.8 1.5-1.6 0-0.9-0.7-1.6-1.5-1.6m-21.6 0c-0.9 0-1.6 0.7-1.6 1.6 0 0.8 0.7 1.6 1.6 1.6 0.9 0 1.6-0.8 1.6-1.6 0-0.9-0.7-1.6-1.6-1.6m-21.5 0c-0.9 0-1.6 0.7-1.6 1.6 0 0.8 0.7 1.6 1.6 1.6 0.9 0 1.6-0.8 1.6-1.6 0-0.9-0.7-1.6-1.6-1.6m-21.6 0c-0.8 0-1.5 0.7-1.5 1.6 0 0.8 0.7 1.6 1.5 1.6 0.9 0 1.6-0.8 1.6-1.6 0-0.9-0.7-1.6-1.6-1.6m-21.5 0c-0.9 0-1.6 0.7-1.6 1.6 0 0.8 0.7 1.6 1.6 1.6 0.9 0 1.6-0.8 1.6-1.6 0-0.9-0.7-1.6-1.6-1.6m-21.5 0c-0.9 0-1.6 0.7-1.6 1.6 0 0.8 0.7 1.6 1.6 1.6 0.8 0 1.5-0.8 1.5-1.6 0-0.9-0.7-1.6-1.5-1.6m-21.6 0c-0.9 0-1.6 0.7-1.6 1.6 0 0.8 0.7 1.6 1.6 1.6 0.9 0 1.6-0.8 1.6-1.6 0-0.9-0.7-1.6-1.6-1.6m-21.5 0c-0.9 0-1.6 0.7-1.6 1.6 0 0.8 0.7 1.6 1.6 1.6 0.8 0 1.6-0.8 1.6-1.6 0-0.9-0.8-1.6-1.6-1.6m-21.6 0c-0.8 0-1.6 0.7-1.6 1.6 0 0.8 0.8 1.6 1.6 1.6 0.9 0 1.6-0.8 1.6-1.6 0-0.9-0.7-1.6-1.6-1.6m-21.5 0c-0.9 0-1.6 0.7-1.6 1.6 0 0.8 0.7 1.6 1.6 1.6 0.9 0 1.6-0.8 1.6-1.6 0-0.9-0.7-1.6-1.6-1.6m-21.6 0c-0.8 0-1.5 0.7-1.5 1.6 0 0.8 0.7 1.6 1.5 1.6 0.9 0 1.6-0.8 1.6-1.6 0-0.9-0.7-1.6-1.6-1.6m-21.5 0c-0.9 0-1.6 0.7-1.6 1.6 0 0.8 0.7 1.6 1.6 1.6 0.9 0 1.6-0.8 1.6-1.6 0-0.9-0.7-1.6-1.6-1.6m-21.5 0c-0.9 0-1.6 0.7-1.6 1.6 0 0.8 0.7 1.6 1.6 1.6 0.8 0 1.5-0.8 1.5-1.6 0-0.9-0.7-1.6-1.5-1.6m-21.6 0c-0.9 0-1.6 0.7-1.6 1.6 0 0.8 0.7 1.6 1.6 1.6 0.9 0 1.6-0.8 1.6-1.6 0-0.9-0.7-1.6-1.6-1.6m-21.5 0c-0.9 0-1.6 0.7-1.6 1.6 0 0.8 0.7 1.6 1.6 1.6 0.9 0 1.6-0.8 1.6-1.6 0-0.9-0.7-1.6-1.6-1.6m-21.6 0c-0.8 0-1.5 0.7-1.5 1.6 0 0.8 0.7 1.6 1.5 1.6 0.9 0 1.6-0.8 1.6-1.6 0-0.9-0.7-1.6-1.6-1.6m-21.5 0c-0.9 0-1.6 0.7-1.6 1.6 0 0.8 0.7 1.6 1.6 1.6 0.9 0 1.6-0.8 1.6-1.6 0-0.9-0.7-1.6-1.6-1.6m-21.5 0c-0.9 0-1.6 0.7-1.6 1.6 0 0.8 0.7 1.6 1.6 1.6 0.8 0 1.5-0.8 1.5-1.6 0-0.9-0.7-1.6-1.5-1.6m-21.6 0c-0.9 0-1.6 0.7-1.6 1.6 0 0.8 0.7 1.6 1.6 1.6 0.9 0 1.6-0.8 1.6-1.6 0-0.9-0.7-1.6-1.6-1.6m-21.5 0c-0.9 0-1.6 0.7-1.6 1.6 0 0.8 0.7 1.6 1.6 1.6 0.8 0 1.6-0.8 1.6-1.6 0-0.9-0.8-1.6-1.6-1.6m517 21.5c-0.9 0-1.6 0.8-1.6 1.6 0 0.9 0.7 1.6 1.6 1.6 0.8 0 1.5-0.7 1.5-1.6 0-0.8-0.7-1.6-1.5-1.6m-21.6 0c-0.8 0-1.6 0.8-1.6 1.6 0 0.9 0.8 1.6 1.6 1.6 0.9 0 1.6-0.7 1.6-1.6 0-0.8-0.7-1.6-1.6-1.6m-21.5 0c-0.9 0-1.6 0.8-1.6 1.6 0 0.9 0.7 1.6 1.6 1.6 0.9 0 1.6-0.7 1.6-1.6 0-0.8-0.7-1.6-1.6-1.6m-21.6 0c-0.8 0-1.5 0.8-1.5 1.6 0 0.9 0.7 1.6 1.5 1.6 0.9 0 1.6-0.7 1.6-1.6 0-0.8-0.7-1.6-1.6-1.6m-21.5 0c-0.9 0-1.6 0.8-1.6 1.6 0 0.9 0.7 1.6 1.6 1.6 0.9 0 1.6-0.7 1.6-1.6 0-0.8-0.7-1.6-1.6-1.6m-21.5 0c-0.9 0-1.6 0.8-1.6 1.6 0 0.9 0.7 1.6 1.6 1.6 0.8 0 1.5-0.7 1.5-1.6 0-0.8-0.7-1.6-1.5-1.6m-21.6 0c-0.9 0-1.6 0.8-1.6 1.6 0 0.9 0.7 1.6 1.6 1.6 0.9 0 1.6-0.7 1.6-1.6 0-0.8-0.7-1.6-1.6-1.6m-21.5 0c-0.9 0-1.6 0.8-1.6 1.6 0 0.9 0.7 1.6 1.6 1.6 0.9 0 1.6-0.7 1.6-1.6 0-0.8-0.7-1.6-1.6-1.6m-21.6 0c-0.8 0-1.5 0.8-1.5 1.6 0 0.9 0.7 1.6 1.5 1.6 0.9 0 1.6-0.7 1.6-1.6 0-0.8-0.7-1.6-1.6-1.6m-21.5 0c-0.9 0-1.6 0.8-1.6 1.6 0 0.9 0.7 1.6 1.6 1.6 0.9 0 1.6-0.7 1.6-1.6 0-0.8-0.7-1.6-1.6-1.6m-21.5 0c-0.9 0-1.6 0.8-1.6 1.6 0 0.9 0.7 1.6 1.6 1.6 0.8 0 1.5-0.7 1.5-1.6 0-0.8-0.7-1.6-1.5-1.6m-21.6 0c-0.9 0-1.6 0.8-1.6 1.6 0 0.9 0.7 1.6 1.6 1.6 0.9 0 1.6-0.7 1.6-1.6 0-0.8-0.7-1.6-1.6-1.6m-21.5 0c-0.9 0-1.6 0.8-1.6 1.6 0 0.9 0.7 1.6 1.6 1.6 0.8 0 1.6-0.7 1.6-1.6 0-0.8-0.8-1.6-1.6-1.6m-21.6 0c-0.8 0-1.6 0.8-1.6 1.6 0 0.9 0.8 1.6 1.6 1.6 0.9 0 1.6-0.7 1.6-1.6 0-0.8-0.7-1.6-1.6-1.6m-21.5 0c-0.9 0-1.6 0.8-1.6 1.6 0 0.9 0.7 1.6 1.6 1.6 0.9 0 1.6-0.7 1.6-1.6 0-0.8-0.7-1.6-1.6-1.6m-21.6 0c-0.8 0-1.5 0.8-1.5 1.6 0 0.9 0.7 1.6 1.5 1.6 0.9 0 1.6-0.7 1.6-1.6 0-0.8-0.7-1.6-1.6-1.6m-21.5 0c-0.9 0-1.6 0.8-1.6 1.6 0 0.9 0.7 1.6 1.6 1.6 0.9 0 1.6-0.7 1.6-1.6 0-0.8-0.7-1.6-1.6-1.6m-21.5 0c-0.9 0-1.6 0.8-1.6 1.6 0 0.9 0.7 1.6 1.6 1.6 0.8 0 1.5-0.7 1.5-1.6 0-0.8-0.7-1.6-1.5-1.6m-21.6 0c-0.9 0-1.6 0.8-1.6 1.6 0 0.9 0.7 1.6 1.6 1.6 0.9 0 1.6-0.7 1.6-1.6 0-0.8-0.7-1.6-1.6-1.6m-21.5 0c-0.9 0-1.6 0.8-1.6 1.6 0 0.9 0.7 1.6 1.6 1.6 0.9 0 1.6-0.7 1.6-1.6 0-0.8-0.7-1.6-1.6-1.6m-21.6 0c-0.8 0-1.5 0.8-1.5 1.6 0 0.9 0.7 1.6 1.5 1.6 0.9 0 1.6-0.7 1.6-1.6 0-0.8-0.7-1.6-1.6-1.6m-21.5 0c-0.9 0-1.6 0.8-1.6 1.6 0 0.9 0.7 1.6 1.6 1.6 0.9 0 1.6-0.7 1.6-1.6 0-0.8-0.7-1.6-1.6-1.6m-21.5 0c-0.9 0-1.6 0.8-1.6 1.6 0 0.9 0.7 1.6 1.6 1.6 0.8 0 1.5-0.7 1.5-1.6 0-0.8-0.7-1.6-1.5-1.6m-21.6 0c-0.9 0-1.6 0.8-1.6 1.6 0 0.9 0.7 1.6 1.6 1.6 0.9 0 1.6-0.7 1.6-1.6 0-0.8-0.7-1.6-1.6-1.6m-21.5 0c-0.9 0-1.6 0.8-1.6 1.6 0 0.9 0.7 1.6 1.6 1.6 0.8 0 1.6-0.7 1.6-1.6 0-0.8-0.8-1.6-1.6-1.6m517 21.6c-0.9 0-1.6 0.7-1.6 1.6 0 0.9 0.7 1.6 1.6 1.6 0.8 0 1.5-0.7 1.5-1.6 0-0.9-0.7-1.6-1.5-1.6m-21.6 0c-0.8 0-1.6 0.7-1.6 1.6 0 0.9 0.8 1.6 1.6 1.6 0.9 0 1.6-0.7 1.6-1.6 0-0.9-0.7-1.6-1.6-1.6m-21.5 0c-0.9 0-1.6 0.7-1.6 1.6 0 0.9 0.7 1.6 1.6 1.6 0.9 0 1.6-0.7 1.6-1.6 0-0.9-0.7-1.6-1.6-1.6m-21.6 0c-0.8 0-1.5 0.7-1.5 1.6 0 0.9 0.7 1.6 1.5 1.6 0.9 0 1.6-0.7 1.6-1.6 0-0.9-0.7-1.6-1.6-1.6m-21.5 0c-0.9 0-1.6 0.7-1.6 1.6 0 0.9 0.7 1.6 1.6 1.6 0.9 0 1.6-0.7 1.6-1.6 0-0.9-0.7-1.6-1.6-1.6m-21.5 0c-0.9 0-1.6 0.7-1.6 1.6 0 0.9 0.7 1.6 1.6 1.6 0.8 0 1.5-0.7 1.5-1.6 0-0.9-0.7-1.6-1.5-1.6m-21.6 0c-0.9 0-1.6 0.7-1.6 1.6 0 0.9 0.7 1.6 1.6 1.6 0.9 0 1.6-0.7 1.6-1.6 0-0.9-0.7-1.6-1.6-1.6m-21.5 0c-0.9 0-1.6 0.7-1.6 1.6 0 0.9 0.7 1.6 1.6 1.6 0.9 0 1.6-0.7 1.6-1.6 0-0.9-0.7-1.6-1.6-1.6m-21.6 0c-0.8 0-1.5 0.7-1.5 1.6 0 0.9 0.7 1.6 1.5 1.6 0.9 0 1.6-0.7 1.6-1.6 0-0.9-0.7-1.6-1.6-1.6m-21.5 0c-0.9 0-1.6 0.7-1.6 1.6 0 0.9 0.7 1.6 1.6 1.6 0.9 0 1.6-0.7 1.6-1.6 0-0.9-0.7-1.6-1.6-1.6m-21.5 0c-0.9 0-1.6 0.7-1.6 1.6 0 0.9 0.7 1.6 1.6 1.6 0.8 0 1.5-0.7 1.5-1.6 0-0.9-0.7-1.6-1.5-1.6m-21.6 0c-0.9 0-1.6 0.7-1.6 1.6 0 0.9 0.7 1.6 1.6 1.6 0.9 0 1.6-0.7 1.6-1.6 0-0.9-0.7-1.6-1.6-1.6m-21.5 0c-0.9 0-1.6 0.7-1.6 1.6 0 0.9 0.7 1.6 1.6 1.6 0.8 0 1.6-0.7 1.6-1.6 0-0.9-0.8-1.6-1.6-1.6m-21.6 0c-0.8 0-1.6 0.7-1.6 1.6 0 0.9 0.8 1.6 1.6 1.6 0.9 0 1.6-0.7 1.6-1.6 0-0.9-0.7-1.6-1.6-1.6m-21.5 0c-0.9 0-1.6 0.7-1.6 1.6 0 0.9 0.7 1.6 1.6 1.6 0.9 0 1.6-0.7 1.6-1.6 0-0.9-0.7-1.6-1.6-1.6m-21.6 0c-0.8 0-1.5 0.7-1.5 1.6 0 0.9 0.7 1.6 1.5 1.6 0.9 0 1.6-0.7 1.6-1.6 0-0.9-0.7-1.6-1.6-1.6m-21.5 0c-0.9 0-1.6 0.7-1.6 1.6 0 0.9 0.7 1.6 1.6 1.6 0.9 0 1.6-0.7 1.6-1.6 0-0.9-0.7-1.6-1.6-1.6m-21.5 0c-0.9 0-1.6 0.7-1.6 1.6 0 0.9 0.7 1.6 1.6 1.6 0.8 0 1.5-0.7 1.5-1.6 0-0.9-0.7-1.6-1.5-1.6m-21.6 0c-0.9 0-1.6 0.7-1.6 1.6 0 0.9 0.7 1.6 1.6 1.6 0.9 0 1.6-0.7 1.6-1.6 0-0.9-0.7-1.6-1.6-1.6m-21.5 0c-0.9 0-1.6 0.7-1.6 1.6 0 0.9 0.7 1.6 1.6 1.6 0.9 0 1.6-0.7 1.6-1.6 0-0.9-0.7-1.6-1.6-1.6m-21.6 0c-0.8 0-1.5 0.7-1.5 1.6 0 0.9 0.7 1.6 1.5 1.6 0.9 0 1.6-0.7 1.6-1.6 0-0.9-0.7-1.6-1.6-1.6m-21.5 0c-0.9 0-1.6 0.7-1.6 1.6 0 0.9 0.7 1.6 1.6 1.6 0.9 0 1.6-0.7 1.6-1.6 0-0.9-0.7-1.6-1.6-1.6m-21.5 0c-0.9 0-1.6 0.7-1.6 1.6 0 0.9 0.7 1.6 1.6 1.6 0.8 0 1.5-0.7 1.5-1.6 0-0.9-0.7-1.6-1.5-1.6m-21.6 0c-0.9 0-1.6 0.7-1.6 1.6 0 0.9 0.7 1.6 1.6 1.6 0.9 0 1.6-0.7 1.6-1.6 0-0.9-0.7-1.6-1.6-1.6m-21.5 0c-0.9 0-1.6 0.7-1.6 1.6 0 0.9 0.7 1.6 1.6 1.6 0.8 0 1.6-0.7 1.6-1.6 0-0.9-0.8-1.6-1.6-1.6m517 21.6c-0.9 0-1.6 0.7-1.6 1.5 0 0.9 0.7 1.6 1.6 1.6 0.8 0 1.5-0.7 1.5-1.6 0-0.8-0.7-1.5-1.5-1.5m-21.6 0c-0.8 0-1.6 0.7-1.6 1.5 0 0.9 0.8 1.6 1.6 1.6 0.9 0 1.6-0.7 1.6-1.6 0-0.8-0.7-1.5-1.6-1.5m-21.5 0c-0.9 0-1.6 0.7-1.6 1.5 0 0.9 0.7 1.6 1.6 1.6 0.9 0 1.6-0.7 1.6-1.6 0-0.8-0.7-1.5-1.6-1.5m-21.6 0c-0.8 0-1.5 0.7-1.5 1.5 0 0.9 0.7 1.6 1.5 1.6 0.9 0 1.6-0.7 1.6-1.6 0-0.8-0.7-1.5-1.6-1.5m-21.5 0c-0.9 0-1.6 0.7-1.6 1.5 0 0.9 0.7 1.6 1.6 1.6 0.9 0 1.6-0.7 1.6-1.6 0-0.8-0.7-1.5-1.6-1.5m-21.5 0c-0.9 0-1.6 0.7-1.6 1.5 0 0.9 0.7 1.6 1.6 1.6 0.8 0 1.5-0.7 1.5-1.6 0-0.8-0.7-1.5-1.5-1.5m-21.6 0c-0.9 0-1.6 0.7-1.6 1.5 0 0.9 0.7 1.6 1.6 1.6 0.9 0 1.6-0.7 1.6-1.6 0-0.8-0.7-1.5-1.6-1.5m-21.5 0c-0.9 0-1.6 0.7-1.6 1.5 0 0.9 0.7 1.6 1.6 1.6 0.9 0 1.6-0.7 1.6-1.6 0-0.8-0.7-1.5-1.6-1.5m-21.6 0c-0.8 0-1.5 0.7-1.5 1.5 0 0.9 0.7 1.6 1.5 1.6 0.9 0 1.6-0.7 1.6-1.6 0-0.8-0.7-1.5-1.6-1.5m-21.5 0c-0.9 0-1.6 0.7-1.6 1.5 0 0.9 0.7 1.6 1.6 1.6 0.9 0 1.6-0.7 1.6-1.6 0-0.8-0.7-1.5-1.6-1.5m-21.5 0c-0.9 0-1.6 0.7-1.6 1.5 0 0.9 0.7 1.6 1.6 1.6 0.8 0 1.5-0.7 1.5-1.6 0-0.8-0.7-1.5-1.5-1.5m-21.6 0c-0.9 0-1.6 0.7-1.6 1.5 0 0.9 0.7 1.6 1.6 1.6 0.9 0 1.6-0.7 1.6-1.6 0-0.8-0.7-1.5-1.6-1.5m-21.5 0c-0.9 0-1.6 0.7-1.6 1.5 0 0.9 0.7 1.6 1.6 1.6 0.8 0 1.6-0.7 1.6-1.6 0-0.8-0.8-1.5-1.6-1.5m-21.6 0c-0.8 0-1.6 0.7-1.6 1.5 0 0.9 0.8 1.6 1.6 1.6 0.9 0 1.6-0.7 1.6-1.6 0-0.8-0.7-1.5-1.6-1.5m-21.5 0c-0.9 0-1.6 0.7-1.6 1.5 0 0.9 0.7 1.6 1.6 1.6 0.9 0 1.6-0.7 1.6-1.6 0-0.8-0.7-1.5-1.6-1.5m-21.6 0c-0.8 0-1.5 0.7-1.5 1.5 0 0.9 0.7 1.6 1.5 1.6 0.9 0 1.6-0.7 1.6-1.6 0-0.8-0.7-1.5-1.6-1.5m-21.5 0c-0.9 0-1.6 0.7-1.6 1.5 0 0.9 0.7 1.6 1.6 1.6 0.9 0 1.6-0.7 1.6-1.6 0-0.8-0.7-1.5-1.6-1.5m-21.5 0c-0.9 0-1.6 0.7-1.6 1.5 0 0.9 0.7 1.6 1.6 1.6 0.8 0 1.5-0.7 1.5-1.6 0-0.8-0.7-1.5-1.5-1.5m-21.6 0c-0.9 0-1.6 0.7-1.6 1.5 0 0.9 0.7 1.6 1.6 1.6 0.9 0 1.6-0.7 1.6-1.6 0-0.8-0.7-1.5-1.6-1.5m-21.5 0c-0.9 0-1.6 0.7-1.6 1.5 0 0.9 0.7 1.6 1.6 1.6 0.9 0 1.6-0.7 1.6-1.6 0-0.8-0.7-1.5-1.6-1.5m-21.6 0c-0.8 0-1.5 0.7-1.5 1.5 0 0.9 0.7 1.6 1.5 1.6 0.9 0 1.6-0.7 1.6-1.6 0-0.8-0.7-1.5-1.6-1.5m-21.5 0c-0.9 0-1.6 0.7-1.6 1.5 0 0.9 0.7 1.6 1.6 1.6 0.9 0 1.6-0.7 1.6-1.6 0-0.8-0.7-1.5-1.6-1.5m-21.5 0c-0.9 0-1.6 0.7-1.6 1.5 0 0.9 0.7 1.6 1.6 1.6 0.8 0 1.5-0.7 1.5-1.6 0-0.8-0.7-1.5-1.5-1.5m-21.6 0c-0.9 0-1.6 0.7-1.6 1.5 0 0.9 0.7 1.6 1.6 1.6 0.9 0 1.6-0.7 1.6-1.6 0-0.8-0.7-1.5-1.6-1.5m-21.5 0c-0.9 0-1.6 0.7-1.6 1.5 0 0.9 0.7 1.6 1.6 1.6 0.8 0 1.6-0.7 1.6-1.6 0-0.8-0.8-1.5-1.6-1.5m517 21.5c-0.9 0-1.6 0.7-1.6 1.6 0 0.9 0.7 1.6 1.6 1.6 0.8 0 1.5-0.7 1.5-1.6 0-0.9-0.7-1.6-1.5-1.6m-21.6 0c-0.8 0-1.6 0.7-1.6 1.6 0 0.9 0.8 1.6 1.6 1.6 0.9 0 1.6-0.7 1.6-1.6 0-0.9-0.7-1.6-1.6-1.6m-21.5 0c-0.9 0-1.6 0.7-1.6 1.6 0 0.9 0.7 1.6 1.6 1.6 0.9 0 1.6-0.7 1.6-1.6 0-0.9-0.7-1.6-1.6-1.6m-21.6 0c-0.8 0-1.5 0.7-1.5 1.6 0 0.9 0.7 1.6 1.5 1.6 0.9 0 1.6-0.7 1.6-1.6 0-0.9-0.7-1.6-1.6-1.6m-21.5 0c-0.9 0-1.6 0.7-1.6 1.6 0 0.9 0.7 1.6 1.6 1.6 0.9 0 1.6-0.7 1.6-1.6 0-0.9-0.7-1.6-1.6-1.6m-21.5 0c-0.9 0-1.6 0.7-1.6 1.6 0 0.9 0.7 1.6 1.6 1.6 0.8 0 1.5-0.7 1.5-1.6 0-0.9-0.7-1.6-1.5-1.6m-21.6 0c-0.9 0-1.6 0.7-1.6 1.6 0 0.9 0.7 1.6 1.6 1.6 0.9 0 1.6-0.7 1.6-1.6 0-0.9-0.7-1.6-1.6-1.6m-21.5 0c-0.9 0-1.6 0.7-1.6 1.6 0 0.9 0.7 1.6 1.6 1.6 0.9 0 1.6-0.7 1.6-1.6 0-0.9-0.7-1.6-1.6-1.6m-21.6 0c-0.8 0-1.5 0.7-1.5 1.6 0 0.9 0.7 1.6 1.5 1.6 0.9 0 1.6-0.7 1.6-1.6 0-0.9-0.7-1.6-1.6-1.6m-21.5 0c-0.9 0-1.6 0.7-1.6 1.6 0 0.9 0.7 1.6 1.6 1.6 0.9 0 1.6-0.7 1.6-1.6 0-0.9-0.7-1.6-1.6-1.6m-21.5 0c-0.9 0-1.6 0.7-1.6 1.6 0 0.9 0.7 1.6 1.6 1.6 0.8 0 1.5-0.7 1.5-1.6 0-0.9-0.7-1.6-1.5-1.6m-21.6 0c-0.9 0-1.6 0.7-1.6 1.6 0 0.9 0.7 1.6 1.6 1.6 0.9 0 1.6-0.7 1.6-1.6 0-0.9-0.7-1.6-1.6-1.6m-21.5 0c-0.9 0-1.6 0.7-1.6 1.6 0 0.9 0.7 1.6 1.6 1.6 0.8 0 1.6-0.7 1.6-1.6 0-0.9-0.8-1.6-1.6-1.6m-21.6 0c-0.8 0-1.6 0.7-1.6 1.6 0 0.9 0.8 1.6 1.6 1.6 0.9 0 1.6-0.7 1.6-1.6 0-0.9-0.7-1.6-1.6-1.6m-21.5 0c-0.9 0-1.6 0.7-1.6 1.6 0 0.9 0.7 1.6 1.6 1.6 0.9 0 1.6-0.7 1.6-1.6 0-0.9-0.7-1.6-1.6-1.6m-21.6 0c-0.8 0-1.5 0.7-1.5 1.6 0 0.9 0.7 1.6 1.5 1.6 0.9 0 1.6-0.7 1.6-1.6 0-0.9-0.7-1.6-1.6-1.6m-21.5 0c-0.9 0-1.6 0.7-1.6 1.6 0 0.9 0.7 1.6 1.6 1.6 0.9 0 1.6-0.7 1.6-1.6 0-0.9-0.7-1.6-1.6-1.6m-21.5 0c-0.9 0-1.6 0.7-1.6 1.6 0 0.9 0.7 1.6 1.6 1.6 0.8 0 1.5-0.7 1.5-1.6 0-0.9-0.7-1.6-1.5-1.6m-21.6 0c-0.9 0-1.6 0.7-1.6 1.6 0 0.9 0.7 1.6 1.6 1.6 0.9 0 1.6-0.7 1.6-1.6 0-0.9-0.7-1.6-1.6-1.6m-21.5 0c-0.9 0-1.6 0.7-1.6 1.6 0 0.9 0.7 1.6 1.6 1.6 0.9 0 1.6-0.7 1.6-1.6 0-0.9-0.7-1.6-1.6-1.6m-21.6 0c-0.8 0-1.5 0.7-1.5 1.6 0 0.9 0.7 1.6 1.5 1.6 0.9 0 1.6-0.7 1.6-1.6 0-0.9-0.7-1.6-1.6-1.6m-21.5 0c-0.9 0-1.6 0.7-1.6 1.6 0 0.9 0.7 1.6 1.6 1.6 0.9 0 1.6-0.7 1.6-1.6 0-0.9-0.7-1.6-1.6-1.6m-21.5 0c-0.9 0-1.6 0.7-1.6 1.6 0 0.9 0.7 1.6 1.6 1.6 0.8 0 1.5-0.7 1.5-1.6 0-0.9-0.7-1.6-1.5-1.6m-21.6 0c-0.9 0-1.6 0.7-1.6 1.6 0 0.9 0.7 1.6 1.6 1.6 0.9 0 1.6-0.7 1.6-1.6 0-0.9-0.7-1.6-1.6-1.6m-21.5 0c-0.9 0-1.6 0.7-1.6 1.6 0 0.9 0.7 1.6 1.6 1.6 0.8 0 1.6-0.7 1.6-1.6 0-0.9-0.8-1.6-1.6-1.6m517 21.6c-0.9 0-1.6 0.7-1.6 1.6 0 0.8 0.7 1.5 1.6 1.5 0.8 0 1.5-0.7 1.5-1.5 0-0.9-0.7-1.6-1.5-1.6m-21.6 0c-0.8 0-1.6 0.7-1.6 1.6 0 0.8 0.8 1.5 1.6 1.5 0.9 0 1.6-0.7 1.6-1.5 0-0.9-0.7-1.6-1.6-1.6m-21.5 0c-0.9 0-1.6 0.7-1.6 1.6 0 0.8 0.7 1.5 1.6 1.5 0.9 0 1.6-0.7 1.6-1.5 0-0.9-0.7-1.6-1.6-1.6m-21.6 0c-0.8 0-1.5 0.7-1.5 1.6 0 0.8 0.7 1.5 1.5 1.5 0.9 0 1.6-0.7 1.6-1.5 0-0.9-0.7-1.6-1.6-1.6m-21.5 0c-0.9 0-1.6 0.7-1.6 1.6 0 0.8 0.7 1.5 1.6 1.5 0.9 0 1.6-0.7 1.6-1.5 0-0.9-0.7-1.6-1.6-1.6m-21.5 0c-0.9 0-1.6 0.7-1.6 1.6 0 0.8 0.7 1.5 1.6 1.5 0.8 0 1.5-0.7 1.5-1.5 0-0.9-0.7-1.6-1.5-1.6m-21.6 0c-0.9 0-1.6 0.7-1.6 1.6 0 0.8 0.7 1.5 1.6 1.5 0.9 0 1.6-0.7 1.6-1.5 0-0.9-0.7-1.6-1.6-1.6m-21.5 0c-0.9 0-1.6 0.7-1.6 1.6 0 0.8 0.7 1.5 1.6 1.5 0.9 0 1.6-0.7 1.6-1.5 0-0.9-0.7-1.6-1.6-1.6m-21.6 0c-0.8 0-1.5 0.7-1.5 1.6 0 0.8 0.7 1.5 1.5 1.5 0.9 0 1.6-0.7 1.6-1.5 0-0.9-0.7-1.6-1.6-1.6m-21.5 0c-0.9 0-1.6 0.7-1.6 1.6 0 0.8 0.7 1.5 1.6 1.5 0.9 0 1.6-0.7 1.6-1.5 0-0.9-0.7-1.6-1.6-1.6m-21.5 0c-0.9 0-1.6 0.7-1.6 1.6 0 0.8 0.7 1.5 1.6 1.5 0.8 0 1.5-0.7 1.5-1.5 0-0.9-0.7-1.6-1.5-1.6m-21.6 0c-0.9 0-1.6 0.7-1.6 1.6 0 0.8 0.7 1.5 1.6 1.5 0.9 0 1.6-0.7 1.6-1.5 0-0.9-0.7-1.6-1.6-1.6m-21.5 0c-0.9 0-1.6 0.7-1.6 1.6 0 0.8 0.7 1.5 1.6 1.5 0.8 0 1.6-0.7 1.6-1.5 0-0.9-0.8-1.6-1.6-1.6m-21.6 0c-0.8 0-1.6 0.7-1.6 1.6 0 0.8 0.8 1.5 1.6 1.5 0.9 0 1.6-0.7 1.6-1.5 0-0.9-0.7-1.6-1.6-1.6m-21.5 0c-0.9 0-1.6 0.7-1.6 1.6 0 0.8 0.7 1.5 1.6 1.5 0.9 0 1.6-0.7 1.6-1.5 0-0.9-0.7-1.6-1.6-1.6m-21.6 0c-0.8 0-1.5 0.7-1.5 1.6 0 0.8 0.7 1.5 1.5 1.5 0.9 0 1.6-0.7 1.6-1.5 0-0.9-0.7-1.6-1.6-1.6m323.2 21.5c-0.9 0-1.6 0.7-1.6 1.6 0 0.9 0.7 1.6 1.6 1.6 0.8 0 1.5-0.7 1.5-1.6 0-0.9-0.7-1.6-1.5-1.6m-21.6 0c-0.8 0-1.6 0.7-1.6 1.6 0 0.9 0.8 1.6 1.6 1.6 0.9 0 1.6-0.7 1.6-1.6 0-0.9-0.7-1.6-1.6-1.6m-21.5 0c-0.9 0-1.6 0.7-1.6 1.6 0 0.9 0.7 1.6 1.6 1.6 0.9 0 1.6-0.7 1.6-1.6 0-0.9-0.7-1.6-1.6-1.6m-21.6 0c-0.8 0-1.5 0.7-1.5 1.6 0 0.9 0.7 1.6 1.5 1.6 0.9 0 1.6-0.7 1.6-1.6 0-0.9-0.7-1.6-1.6-1.6m-21.5 0c-0.9 0-1.6 0.7-1.6 1.6 0 0.9 0.7 1.6 1.6 1.6 0.9 0 1.6-0.7 1.6-1.6 0-0.9-0.7-1.6-1.6-1.6m-21.5 0c-0.9 0-1.6 0.7-1.6 1.6 0 0.9 0.7 1.6 1.6 1.6 0.8 0 1.5-0.7 1.5-1.6 0-0.9-0.7-1.6-1.5-1.6m-21.6 0c-0.9 0-1.6 0.7-1.6 1.6 0 0.9 0.7 1.6 1.6 1.6 0.9 0 1.6-0.7 1.6-1.6 0-0.9-0.7-1.6-1.6-1.6m-21.5 0c-0.9 0-1.6 0.7-1.6 1.6 0 0.9 0.7 1.6 1.6 1.6 0.9 0 1.6-0.7 1.6-1.6 0-0.9-0.7-1.6-1.6-1.6m-21.6 0c-0.8 0-1.5 0.7-1.5 1.6 0 0.9 0.7 1.6 1.5 1.6 0.9 0 1.6-0.7 1.6-1.6 0-0.9-0.7-1.6-1.6-1.6m-21.5 0c-0.9 0-1.6 0.7-1.6 1.6 0 0.9 0.7 1.6 1.6 1.6 0.9 0 1.6-0.7 1.6-1.6 0-0.9-0.7-1.6-1.6-1.6m-21.5 0c-0.9 0-1.6 0.7-1.6 1.6 0 0.9 0.7 1.6 1.6 1.6 0.8 0 1.5-0.7 1.5-1.6 0-0.9-0.7-1.6-1.5-1.6m-21.6 0c-0.9 0-1.6 0.7-1.6 1.6 0 0.9 0.7 1.6 1.6 1.6 0.9 0 1.6-0.7 1.6-1.6 0-0.9-0.7-1.6-1.6-1.6m-21.5 0c-0.9 0-1.6 0.7-1.6 1.6 0 0.9 0.7 1.6 1.6 1.6 0.8 0 1.6-0.7 1.6-1.6 0-0.9-0.8-1.6-1.6-1.6m-21.6 0c-0.8 0-1.6 0.7-1.6 1.6 0 0.9 0.8 1.6 1.6 1.6 0.9 0 1.6-0.7 1.6-1.6 0-0.9-0.7-1.6-1.6-1.6m-21.5 0c-0.9 0-1.6 0.7-1.6 1.6 0 0.9 0.7 1.6 1.6 1.6 0.9 0 1.6-0.7 1.6-1.6 0-0.9-0.7-1.6-1.6-1.6m-21.6 0c-0.8 0-1.5 0.7-1.5 1.6 0 0.9 0.7 1.6 1.5 1.6 0.9 0 1.6-0.7 1.6-1.6 0-0.9-0.7-1.6-1.6-1.6m323.2 21.6c-0.9 0-1.6 0.7-1.6 1.6 0 0.8 0.7 1.6 1.6 1.6 0.8 0 1.5-0.8 1.5-1.6 0-0.9-0.7-1.6-1.5-1.6m-21.6 0c-0.8 0-1.6 0.7-1.6 1.6 0 0.8 0.8 1.6 1.6 1.6 0.9 0 1.6-0.8 1.6-1.6 0-0.9-0.7-1.6-1.6-1.6m-21.5 0c-0.9 0-1.6 0.7-1.6 1.6 0 0.8 0.7 1.6 1.6 1.6 0.9 0 1.6-0.8 1.6-1.6 0-0.9-0.7-1.6-1.6-1.6m-21.6 0c-0.8 0-1.5 0.7-1.5 1.6 0 0.8 0.7 1.6 1.5 1.6 0.9 0 1.6-0.8 1.6-1.6 0-0.9-0.7-1.6-1.6-1.6m-21.5 0c-0.9 0-1.6 0.7-1.6 1.6 0 0.8 0.7 1.6 1.6 1.6 0.9 0 1.6-0.8 1.6-1.6 0-0.9-0.7-1.6-1.6-1.6m-21.5 0c-0.9 0-1.6 0.7-1.6 1.6 0 0.8 0.7 1.6 1.6 1.6 0.8 0 1.5-0.8 1.5-1.6 0-0.9-0.7-1.6-1.5-1.6m-21.6 0c-0.9 0-1.6 0.7-1.6 1.6 0 0.8 0.7 1.6 1.6 1.6 0.9 0 1.6-0.8 1.6-1.6 0-0.9-0.7-1.6-1.6-1.6m-21.5 0c-0.9 0-1.6 0.7-1.6 1.6 0 0.8 0.7 1.6 1.6 1.6 0.9 0 1.6-0.8 1.6-1.6 0-0.9-0.7-1.6-1.6-1.6m-21.6 0c-0.8 0-1.5 0.7-1.5 1.6 0 0.8 0.7 1.6 1.5 1.6 0.9 0 1.6-0.8 1.6-1.6 0-0.9-0.7-1.6-1.6-1.6m-21.5 0c-0.9 0-1.6 0.7-1.6 1.6 0 0.8 0.7 1.6 1.6 1.6 0.9 0 1.6-0.8 1.6-1.6 0-0.9-0.7-1.6-1.6-1.6m-21.5 0c-0.9 0-1.6 0.7-1.6 1.6 0 0.8 0.7 1.6 1.6 1.6 0.8 0 1.5-0.8 1.5-1.6 0-0.9-0.7-1.6-1.5-1.6m-21.6 0c-0.9 0-1.6 0.7-1.6 1.6 0 0.8 0.7 1.6 1.6 1.6 0.9 0 1.6-0.8 1.6-1.6 0-0.9-0.7-1.6-1.6-1.6m-21.5 0c-0.9 0-1.6 0.7-1.6 1.6 0 0.8 0.7 1.6 1.6 1.6 0.8 0 1.6-0.8 1.6-1.6 0-0.9-0.8-1.6-1.6-1.6m-21.6 0c-0.8 0-1.6 0.7-1.6 1.6 0 0.8 0.8 1.6 1.6 1.6 0.9 0 1.6-0.8 1.6-1.6 0-0.9-0.7-1.6-1.6-1.6m-21.5 0c-0.9 0-1.6 0.7-1.6 1.6 0 0.8 0.7 1.6 1.6 1.6 0.9 0 1.6-0.8 1.6-1.6 0-0.9-0.7-1.6-1.6-1.6m-21.6 0c-0.8 0-1.5 0.7-1.5 1.6 0 0.8 0.7 1.6 1.5 1.6 0.9 0 1.6-0.8 1.6-1.6 0-0.9-0.7-1.6-1.6-1.6m323.2 21.5c-0.9 0-1.6 0.8-1.6 1.6 0 0.9 0.7 1.6 1.6 1.6 0.8 0 1.5-0.7 1.5-1.6 0-0.8-0.7-1.6-1.5-1.6m-21.6 0c-0.8 0-1.6 0.8-1.6 1.6 0 0.9 0.8 1.6 1.6 1.6 0.9 0 1.6-0.7 1.6-1.6 0-0.8-0.7-1.6-1.6-1.6m-21.5 0c-0.9 0-1.6 0.8-1.6 1.6 0 0.9 0.7 1.6 1.6 1.6 0.9 0 1.6-0.7 1.6-1.6 0-0.8-0.7-1.6-1.6-1.6m-21.6 0c-0.8 0-1.5 0.8-1.5 1.6 0 0.9 0.7 1.6 1.5 1.6 0.9 0 1.6-0.7 1.6-1.6 0-0.8-0.7-1.6-1.6-1.6m-21.5 0c-0.9 0-1.6 0.8-1.6 1.6 0 0.9 0.7 1.6 1.6 1.6 0.9 0 1.6-0.7 1.6-1.6 0-0.8-0.7-1.6-1.6-1.6m-21.5 0c-0.9 0-1.6 0.8-1.6 1.6 0 0.9 0.7 1.6 1.6 1.6 0.8 0 1.5-0.7 1.5-1.6 0-0.8-0.7-1.6-1.5-1.6m-21.6 0c-0.9 0-1.6 0.8-1.6 1.6 0 0.9 0.7 1.6 1.6 1.6 0.9 0 1.6-0.7 1.6-1.6 0-0.8-0.7-1.6-1.6-1.6m-21.5 0c-0.9 0-1.6 0.8-1.6 1.6 0 0.9 0.7 1.6 1.6 1.6 0.9 0 1.6-0.7 1.6-1.6 0-0.8-0.7-1.6-1.6-1.6m-21.6 0c-0.8 0-1.5 0.8-1.5 1.6 0 0.9 0.7 1.6 1.5 1.6 0.9 0 1.6-0.7 1.6-1.6 0-0.8-0.7-1.6-1.6-1.6m-21.5 0c-0.9 0-1.6 0.8-1.6 1.6 0 0.9 0.7 1.6 1.6 1.6 0.9 0 1.6-0.7 1.6-1.6 0-0.8-0.7-1.6-1.6-1.6m-21.5 0c-0.9 0-1.6 0.8-1.6 1.6 0 0.9 0.7 1.6 1.6 1.6 0.8 0 1.5-0.7 1.5-1.6 0-0.8-0.7-1.6-1.5-1.6m-21.6 0c-0.9 0-1.6 0.8-1.6 1.6 0 0.9 0.7 1.6 1.6 1.6 0.9 0 1.6-0.7 1.6-1.6 0-0.8-0.7-1.6-1.6-1.6m-21.5 0c-0.9 0-1.6 0.8-1.6 1.6 0 0.9 0.7 1.6 1.6 1.6 0.8 0 1.6-0.7 1.6-1.6 0-0.8-0.8-1.6-1.6-1.6m-21.6 0c-0.8 0-1.6 0.8-1.6 1.6 0 0.9 0.8 1.6 1.6 1.6 0.9 0 1.6-0.7 1.6-1.6 0-0.8-0.7-1.6-1.6-1.6m-21.5 0c-0.9 0-1.6 0.8-1.6 1.6 0 0.9 0.7 1.6 1.6 1.6 0.9 0 1.6-0.7 1.6-1.6 0-0.8-0.7-1.6-1.6-1.6m-21.6 0c-0.8 0-1.5 0.8-1.5 1.6 0 0.9 0.7 1.6 1.5 1.6 0.9 0 1.6-0.7 1.6-1.6 0-0.8-0.7-1.6-1.6-1.6m323.2 21.6c-0.9 0-1.6 0.7-1.6 1.6 0 0.9 0.7 1.6 1.6 1.6 0.8 0 1.5-0.7 1.5-1.6 0-0.9-0.7-1.6-1.5-1.6m-21.6 0c-0.8 0-1.6 0.7-1.6 1.6 0 0.9 0.8 1.6 1.6 1.6 0.9 0 1.6-0.7 1.6-1.6 0-0.9-0.7-1.6-1.6-1.6m-21.5 0c-0.9 0-1.6 0.7-1.6 1.6 0 0.9 0.7 1.6 1.6 1.6 0.9 0 1.6-0.7 1.6-1.6 0-0.9-0.7-1.6-1.6-1.6m-21.6 0c-0.8 0-1.5 0.7-1.5 1.6 0 0.9 0.7 1.6 1.5 1.6 0.9 0 1.6-0.7 1.6-1.6 0-0.9-0.7-1.6-1.6-1.6m-21.5 0c-0.9 0-1.6 0.7-1.6 1.6 0 0.9 0.7 1.6 1.6 1.6 0.9 0 1.6-0.7 1.6-1.6 0-0.9-0.7-1.6-1.6-1.6m-21.5 0c-0.9 0-1.6 0.7-1.6 1.6 0 0.9 0.7 1.6 1.6 1.6 0.8 0 1.5-0.7 1.5-1.6 0-0.9-0.7-1.6-1.5-1.6m-21.6 0c-0.9 0-1.6 0.7-1.6 1.6 0 0.9 0.7 1.6 1.6 1.6 0.9 0 1.6-0.7 1.6-1.6 0-0.9-0.7-1.6-1.6-1.6m-21.5 0c-0.9 0-1.6 0.7-1.6 1.6 0 0.9 0.7 1.6 1.6 1.6 0.9 0 1.6-0.7 1.6-1.6 0-0.9-0.7-1.6-1.6-1.6m-21.6 0c-0.8 0-1.5 0.7-1.5 1.6 0 0.9 0.7 1.6 1.5 1.6 0.9 0 1.6-0.7 1.6-1.6 0-0.9-0.7-1.6-1.6-1.6m-21.5 0c-0.9 0-1.6 0.7-1.6 1.6 0 0.9 0.7 1.6 1.6 1.6 0.9 0 1.6-0.7 1.6-1.6 0-0.9-0.7-1.6-1.6-1.6m-21.5 0c-0.9 0-1.6 0.7-1.6 1.6 0 0.9 0.7 1.6 1.6 1.6 0.8 0 1.5-0.7 1.5-1.6 0-0.9-0.7-1.6-1.5-1.6m-21.6 0c-0.9 0-1.6 0.7-1.6 1.6 0 0.9 0.7 1.6 1.6 1.6 0.9 0 1.6-0.7 1.6-1.6 0-0.9-0.7-1.6-1.6-1.6m-21.5 0c-0.9 0-1.6 0.7-1.6 1.6 0 0.9 0.7 1.6 1.6 1.6 0.8 0 1.6-0.7 1.6-1.6 0-0.9-0.8-1.6-1.6-1.6m-21.6 0c-0.8 0-1.6 0.7-1.6 1.6 0 0.9 0.8 1.6 1.6 1.6 0.9 0 1.6-0.7 1.6-1.6 0-0.9-0.7-1.6-1.6-1.6m-21.5 0c-0.9 0-1.6 0.7-1.6 1.6 0 0.9 0.7 1.6 1.6 1.6 0.9 0 1.6-0.7 1.6-1.6 0-0.9-0.7-1.6-1.6-1.6m-21.6 0c-0.8 0-1.5 0.7-1.5 1.6 0 0.9 0.7 1.6 1.5 1.6 0.9 0 1.6-0.7 1.6-1.6 0-0.9-0.7-1.6-1.6-1.6m323.2 21.6c-0.9 0-1.6 0.7-1.6 1.5 0 0.9 0.7 1.6 1.6 1.6 0.8 0 1.5-0.7 1.5-1.6 0-0.8-0.7-1.5-1.5-1.5m-21.6 0c-0.8 0-1.6 0.7-1.6 1.5 0 0.9 0.8 1.6 1.6 1.6 0.9 0 1.6-0.7 1.6-1.6 0-0.8-0.7-1.5-1.6-1.5m-21.5 0c-0.9 0-1.6 0.7-1.6 1.5 0 0.9 0.7 1.6 1.6 1.6 0.9 0 1.6-0.7 1.6-1.6 0-0.8-0.7-1.5-1.6-1.5m-21.6 0c-0.8 0-1.5 0.7-1.5 1.5 0 0.9 0.7 1.6 1.5 1.6 0.9 0 1.6-0.7 1.6-1.6 0-0.8-0.7-1.5-1.6-1.5m-21.5 0c-0.9 0-1.6 0.7-1.6 1.5 0 0.9 0.7 1.6 1.6 1.6 0.9 0 1.6-0.7 1.6-1.6 0-0.8-0.7-1.5-1.6-1.5m-21.5 0c-0.9 0-1.6 0.7-1.6 1.5 0 0.9 0.7 1.6 1.6 1.6 0.8 0 1.5-0.7 1.5-1.6 0-0.8-0.7-1.5-1.5-1.5m-21.6 0c-0.9 0-1.6 0.7-1.6 1.5 0 0.9 0.7 1.6 1.6 1.6 0.9 0 1.6-0.7 1.6-1.6 0-0.8-0.7-1.5-1.6-1.5m-21.5 0c-0.9 0-1.6 0.7-1.6 1.5 0 0.9 0.7 1.6 1.6 1.6 0.9 0 1.6-0.7 1.6-1.6 0-0.8-0.7-1.5-1.6-1.5m-21.6 0c-0.8 0-1.5 0.7-1.5 1.5 0 0.9 0.7 1.6 1.5 1.6 0.9 0 1.6-0.7 1.6-1.6 0-0.8-0.7-1.5-1.6-1.5m-21.5 0c-0.9 0-1.6 0.7-1.6 1.5 0 0.9 0.7 1.6 1.6 1.6 0.9 0 1.6-0.7 1.6-1.6 0-0.8-0.7-1.5-1.6-1.5m-21.5 0c-0.9 0-1.6 0.7-1.6 1.5 0 0.9 0.7 1.6 1.6 1.6 0.8 0 1.5-0.7 1.5-1.6 0-0.8-0.7-1.5-1.5-1.5m-21.6 0c-0.9 0-1.6 0.7-1.6 1.5 0 0.9 0.7 1.6 1.6 1.6 0.9 0 1.6-0.7 1.6-1.6 0-0.8-0.7-1.5-1.6-1.5m-21.5 0c-0.9 0-1.6 0.7-1.6 1.5 0 0.9 0.7 1.6 1.6 1.6 0.8 0 1.6-0.7 1.6-1.6 0-0.8-0.8-1.5-1.6-1.5m-21.6 0c-0.8 0-1.6 0.7-1.6 1.5 0 0.9 0.8 1.6 1.6 1.6 0.9 0 1.6-0.7 1.6-1.6 0-0.8-0.7-1.5-1.6-1.5m-21.5 0c-0.9 0-1.6 0.7-1.6 1.5 0 0.9 0.7 1.6 1.6 1.6 0.9 0 1.6-0.7 1.6-1.6 0-0.8-0.7-1.5-1.6-1.5m-21.6 0c-0.8 0-1.5 0.7-1.5 1.5 0 0.9 0.7 1.6 1.5 1.6 0.9 0 1.6-0.7 1.6-1.6 0-0.8-0.7-1.5-1.6-1.5m-21.5 0c-0.9 0-1.6 0.7-1.6 1.5 0 0.9 0.7 1.6 1.6 1.6 0.9 0 1.6-0.7 1.6-1.6 0-0.8-0.7-1.5-1.6-1.5m-21.5 0c-0.9 0-1.6 0.7-1.6 1.5 0 0.9 0.7 1.6 1.6 1.6 0.8 0 1.5-0.7 1.5-1.6 0-0.8-0.7-1.5-1.5-1.5m-21.6 0c-0.9 0-1.6 0.7-1.6 1.5 0 0.9 0.7 1.6 1.6 1.6 0.9 0 1.6-0.7 1.6-1.6 0-0.8-0.7-1.5-1.6-1.5m-21.5 0c-0.9 0-1.6 0.7-1.6 1.5 0 0.9 0.7 1.6 1.6 1.6 0.9 0 1.6-0.7 1.6-1.6 0-0.8-0.7-1.5-1.6-1.5m-21.6 0c-0.8 0-1.5 0.7-1.5 1.5 0 0.9 0.7 1.6 1.5 1.6 0.9 0 1.6-0.7 1.6-1.6 0-0.8-0.7-1.5-1.6-1.5m-21.5 0c-0.9 0-1.6 0.7-1.6 1.5 0 0.9 0.7 1.6 1.6 1.6 0.9 0 1.6-0.7 1.6-1.6 0-0.8-0.7-1.5-1.6-1.5m-21.5 0c-0.9 0-1.6 0.7-1.6 1.5 0 0.9 0.7 1.6 1.6 1.6 0.8 0 1.5-0.7 1.5-1.6 0-0.8-0.7-1.5-1.5-1.5m-21.6 0c-0.9 0-1.6 0.7-1.6 1.5 0 0.9 0.7 1.6 1.6 1.6 0.9 0 1.6-0.7 1.6-1.6 0-0.8-0.7-1.5-1.6-1.5m-21.5 0c-0.9 0-1.6 0.7-1.6 1.5 0 0.9 0.7 1.6 1.6 1.6 0.8 0 1.6-0.7 1.6-1.6 0-0.8-0.8-1.5-1.6-1.5m517-301.8c-0.9 0-1.6 0.7-1.6 1.5 0 0.9 0.7 1.6 1.6 1.6 0.8 0 1.5-0.7 1.5-1.6 0-0.8-0.7-1.5-1.5-1.5m-21.6 0c-0.8 0-1.6 0.7-1.6 1.5 0 0.9 0.8 1.6 1.6 1.6 0.9 0 1.6-0.7 1.6-1.6 0-0.8-0.7-1.5-1.6-1.5m-21.5 0c-0.9 0-1.6 0.7-1.6 1.5 0 0.9 0.7 1.6 1.6 1.6 0.9 0 1.6-0.7 1.6-1.6 0-0.8-0.7-1.5-1.6-1.5m-21.6 0c-0.8 0-1.5 0.7-1.5 1.5 0 0.9 0.7 1.6 1.5 1.6 0.9 0 1.6-0.7 1.6-1.6 0-0.8-0.7-1.5-1.6-1.5m-21.5 0c-0.9 0-1.6 0.7-1.6 1.5 0 0.9 0.7 1.6 1.6 1.6 0.9 0 1.6-0.7 1.6-1.6 0-0.8-0.7-1.5-1.6-1.5m-21.5 0c-0.9 0-1.6 0.7-1.6 1.5 0 0.9 0.7 1.6 1.6 1.6 0.8 0 1.5-0.7 1.5-1.6 0-0.8-0.7-1.5-1.5-1.5m-21.6 0c-0.9 0-1.6 0.7-1.6 1.5 0 0.9 0.7 1.6 1.6 1.6 0.9 0 1.6-0.7 1.6-1.6 0-0.8-0.7-1.5-1.6-1.5m-21.5 0c-0.9 0-1.6 0.7-1.6 1.5 0 0.9 0.7 1.6 1.6 1.6 0.9 0 1.6-0.7 1.6-1.6 0-0.8-0.7-1.5-1.6-1.5m-21.6 0c-0.8 0-1.5 0.7-1.5 1.5 0 0.9 0.7 1.6 1.5 1.6 0.9 0 1.6-0.7 1.6-1.6 0-0.8-0.7-1.5-1.6-1.5m-21.5 0c-0.9 0-1.6 0.7-1.6 1.5 0 0.9 0.7 1.6 1.6 1.6 0.9 0 1.6-0.7 1.6-1.6 0-0.8-0.7-1.5-1.6-1.5m-21.5 0c-0.9 0-1.6 0.7-1.6 1.5 0 0.9 0.7 1.6 1.6 1.6 0.8 0 1.5-0.7 1.5-1.6 0-0.8-0.7-1.5-1.5-1.5m-21.6 0c-0.9 0-1.6 0.7-1.6 1.5 0 0.9 0.7 1.6 1.6 1.6 0.9 0 1.6-0.7 1.6-1.6 0-0.8-0.7-1.5-1.6-1.5m-21.5 0c-0.9 0-1.6 0.7-1.6 1.5 0 0.9 0.7 1.6 1.6 1.6 0.8 0 1.6-0.7 1.6-1.6 0-0.8-0.8-1.5-1.6-1.5m-21.6 0c-0.8 0-1.6 0.7-1.6 1.5 0 0.9 0.8 1.6 1.6 1.6 0.9 0 1.6-0.7 1.6-1.6 0-0.8-0.7-1.5-1.6-1.5m-21.5 0c-0.9 0-1.6 0.7-1.6 1.5 0 0.9 0.7 1.6 1.6 1.6 0.9 0 1.6-0.7 1.6-1.6 0-0.8-0.7-1.5-1.6-1.5m-21.6 0c-0.8 0-1.5 0.7-1.5 1.5 0 0.9 0.7 1.6 1.5 1.6 0.9 0 1.6-0.7 1.6-1.6 0-0.8-0.7-1.5-1.6-1.5m-21.5 0c-0.9 0-1.6 0.7-1.6 1.5 0 0.9 0.7 1.6 1.6 1.6 0.9 0 1.6-0.7 1.6-1.6 0-0.8-0.7-1.5-1.6-1.5m-21.5 0c-0.9 0-1.6 0.7-1.6 1.5 0 0.9 0.7 1.6 1.6 1.6 0.8 0 1.5-0.7 1.5-1.6 0-0.8-0.7-1.5-1.5-1.5m-21.6 0c-0.9 0-1.6 0.7-1.6 1.5 0 0.9 0.7 1.6 1.6 1.6 0.9 0 1.6-0.7 1.6-1.6 0-0.8-0.7-1.5-1.6-1.5m-21.5 0c-0.9 0-1.6 0.7-1.6 1.5 0 0.9 0.7 1.6 1.6 1.6 0.9 0 1.6-0.7 1.6-1.6 0-0.8-0.7-1.5-1.6-1.5m-21.6 0c-0.8 0-1.5 0.7-1.5 1.5 0 0.9 0.7 1.6 1.5 1.6 0.9 0 1.6-0.7 1.6-1.6 0-0.8-0.7-1.5-1.6-1.5m-21.5 0c-0.9 0-1.6 0.7-1.6 1.5 0 0.9 0.7 1.6 1.6 1.6 0.9 0 1.6-0.7 1.6-1.6 0-0.8-0.7-1.5-1.6-1.5m-21.5 0c-0.9 0-1.6 0.7-1.6 1.5 0 0.9 0.7 1.6 1.6 1.6 0.8 0 1.5-0.7 1.5-1.6 0-0.8-0.7-1.5-1.5-1.5m-21.6 0c-0.9 0-1.6 0.7-1.6 1.5 0 0.9 0.7 1.6 1.6 1.6 0.9 0 1.6-0.7 1.6-1.6 0-0.8-0.7-1.5-1.6-1.5m-21.5 0c-0.9 0-1.6 0.7-1.6 1.5 0 0.9 0.7 1.6 1.6 1.6 0.8 0 1.6-0.7 1.6-1.6 0-0.8-0.8-1.5-1.6-1.5m517 21.5c-0.9 0-1.6 0.7-1.6 1.6 0 0.9 0.7 1.6 1.6 1.6 0.8 0 1.5-0.7 1.5-1.6 0-0.9-0.7-1.6-1.5-1.6m-21.6 0c-0.8 0-1.6 0.7-1.6 1.6 0 0.9 0.8 1.6 1.6 1.6 0.9 0 1.6-0.7 1.6-1.6 0-0.9-0.7-1.6-1.6-1.6m-21.5 0c-0.9 0-1.6 0.7-1.6 1.6 0 0.9 0.7 1.6 1.6 1.6 0.9 0 1.6-0.7 1.6-1.6 0-0.9-0.7-1.6-1.6-1.6m-21.6 0c-0.8 0-1.5 0.7-1.5 1.6 0 0.9 0.7 1.6 1.5 1.6 0.9 0 1.6-0.7 1.6-1.6 0-0.9-0.7-1.6-1.6-1.6m-21.5 0c-0.9 0-1.6 0.7-1.6 1.6 0 0.9 0.7 1.6 1.6 1.6 0.9 0 1.6-0.7 1.6-1.6 0-0.9-0.7-1.6-1.6-1.6m-21.5 0c-0.9 0-1.6 0.7-1.6 1.6 0 0.9 0.7 1.6 1.6 1.6 0.8 0 1.5-0.7 1.5-1.6 0-0.9-0.7-1.6-1.5-1.6m-21.6 0c-0.9 0-1.6 0.7-1.6 1.6 0 0.9 0.7 1.6 1.6 1.6 0.9 0 1.6-0.7 1.6-1.6 0-0.9-0.7-1.6-1.6-1.6m-21.5 0c-0.9 0-1.6 0.7-1.6 1.6 0 0.9 0.7 1.6 1.6 1.6 0.9 0 1.6-0.7 1.6-1.6 0-0.9-0.7-1.6-1.6-1.6m-21.6 0c-0.8 0-1.5 0.7-1.5 1.6 0 0.9 0.7 1.6 1.5 1.6 0.9 0 1.6-0.7 1.6-1.6 0-0.9-0.7-1.6-1.6-1.6m-21.5 0c-0.9 0-1.6 0.7-1.6 1.6 0 0.9 0.7 1.6 1.6 1.6 0.9 0 1.6-0.7 1.6-1.6 0-0.9-0.7-1.6-1.6-1.6m-21.5 0c-0.9 0-1.6 0.7-1.6 1.6 0 0.9 0.7 1.6 1.6 1.6 0.8 0 1.5-0.7 1.5-1.6 0-0.9-0.7-1.6-1.5-1.6m-21.6 0c-0.9 0-1.6 0.7-1.6 1.6 0 0.9 0.7 1.6 1.6 1.6 0.9 0 1.6-0.7 1.6-1.6 0-0.9-0.7-1.6-1.6-1.6m-21.5 0c-0.9 0-1.6 0.7-1.6 1.6 0 0.9 0.7 1.6 1.6 1.6 0.8 0 1.6-0.7 1.6-1.6 0-0.9-0.8-1.6-1.6-1.6m-21.6 0c-0.8 0-1.6 0.7-1.6 1.6 0 0.9 0.8 1.6 1.6 1.6 0.9 0 1.6-0.7 1.6-1.6 0-0.9-0.7-1.6-1.6-1.6m-21.5 0c-0.9 0-1.6 0.7-1.6 1.6 0 0.9 0.7 1.6 1.6 1.6 0.9 0 1.6-0.7 1.6-1.6 0-0.9-0.7-1.6-1.6-1.6m-21.6 0c-0.8 0-1.5 0.7-1.5 1.6 0 0.9 0.7 1.6 1.5 1.6 0.9 0 1.6-0.7 1.6-1.6 0-0.9-0.7-1.6-1.6-1.6m-21.5 0c-0.9 0-1.6 0.7-1.6 1.6 0 0.9 0.7 1.6 1.6 1.6 0.9 0 1.6-0.7 1.6-1.6 0-0.9-0.7-1.6-1.6-1.6m-21.5 0c-0.9 0-1.6 0.7-1.6 1.6 0 0.9 0.7 1.6 1.6 1.6 0.8 0 1.5-0.7 1.5-1.6 0-0.9-0.7-1.6-1.5-1.6m-21.6 0c-0.9 0-1.6 0.7-1.6 1.6 0 0.9 0.7 1.6 1.6 1.6 0.9 0 1.6-0.7 1.6-1.6 0-0.9-0.7-1.6-1.6-1.6m-21.5 0c-0.9 0-1.6 0.7-1.6 1.6 0 0.9 0.7 1.6 1.6 1.6 0.9 0 1.6-0.7 1.6-1.6 0-0.9-0.7-1.6-1.6-1.6m-21.6 0c-0.8 0-1.5 0.7-1.5 1.6 0 0.9 0.7 1.6 1.5 1.6 0.9 0 1.6-0.7 1.6-1.6 0-0.9-0.7-1.6-1.6-1.6m-21.5 0c-0.9 0-1.6 0.7-1.6 1.6 0 0.9 0.7 1.6 1.6 1.6 0.9 0 1.6-0.7 1.6-1.6 0-0.9-0.7-1.6-1.6-1.6m-21.5 0c-0.9 0-1.6 0.7-1.6 1.6 0 0.9 0.7 1.6 1.6 1.6 0.8 0 1.5-0.7 1.5-1.6 0-0.9-0.7-1.6-1.5-1.6m-21.6 0c-0.9 0-1.6 0.7-1.6 1.6 0 0.9 0.7 1.6 1.6 1.6 0.9 0 1.6-0.7 1.6-1.6 0-0.9-0.7-1.6-1.6-1.6m-21.5 0c-0.9 0-1.6 0.7-1.6 1.6 0 0.9 0.7 1.6 1.6 1.6 0.8 0 1.6-0.7 1.6-1.6 0-0.9-0.8-1.6-1.6-1.6m517-43.1c-0.9 0-1.6 0.7-1.6 1.6 0 0.9 0.7 1.6 1.6 1.6 0.8 0 1.5-0.7 1.5-1.6 0-0.9-0.7-1.6-1.5-1.6m-21.6 0c-0.8 0-1.6 0.7-1.6 1.6 0 0.9 0.8 1.6 1.6 1.6 0.9 0 1.6-0.7 1.6-1.6 0-0.9-0.7-1.6-1.6-1.6m-21.5 0c-0.9 0-1.6 0.7-1.6 1.6 0 0.9 0.7 1.6 1.6 1.6 0.9 0 1.6-0.7 1.6-1.6 0-0.9-0.7-1.6-1.6-1.6m-21.6 0c-0.8 0-1.5 0.7-1.5 1.6 0 0.9 0.7 1.6 1.5 1.6 0.9 0 1.6-0.7 1.6-1.6 0-0.9-0.7-1.6-1.6-1.6m-21.5 0c-0.9 0-1.6 0.7-1.6 1.6 0 0.9 0.7 1.6 1.6 1.6 0.9 0 1.6-0.7 1.6-1.6 0-0.9-0.7-1.6-1.6-1.6m-21.5 0c-0.9 0-1.6 0.7-1.6 1.6 0 0.9 0.7 1.6 1.6 1.6 0.8 0 1.5-0.7 1.5-1.6 0-0.9-0.7-1.6-1.5-1.6m-21.6 0c-0.9 0-1.6 0.7-1.6 1.6 0 0.9 0.7 1.6 1.6 1.6 0.9 0 1.6-0.7 1.6-1.6 0-0.9-0.7-1.6-1.6-1.6m-21.5 0c-0.9 0-1.6 0.7-1.6 1.6 0 0.9 0.7 1.6 1.6 1.6 0.9 0 1.6-0.7 1.6-1.6 0-0.9-0.7-1.6-1.6-1.6m-21.6 0c-0.8 0-1.5 0.7-1.5 1.6 0 0.9 0.7 1.6 1.5 1.6 0.9 0 1.6-0.7 1.6-1.6 0-0.9-0.7-1.6-1.6-1.6m-21.5 0c-0.9 0-1.6 0.7-1.6 1.6 0 0.9 0.7 1.6 1.6 1.6 0.9 0 1.6-0.7 1.6-1.6 0-0.9-0.7-1.6-1.6-1.6m-21.5 0c-0.9 0-1.6 0.7-1.6 1.6 0 0.9 0.7 1.6 1.6 1.6 0.8 0 1.5-0.7 1.5-1.6 0-0.9-0.7-1.6-1.5-1.6m-21.6 0c-0.9 0-1.6 0.7-1.6 1.6 0 0.9 0.7 1.6 1.6 1.6 0.9 0 1.6-0.7 1.6-1.6 0-0.9-0.7-1.6-1.6-1.6m-21.5 0c-0.9 0-1.6 0.7-1.6 1.6 0 0.9 0.7 1.6 1.6 1.6 0.8 0 1.6-0.7 1.6-1.6 0-0.9-0.8-1.6-1.6-1.6m-21.6 0c-0.8 0-1.6 0.7-1.6 1.6 0 0.9 0.8 1.6 1.6 1.6 0.9 0 1.6-0.7 1.6-1.6 0-0.9-0.7-1.6-1.6-1.6m-21.5 0c-0.9 0-1.6 0.7-1.6 1.6 0 0.9 0.7 1.6 1.6 1.6 0.9 0 1.6-0.7 1.6-1.6 0-0.9-0.7-1.6-1.6-1.6m-21.6 0c-0.8 0-1.5 0.7-1.5 1.6 0 0.9 0.7 1.6 1.5 1.6 0.9 0 1.6-0.7 1.6-1.6 0-0.9-0.7-1.6-1.6-1.6m-21.5 0c-0.9 0-1.6 0.7-1.6 1.6 0 0.9 0.7 1.6 1.6 1.6 0.9 0 1.6-0.7 1.6-1.6 0-0.9-0.7-1.6-1.6-1.6m-21.5 0c-0.9 0-1.6 0.7-1.6 1.6 0 0.9 0.7 1.6 1.6 1.6 0.8 0 1.5-0.7 1.5-1.6 0-0.9-0.7-1.6-1.5-1.6m-21.6 0c-0.9 0-1.6 0.7-1.6 1.6 0 0.9 0.7 1.6 1.6 1.6 0.9 0 1.6-0.7 1.6-1.6 0-0.9-0.7-1.6-1.6-1.6m-21.5 0c-0.9 0-1.6 0.7-1.6 1.6 0 0.9 0.7 1.6 1.6 1.6 0.9 0 1.6-0.7 1.6-1.6 0-0.9-0.7-1.6-1.6-1.6m-21.6 0c-0.8 0-1.5 0.7-1.5 1.6 0 0.9 0.7 1.6 1.5 1.6 0.9 0 1.6-0.7 1.6-1.6 0-0.9-0.7-1.6-1.6-1.6m-21.5 0c-0.9 0-1.6 0.7-1.6 1.6 0 0.9 0.7 1.6 1.6 1.6 0.9 0 1.6-0.7 1.6-1.6 0-0.9-0.7-1.6-1.6-1.6m-21.5 0c-0.9 0-1.6 0.7-1.6 1.6 0 0.9 0.7 1.6 1.6 1.6 0.8 0 1.5-0.7 1.5-1.6 0-0.9-0.7-1.6-1.5-1.6m-21.6 0c-0.9 0-1.6 0.7-1.6 1.6 0 0.9 0.7 1.6 1.6 1.6 0.9 0 1.6-0.7 1.6-1.6 0-0.9-0.7-1.6-1.6-1.6m-21.5 0c-0.9 0-1.6 0.7-1.6 1.6 0 0.9 0.7 1.6 1.6 1.6 0.8 0 1.6-0.7 1.6-1.6 0-0.9-0.8-1.6-1.6-1.6m517 344.9c-0.9 0-1.6 0.7-1.6 1.6 0 0.9 0.7 1.6 1.6 1.6 0.8 0 1.5-0.7 1.5-1.6 0-0.9-0.7-1.6-1.5-1.6m-21.6 0c-0.8 0-1.6 0.7-1.6 1.6 0 0.9 0.8 1.6 1.6 1.6 0.9 0 1.6-0.7 1.6-1.6 0-0.9-0.7-1.6-1.6-1.6m-21.5 0c-0.9 0-1.6 0.7-1.6 1.6 0 0.9 0.7 1.6 1.6 1.6 0.9 0 1.6-0.7 1.6-1.6 0-0.9-0.7-1.6-1.6-1.6m-21.6 0c-0.8 0-1.5 0.7-1.5 1.6 0 0.9 0.7 1.6 1.5 1.6 0.9 0 1.6-0.7 1.6-1.6 0-0.9-0.7-1.6-1.6-1.6m-21.5 0c-0.9 0-1.6 0.7-1.6 1.6 0 0.9 0.7 1.6 1.6 1.6 0.9 0 1.6-0.7 1.6-1.6 0-0.9-0.7-1.6-1.6-1.6m-21.5 0c-0.9 0-1.6 0.7-1.6 1.6 0 0.9 0.7 1.6 1.6 1.6 0.8 0 1.5-0.7 1.5-1.6 0-0.9-0.7-1.6-1.5-1.6m-21.6 0c-0.9 0-1.6 0.7-1.6 1.6 0 0.9 0.7 1.6 1.6 1.6 0.9 0 1.6-0.7 1.6-1.6 0-0.9-0.7-1.6-1.6-1.6m-21.5 0c-0.9 0-1.6 0.7-1.6 1.6 0 0.9 0.7 1.6 1.6 1.6 0.9 0 1.6-0.7 1.6-1.6 0-0.9-0.7-1.6-1.6-1.6m-21.6 0c-0.8 0-1.5 0.7-1.5 1.6 0 0.9 0.7 1.6 1.5 1.6 0.9 0 1.6-0.7 1.6-1.6 0-0.9-0.7-1.6-1.6-1.6m-21.5 0c-0.9 0-1.6 0.7-1.6 1.6 0 0.9 0.7 1.6 1.6 1.6 0.9 0 1.6-0.7 1.6-1.6 0-0.9-0.7-1.6-1.6-1.6m-21.5 0c-0.9 0-1.6 0.7-1.6 1.6 0 0.9 0.7 1.6 1.6 1.6 0.8 0 1.5-0.7 1.5-1.6 0-0.9-0.7-1.6-1.5-1.6m-21.6 0c-0.9 0-1.6 0.7-1.6 1.6 0 0.9 0.7 1.6 1.6 1.6 0.9 0 1.6-0.7 1.6-1.6 0-0.9-0.7-1.6-1.6-1.6m-21.5 0c-0.9 0-1.6 0.7-1.6 1.6 0 0.9 0.7 1.6 1.6 1.6 0.8 0 1.6-0.7 1.6-1.6 0-0.9-0.8-1.6-1.6-1.6m-21.6 0c-0.8 0-1.6 0.7-1.6 1.6 0 0.9 0.8 1.6 1.6 1.6 0.9 0 1.6-0.7 1.6-1.6 0-0.9-0.7-1.6-1.6-1.6m-21.5 0c-0.9 0-1.6 0.7-1.6 1.6 0 0.9 0.7 1.6 1.6 1.6 0.9 0 1.6-0.7 1.6-1.6 0-0.9-0.7-1.6-1.6-1.6m-21.6 0c-0.8 0-1.5 0.7-1.5 1.6 0 0.9 0.7 1.6 1.5 1.6 0.9 0 1.6-0.7 1.6-1.6 0-0.9-0.7-1.6-1.6-1.6m-21.5 0c-0.9 0-1.6 0.7-1.6 1.6 0 0.9 0.7 1.6 1.6 1.6 0.9 0 1.6-0.7 1.6-1.6 0-0.9-0.7-1.6-1.6-1.6m-21.5 0c-0.9 0-1.6 0.7-1.6 1.6 0 0.9 0.7 1.6 1.6 1.6 0.8 0 1.5-0.7 1.5-1.6 0-0.9-0.7-1.6-1.5-1.6m-21.6 0c-0.9 0-1.6 0.7-1.6 1.6 0 0.9 0.7 1.6 1.6 1.6 0.9 0 1.6-0.7 1.6-1.6 0-0.9-0.7-1.6-1.6-1.6m-21.5 0c-0.9 0-1.6 0.7-1.6 1.6 0 0.9 0.7 1.6 1.6 1.6 0.9 0 1.6-0.7 1.6-1.6 0-0.9-0.7-1.6-1.6-1.6m-21.6 0c-0.8 0-1.5 0.7-1.5 1.6 0 0.9 0.7 1.6 1.5 1.6 0.9 0 1.6-0.7 1.6-1.6 0-0.9-0.7-1.6-1.6-1.6m-21.5 0c-0.9 0-1.6 0.7-1.6 1.6 0 0.9 0.7 1.6 1.6 1.6 0.9 0 1.6-0.7 1.6-1.6 0-0.9-0.7-1.6-1.6-1.6m-21.5 0c-0.9 0-1.6 0.7-1.6 1.6 0 0.9 0.7 1.6 1.6 1.6 0.8 0 1.5-0.7 1.5-1.6 0-0.9-0.7-1.6-1.5-1.6m-21.6 0c-0.9 0-1.6 0.7-1.6 1.6 0 0.9 0.7 1.6 1.6 1.6 0.9 0 1.6-0.7 1.6-1.6 0-0.9-0.7-1.6-1.6-1.6m-21.5 0c-0.9 0-1.6 0.7-1.6 1.6 0 0.9 0.7 1.6 1.6 1.6 0.8 0 1.6-0.7 1.6-1.6 0-0.9-0.8-1.6-1.6-1.6m1119.9-280.2c-0.9 0-1.6 0.7-1.6 1.6 0 0.8 0.7 1.5 1.6 1.5 0.9 0 1.6-0.7 1.6-1.5 0-0.9-0.7-1.6-1.6-1.6m-21.5 0c-0.9 0-1.6 0.7-1.6 1.6 0 0.8 0.7 1.5 1.6 1.5 0.8 0 1.6-0.7 1.6-1.5 0-0.9-0.8-1.6-1.6-1.6m-21.6 0c-0.8 0-1.5 0.7-1.5 1.6 0 0.8 0.7 1.5 1.5 1.5 0.9 0 1.6-0.7 1.6-1.5 0-0.9-0.7-1.6-1.6-1.6m-21.5 0c-0.9 0-1.6 0.7-1.6 1.6 0 0.8 0.7 1.5 1.6 1.5 0.9 0 1.6-0.7 1.6-1.5 0-0.9-0.7-1.6-1.6-1.6m-21.5 0c-0.9 0-1.6 0.7-1.6 1.6 0 0.8 0.7 1.5 1.6 1.5 0.8 0 1.5-0.7 1.5-1.5 0-0.9-0.7-1.6-1.5-1.6m-21.6 0c-0.9 0-1.6 0.7-1.6 1.6 0 0.8 0.7 1.5 1.6 1.5 0.9 0 1.6-0.7 1.6-1.5 0-0.9-0.7-1.6-1.6-1.6m-21.5 0c-0.9 0-1.6 0.7-1.6 1.6 0 0.8 0.7 1.5 1.6 1.5 0.8 0 1.6-0.7 1.6-1.5 0-0.9-0.8-1.6-1.6-1.6m-21.6 0c-0.8 0-1.6 0.7-1.6 1.6 0 0.8 0.8 1.5 1.6 1.5 0.9 0 1.6-0.7 1.6-1.5 0-0.9-0.7-1.6-1.6-1.6m-21.5 0c-0.9 0-1.6 0.7-1.6 1.6 0 0.8 0.7 1.5 1.6 1.5 0.9 0 1.6-0.7 1.6-1.5 0-0.9-0.7-1.6-1.6-1.6m-21.6 0c-0.8 0-1.5 0.7-1.5 1.6 0 0.8 0.7 1.5 1.5 1.5 0.9 0 1.6-0.7 1.6-1.5 0-0.9-0.7-1.6-1.6-1.6m-21.5 0c-0.9 0-1.6 0.7-1.6 1.6 0 0.8 0.7 1.5 1.6 1.5 0.9 0 1.6-0.7 1.6-1.5 0-0.9-0.7-1.6-1.6-1.6m-21.5 0c-0.9 0-1.6 0.7-1.6 1.6 0 0.8 0.7 1.5 1.6 1.5 0.8 0 1.5-0.7 1.5-1.5 0-0.9-0.7-1.6-1.5-1.6m-21.6 0c-0.9 0-1.6 0.7-1.6 1.6 0 0.8 0.7 1.5 1.6 1.5 0.9 0 1.6-0.7 1.6-1.5 0-0.9-0.7-1.6-1.6-1.6m-21.5 0c-0.9 0-1.6 0.7-1.6 1.6 0 0.8 0.7 1.5 1.6 1.5 0.9 0 1.6-0.7 1.6-1.5 0-0.9-0.7-1.6-1.6-1.6m-21.6 0c-0.8 0-1.5 0.7-1.5 1.6 0 0.8 0.7 1.5 1.5 1.5 0.9 0 1.6-0.7 1.6-1.5 0-0.9-0.7-1.6-1.6-1.6m-21.5 0c-0.9 0-1.6 0.7-1.6 1.6 0 0.8 0.7 1.5 1.6 1.5 0.9 0 1.6-0.7 1.6-1.5 0-0.9-0.7-1.6-1.6-1.6m-21.5 0c-0.9 0-1.6 0.7-1.6 1.6 0 0.8 0.7 1.5 1.6 1.5 0.8 0 1.5-0.7 1.5-1.5 0-0.9-0.7-1.6-1.5-1.6m-21.6 0c-0.9 0-1.6 0.7-1.6 1.6 0 0.8 0.7 1.5 1.6 1.5 0.9 0 1.6-0.7 1.6-1.5 0-0.9-0.7-1.6-1.6-1.6m-21.5 0c-0.9 0-1.6 0.7-1.6 1.6 0 0.8 0.7 1.5 1.6 1.5 0.8 0 1.6-0.7 1.6-1.5 0-0.9-0.8-1.6-1.6-1.6m-21.6 0c-0.8 0-1.6 0.7-1.6 1.6 0 0.8 0.8 1.5 1.6 1.5 0.9 0 1.6-0.7 1.6-1.5 0-0.9-0.7-1.6-1.6-1.6m-21.5 0c-0.9 0-1.6 0.7-1.6 1.6 0 0.8 0.7 1.5 1.6 1.5 0.9 0 1.6-0.7 1.6-1.5 0-0.9-0.7-1.6-1.6-1.6m-21.6 0c-0.8 0-1.5 0.7-1.5 1.6 0 0.8 0.7 1.5 1.5 1.5 0.9 0 1.6-0.7 1.6-1.5 0-0.9-0.7-1.6-1.6-1.6m-21.5 0c-0.9 0-1.6 0.7-1.6 1.6 0 0.8 0.7 1.5 1.6 1.5 0.9 0 1.6-0.7 1.6-1.5 0-0.9-0.7-1.6-1.6-1.6m-21.5 0c-0.9 0-1.6 0.7-1.6 1.6 0 0.8 0.7 1.5 1.6 1.5 0.8 0 1.5-0.7 1.5-1.5 0-0.9-0.7-1.6-1.5-1.6m-21.6 0c-0.9 0-1.6 0.7-1.6 1.6 0 0.8 0.7 1.5 1.6 1.5 0.9 0 1.6-0.7 1.6-1.5 0-0.9-0.7-1.6-1.6-1.6m-21.5 0c-0.9 0-1.6 0.7-1.6 1.6 0 0.8 0.7 1.5 1.6 1.5 0.9 0 1.6-0.7 1.6-1.5 0-0.9-0.7-1.6-1.6-1.6m-21.6 0c-0.8 0-1.5 0.7-1.5 1.6 0 0.8 0.7 1.5 1.5 1.5 0.9 0 1.6-0.7 1.6-1.5 0-0.9-0.7-1.6-1.6-1.6m-21.5 0c-0.9 0-1.6 0.7-1.6 1.6 0 0.8 0.7 1.5 1.6 1.5 0.9 0 1.6-0.7 1.6-1.5 0-0.9-0.7-1.6-1.6-1.6m581.6 21.5c-0.9 0-1.6 0.7-1.6 1.6 0 0.9 0.7 1.6 1.6 1.6 0.9 0 1.6-0.7 1.6-1.6 0-0.9-0.7-1.6-1.6-1.6m-21.5 0c-0.9 0-1.6 0.7-1.6 1.6 0 0.9 0.7 1.6 1.6 1.6 0.8 0 1.6-0.7 1.6-1.6 0-0.9-0.8-1.6-1.6-1.6m-21.6 0c-0.8 0-1.5 0.7-1.5 1.6 0 0.9 0.7 1.6 1.5 1.6 0.9 0 1.6-0.7 1.6-1.6 0-0.9-0.7-1.6-1.6-1.6m-21.5 0c-0.9 0-1.6 0.7-1.6 1.6 0 0.9 0.7 1.6 1.6 1.6 0.9 0 1.6-0.7 1.6-1.6 0-0.9-0.7-1.6-1.6-1.6m-21.5 0c-0.9 0-1.6 0.7-1.6 1.6 0 0.9 0.7 1.6 1.6 1.6 0.8 0 1.5-0.7 1.5-1.6 0-0.9-0.7-1.6-1.5-1.6m-21.6 0c-0.9 0-1.6 0.7-1.6 1.6 0 0.9 0.7 1.6 1.6 1.6 0.9 0 1.6-0.7 1.6-1.6 0-0.9-0.7-1.6-1.6-1.6m-21.5 0c-0.9 0-1.6 0.7-1.6 1.6 0 0.9 0.7 1.6 1.6 1.6 0.8 0 1.6-0.7 1.6-1.6 0-0.9-0.8-1.6-1.6-1.6m-21.6 0c-0.8 0-1.6 0.7-1.6 1.6 0 0.9 0.8 1.6 1.6 1.6 0.9 0 1.6-0.7 1.6-1.6 0-0.9-0.7-1.6-1.6-1.6m-21.5 0c-0.9 0-1.6 0.7-1.6 1.6 0 0.9 0.7 1.6 1.6 1.6 0.9 0 1.6-0.7 1.6-1.6 0-0.9-0.7-1.6-1.6-1.6m-21.6 0c-0.8 0-1.5 0.7-1.5 1.6 0 0.9 0.7 1.6 1.5 1.6 0.9 0 1.6-0.7 1.6-1.6 0-0.9-0.7-1.6-1.6-1.6m-21.5 0c-0.9 0-1.6 0.7-1.6 1.6 0 0.9 0.7 1.6 1.6 1.6 0.9 0 1.6-0.7 1.6-1.6 0-0.9-0.7-1.6-1.6-1.6m-21.5 0c-0.9 0-1.6 0.7-1.6 1.6 0 0.9 0.7 1.6 1.6 1.6 0.8 0 1.5-0.7 1.5-1.6 0-0.9-0.7-1.6-1.5-1.6m-21.6 0c-0.9 0-1.6 0.7-1.6 1.6 0 0.9 0.7 1.6 1.6 1.6 0.9 0 1.6-0.7 1.6-1.6 0-0.9-0.7-1.6-1.6-1.6m-21.5 0c-0.9 0-1.6 0.7-1.6 1.6 0 0.9 0.7 1.6 1.6 1.6 0.9 0 1.6-0.7 1.6-1.6 0-0.9-0.7-1.6-1.6-1.6m-21.6 0c-0.8 0-1.5 0.7-1.5 1.6 0 0.9 0.7 1.6 1.5 1.6 0.9 0 1.6-0.7 1.6-1.6 0-0.9-0.7-1.6-1.6-1.6m-21.5 0c-0.9 0-1.6 0.7-1.6 1.6 0 0.9 0.7 1.6 1.6 1.6 0.9 0 1.6-0.7 1.6-1.6 0-0.9-0.7-1.6-1.6-1.6m-21.5 0c-0.9 0-1.6 0.7-1.6 1.6 0 0.9 0.7 1.6 1.6 1.6 0.8 0 1.5-0.7 1.5-1.6 0-0.9-0.7-1.6-1.5-1.6m-21.6 0c-0.9 0-1.6 0.7-1.6 1.6 0 0.9 0.7 1.6 1.6 1.6 0.9 0 1.6-0.7 1.6-1.6 0-0.9-0.7-1.6-1.6-1.6m-21.5 0c-0.9 0-1.6 0.7-1.6 1.6 0 0.9 0.7 1.6 1.6 1.6 0.8 0 1.6-0.7 1.6-1.6 0-0.9-0.8-1.6-1.6-1.6m-21.6 0c-0.8 0-1.6 0.7-1.6 1.6 0 0.9 0.8 1.6 1.6 1.6 0.9 0 1.6-0.7 1.6-1.6 0-0.9-0.7-1.6-1.6-1.6m-21.5 0c-0.9 0-1.6 0.7-1.6 1.6 0 0.9 0.7 1.6 1.6 1.6 0.9 0 1.6-0.7 1.6-1.6 0-0.9-0.7-1.6-1.6-1.6m-21.6 0c-0.8 0-1.5 0.7-1.5 1.6 0 0.9 0.7 1.6 1.5 1.6 0.9 0 1.6-0.7 1.6-1.6 0-0.9-0.7-1.6-1.6-1.6m-21.5 0c-0.9 0-1.6 0.7-1.6 1.6 0 0.9 0.7 1.6 1.6 1.6 0.9 0 1.6-0.7 1.6-1.6 0-0.9-0.7-1.6-1.6-1.6m-21.5 0c-0.9 0-1.6 0.7-1.6 1.6 0 0.9 0.7 1.6 1.6 1.6 0.8 0 1.5-0.7 1.5-1.6 0-0.9-0.7-1.6-1.5-1.6m-21.6 0c-0.9 0-1.6 0.7-1.6 1.6 0 0.9 0.7 1.6 1.6 1.6 0.9 0 1.6-0.7 1.6-1.6 0-0.9-0.7-1.6-1.6-1.6m-21.5 0c-0.9 0-1.6 0.7-1.6 1.6 0 0.9 0.7 1.6 1.6 1.6 0.9 0 1.6-0.7 1.6-1.6 0-0.9-0.7-1.6-1.6-1.6m-21.6 0c-0.8 0-1.5 0.7-1.5 1.6 0 0.9 0.7 1.6 1.5 1.6 0.9 0 1.6-0.7 1.6-1.6 0-0.9-0.7-1.6-1.6-1.6m-21.5 0c-0.9 0-1.6 0.7-1.6 1.6 0 0.9 0.7 1.6 1.6 1.6 0.9 0 1.6-0.7 1.6-1.6 0-0.9-0.7-1.6-1.6-1.6m581.6 21.6c-0.9 0-1.6 0.7-1.6 1.6 0 0.8 0.7 1.6 1.6 1.6 0.9 0 1.6-0.8 1.6-1.6 0-0.9-0.7-1.6-1.6-1.6m-21.5 0c-0.9 0-1.6 0.7-1.6 1.6 0 0.8 0.7 1.6 1.6 1.6 0.8 0 1.6-0.8 1.6-1.6 0-0.9-0.8-1.6-1.6-1.6m-21.6 0c-0.8 0-1.5 0.7-1.5 1.6 0 0.8 0.7 1.6 1.5 1.6 0.9 0 1.6-0.8 1.6-1.6 0-0.9-0.7-1.6-1.6-1.6m-21.5 0c-0.9 0-1.6 0.7-1.6 1.6 0 0.8 0.7 1.6 1.6 1.6 0.9 0 1.6-0.8 1.6-1.6 0-0.9-0.7-1.6-1.6-1.6m-21.5 0c-0.9 0-1.6 0.7-1.6 1.6 0 0.8 0.7 1.6 1.6 1.6 0.8 0 1.5-0.8 1.5-1.6 0-0.9-0.7-1.6-1.5-1.6m-21.6 0c-0.9 0-1.6 0.7-1.6 1.6 0 0.8 0.7 1.6 1.6 1.6 0.9 0 1.6-0.8 1.6-1.6 0-0.9-0.7-1.6-1.6-1.6m-21.5 0c-0.9 0-1.6 0.7-1.6 1.6 0 0.8 0.7 1.6 1.6 1.6 0.8 0 1.6-0.8 1.6-1.6 0-0.9-0.8-1.6-1.6-1.6m-21.6 0c-0.8 0-1.6 0.7-1.6 1.6 0 0.8 0.8 1.6 1.6 1.6 0.9 0 1.6-0.8 1.6-1.6 0-0.9-0.7-1.6-1.6-1.6m-21.5 0c-0.9 0-1.6 0.7-1.6 1.6 0 0.8 0.7 1.6 1.6 1.6 0.9 0 1.6-0.8 1.6-1.6 0-0.9-0.7-1.6-1.6-1.6m-21.6 0c-0.8 0-1.5 0.7-1.5 1.6 0 0.8 0.7 1.6 1.5 1.6 0.9 0 1.6-0.8 1.6-1.6 0-0.9-0.7-1.6-1.6-1.6m-21.5 0c-0.9 0-1.6 0.7-1.6 1.6 0 0.8 0.7 1.6 1.6 1.6 0.9 0 1.6-0.8 1.6-1.6 0-0.9-0.7-1.6-1.6-1.6m-21.5 0c-0.9 0-1.6 0.7-1.6 1.6 0 0.8 0.7 1.6 1.6 1.6 0.8 0 1.5-0.8 1.5-1.6 0-0.9-0.7-1.6-1.5-1.6m-21.6 0c-0.9 0-1.6 0.7-1.6 1.6 0 0.8 0.7 1.6 1.6 1.6 0.9 0 1.6-0.8 1.6-1.6 0-0.9-0.7-1.6-1.6-1.6m-21.5 0c-0.9 0-1.6 0.7-1.6 1.6 0 0.8 0.7 1.6 1.6 1.6 0.9 0 1.6-0.8 1.6-1.6 0-0.9-0.7-1.6-1.6-1.6m-21.6 0c-0.8 0-1.5 0.7-1.5 1.6 0 0.8 0.7 1.6 1.5 1.6 0.9 0 1.6-0.8 1.6-1.6 0-0.9-0.7-1.6-1.6-1.6m-21.5 0c-0.9 0-1.6 0.7-1.6 1.6 0 0.8 0.7 1.6 1.6 1.6 0.9 0 1.6-0.8 1.6-1.6 0-0.9-0.7-1.6-1.6-1.6m-21.5 0c-0.9 0-1.6 0.7-1.6 1.6 0 0.8 0.7 1.6 1.6 1.6 0.8 0 1.5-0.8 1.5-1.6 0-0.9-0.7-1.6-1.5-1.6m-21.6 0c-0.9 0-1.6 0.7-1.6 1.6 0 0.8 0.7 1.6 1.6 1.6 0.9 0 1.6-0.8 1.6-1.6 0-0.9-0.7-1.6-1.6-1.6m-21.5 0c-0.9 0-1.6 0.7-1.6 1.6 0 0.8 0.7 1.6 1.6 1.6 0.8 0 1.6-0.8 1.6-1.6 0-0.9-0.8-1.6-1.6-1.6m-21.6 0c-0.8 0-1.6 0.7-1.6 1.6 0 0.8 0.8 1.6 1.6 1.6 0.9 0 1.6-0.8 1.6-1.6 0-0.9-0.7-1.6-1.6-1.6m-21.5 0c-0.9 0-1.6 0.7-1.6 1.6 0 0.8 0.7 1.6 1.6 1.6 0.9 0 1.6-0.8 1.6-1.6 0-0.9-0.7-1.6-1.6-1.6m-21.6 0c-0.8 0-1.5 0.7-1.5 1.6 0 0.8 0.7 1.6 1.5 1.6 0.9 0 1.6-0.8 1.6-1.6 0-0.9-0.7-1.6-1.6-1.6m-21.5 0c-0.9 0-1.6 0.7-1.6 1.6 0 0.8 0.7 1.6 1.6 1.6 0.9 0 1.6-0.8 1.6-1.6 0-0.9-0.7-1.6-1.6-1.6m-21.5 0c-0.9 0-1.6 0.7-1.6 1.6 0 0.8 0.7 1.6 1.6 1.6 0.8 0 1.5-0.8 1.5-1.6 0-0.9-0.7-1.6-1.5-1.6m-21.6 0c-0.9 0-1.6 0.7-1.6 1.6 0 0.8 0.7 1.6 1.6 1.6 0.9 0 1.6-0.8 1.6-1.6 0-0.9-0.7-1.6-1.6-1.6m-21.5 0c-0.9 0-1.6 0.7-1.6 1.6 0 0.8 0.7 1.6 1.6 1.6 0.9 0 1.6-0.8 1.6-1.6 0-0.9-0.7-1.6-1.6-1.6m-21.6 0c-0.8 0-1.5 0.7-1.5 1.6 0 0.8 0.7 1.6 1.5 1.6 0.9 0 1.6-0.8 1.6-1.6 0-0.9-0.7-1.6-1.6-1.6m-21.5 0c-0.9 0-1.6 0.7-1.6 1.6 0 0.8 0.7 1.6 1.6 1.6 0.9 0 1.6-0.8 1.6-1.6 0-0.9-0.7-1.6-1.6-1.6m581.6 21.5c-0.9 0-1.6 0.8-1.6 1.6 0 0.9 0.7 1.6 1.6 1.6 0.9 0 1.6-0.7 1.6-1.6 0-0.8-0.7-1.6-1.6-1.6m-21.5 0c-0.9 0-1.6 0.8-1.6 1.6 0 0.9 0.7 1.6 1.6 1.6 0.8 0 1.6-0.7 1.6-1.6 0-0.8-0.8-1.6-1.6-1.6m-21.6 0c-0.8 0-1.5 0.8-1.5 1.6 0 0.9 0.7 1.6 1.5 1.6 0.9 0 1.6-0.7 1.6-1.6 0-0.8-0.7-1.6-1.6-1.6m-21.5 0c-0.9 0-1.6 0.8-1.6 1.6 0 0.9 0.7 1.6 1.6 1.6 0.9 0 1.6-0.7 1.6-1.6 0-0.8-0.7-1.6-1.6-1.6m-21.5 0c-0.9 0-1.6 0.8-1.6 1.6 0 0.9 0.7 1.6 1.6 1.6 0.8 0 1.5-0.7 1.5-1.6 0-0.8-0.7-1.6-1.5-1.6m-21.6 0c-0.9 0-1.6 0.8-1.6 1.6 0 0.9 0.7 1.6 1.6 1.6 0.9 0 1.6-0.7 1.6-1.6 0-0.8-0.7-1.6-1.6-1.6m-21.5 0c-0.9 0-1.6 0.8-1.6 1.6 0 0.9 0.7 1.6 1.6 1.6 0.8 0 1.6-0.7 1.6-1.6 0-0.8-0.8-1.6-1.6-1.6m-21.6 0c-0.8 0-1.6 0.8-1.6 1.6 0 0.9 0.8 1.6 1.6 1.6 0.9 0 1.6-0.7 1.6-1.6 0-0.8-0.7-1.6-1.6-1.6m-21.5 0c-0.9 0-1.6 0.8-1.6 1.6 0 0.9 0.7 1.6 1.6 1.6 0.9 0 1.6-0.7 1.6-1.6 0-0.8-0.7-1.6-1.6-1.6m-21.6 0c-0.8 0-1.5 0.8-1.5 1.6 0 0.9 0.7 1.6 1.5 1.6 0.9 0 1.6-0.7 1.6-1.6 0-0.8-0.7-1.6-1.6-1.6m-21.5 0c-0.9 0-1.6 0.8-1.6 1.6 0 0.9 0.7 1.6 1.6 1.6 0.9 0 1.6-0.7 1.6-1.6 0-0.8-0.7-1.6-1.6-1.6m-21.5 0c-0.9 0-1.6 0.8-1.6 1.6 0 0.9 0.7 1.6 1.6 1.6 0.8 0 1.5-0.7 1.5-1.6 0-0.8-0.7-1.6-1.5-1.6m-21.6 0c-0.9 0-1.6 0.8-1.6 1.6 0 0.9 0.7 1.6 1.6 1.6 0.9 0 1.6-0.7 1.6-1.6 0-0.8-0.7-1.6-1.6-1.6m-21.5 0c-0.9 0-1.6 0.8-1.6 1.6 0 0.9 0.7 1.6 1.6 1.6 0.9 0 1.6-0.7 1.6-1.6 0-0.8-0.7-1.6-1.6-1.6m-21.6 0c-0.8 0-1.5 0.8-1.5 1.6 0 0.9 0.7 1.6 1.5 1.6 0.9 0 1.6-0.7 1.6-1.6 0-0.8-0.7-1.6-1.6-1.6m-21.5 0c-0.9 0-1.6 0.8-1.6 1.6 0 0.9 0.7 1.6 1.6 1.6 0.9 0 1.6-0.7 1.6-1.6 0-0.8-0.7-1.6-1.6-1.6m-21.5 0c-0.9 0-1.6 0.8-1.6 1.6 0 0.9 0.7 1.6 1.6 1.6 0.8 0 1.5-0.7 1.5-1.6 0-0.8-0.7-1.6-1.5-1.6m-21.6 0c-0.9 0-1.6 0.8-1.6 1.6 0 0.9 0.7 1.6 1.6 1.6 0.9 0 1.6-0.7 1.6-1.6 0-0.8-0.7-1.6-1.6-1.6m-21.5 0c-0.9 0-1.6 0.8-1.6 1.6 0 0.9 0.7 1.6 1.6 1.6 0.8 0 1.6-0.7 1.6-1.6 0-0.8-0.8-1.6-1.6-1.6m-21.6 0c-0.8 0-1.6 0.8-1.6 1.6 0 0.9 0.8 1.6 1.6 1.6 0.9 0 1.6-0.7 1.6-1.6 0-0.8-0.7-1.6-1.6-1.6m-21.5 0c-0.9 0-1.6 0.8-1.6 1.6 0 0.9 0.7 1.6 1.6 1.6 0.9 0 1.6-0.7 1.6-1.6 0-0.8-0.7-1.6-1.6-1.6m-21.6 0c-0.8 0-1.5 0.8-1.5 1.6 0 0.9 0.7 1.6 1.5 1.6 0.9 0 1.6-0.7 1.6-1.6 0-0.8-0.7-1.6-1.6-1.6m-21.5 0c-0.9 0-1.6 0.8-1.6 1.6 0 0.9 0.7 1.6 1.6 1.6 0.9 0 1.6-0.7 1.6-1.6 0-0.8-0.7-1.6-1.6-1.6m-21.5 0c-0.9 0-1.6 0.8-1.6 1.6 0 0.9 0.7 1.6 1.6 1.6 0.8 0 1.5-0.7 1.5-1.6 0-0.8-0.7-1.6-1.5-1.6m-21.6 0c-0.9 0-1.6 0.8-1.6 1.6 0 0.9 0.7 1.6 1.6 1.6 0.9 0 1.6-0.7 1.6-1.6 0-0.8-0.7-1.6-1.6-1.6m-21.5 0c-0.9 0-1.6 0.8-1.6 1.6 0 0.9 0.7 1.6 1.6 1.6 0.9 0 1.6-0.7 1.6-1.6 0-0.8-0.7-1.6-1.6-1.6m-21.6 0c-0.8 0-1.5 0.8-1.5 1.6 0 0.9 0.7 1.6 1.5 1.6 0.9 0 1.6-0.7 1.6-1.6 0-0.8-0.7-1.6-1.6-1.6m-21.5 0c-0.9 0-1.6 0.8-1.6 1.6 0 0.9 0.7 1.6 1.6 1.6 0.9 0 1.6-0.7 1.6-1.6 0-0.8-0.7-1.6-1.6-1.6m581.6 21.6c-0.9 0-1.6 0.7-1.6 1.6 0 0.9 0.7 1.6 1.6 1.6 0.9 0 1.6-0.7 1.6-1.6 0-0.9-0.7-1.6-1.6-1.6m-21.5 0c-0.9 0-1.6 0.7-1.6 1.6 0 0.9 0.7 1.6 1.6 1.6 0.8 0 1.6-0.7 1.6-1.6 0-0.9-0.8-1.6-1.6-1.6m-21.6 0c-0.8 0-1.5 0.7-1.5 1.6 0 0.9 0.7 1.6 1.5 1.6 0.9 0 1.6-0.7 1.6-1.6 0-0.9-0.7-1.6-1.6-1.6m-21.5 0c-0.9 0-1.6 0.7-1.6 1.6 0 0.9 0.7 1.6 1.6 1.6 0.9 0 1.6-0.7 1.6-1.6 0-0.9-0.7-1.6-1.6-1.6m-21.5 0c-0.9 0-1.6 0.7-1.6 1.6 0 0.9 0.7 1.6 1.6 1.6 0.8 0 1.5-0.7 1.5-1.6 0-0.9-0.7-1.6-1.5-1.6m-21.6 0c-0.9 0-1.6 0.7-1.6 1.6 0 0.9 0.7 1.6 1.6 1.6 0.9 0 1.6-0.7 1.6-1.6 0-0.9-0.7-1.6-1.6-1.6m-21.5 0c-0.9 0-1.6 0.7-1.6 1.6 0 0.9 0.7 1.6 1.6 1.6 0.8 0 1.6-0.7 1.6-1.6 0-0.9-0.8-1.6-1.6-1.6m-21.6 0c-0.8 0-1.6 0.7-1.6 1.6 0 0.9 0.8 1.6 1.6 1.6 0.9 0 1.6-0.7 1.6-1.6 0-0.9-0.7-1.6-1.6-1.6m-21.5 0c-0.9 0-1.6 0.7-1.6 1.6 0 0.9 0.7 1.6 1.6 1.6 0.9 0 1.6-0.7 1.6-1.6 0-0.9-0.7-1.6-1.6-1.6m-21.6 0c-0.8 0-1.5 0.7-1.5 1.6 0 0.9 0.7 1.6 1.5 1.6 0.9 0 1.6-0.7 1.6-1.6 0-0.9-0.7-1.6-1.6-1.6m-21.5 0c-0.9 0-1.6 0.7-1.6 1.6 0 0.9 0.7 1.6 1.6 1.6 0.9 0 1.6-0.7 1.6-1.6 0-0.9-0.7-1.6-1.6-1.6m-21.5 0c-0.9 0-1.6 0.7-1.6 1.6 0 0.9 0.7 1.6 1.6 1.6 0.8 0 1.5-0.7 1.5-1.6 0-0.9-0.7-1.6-1.5-1.6m-21.6 0c-0.9 0-1.6 0.7-1.6 1.6 0 0.9 0.7 1.6 1.6 1.6 0.9 0 1.6-0.7 1.6-1.6 0-0.9-0.7-1.6-1.6-1.6m-21.5 0c-0.9 0-1.6 0.7-1.6 1.6 0 0.9 0.7 1.6 1.6 1.6 0.9 0 1.6-0.7 1.6-1.6 0-0.9-0.7-1.6-1.6-1.6m-21.6 0c-0.8 0-1.5 0.7-1.5 1.6 0 0.9 0.7 1.6 1.5 1.6 0.9 0 1.6-0.7 1.6-1.6 0-0.9-0.7-1.6-1.6-1.6m-21.5 0c-0.9 0-1.6 0.7-1.6 1.6 0 0.9 0.7 1.6 1.6 1.6 0.9 0 1.6-0.7 1.6-1.6 0-0.9-0.7-1.6-1.6-1.6m-21.5 0c-0.9 0-1.6 0.7-1.6 1.6 0 0.9 0.7 1.6 1.6 1.6 0.8 0 1.5-0.7 1.5-1.6 0-0.9-0.7-1.6-1.5-1.6m-21.6 0c-0.9 0-1.6 0.7-1.6 1.6 0 0.9 0.7 1.6 1.6 1.6 0.9 0 1.6-0.7 1.6-1.6 0-0.9-0.7-1.6-1.6-1.6m-21.5 0c-0.9 0-1.6 0.7-1.6 1.6 0 0.9 0.7 1.6 1.6 1.6 0.8 0 1.6-0.7 1.6-1.6 0-0.9-0.8-1.6-1.6-1.6m-21.6 0c-0.8 0-1.6 0.7-1.6 1.6 0 0.9 0.8 1.6 1.6 1.6 0.9 0 1.6-0.7 1.6-1.6 0-0.9-0.7-1.6-1.6-1.6m-21.5 0c-0.9 0-1.6 0.7-1.6 1.6 0 0.9 0.7 1.6 1.6 1.6 0.9 0 1.6-0.7 1.6-1.6 0-0.9-0.7-1.6-1.6-1.6m-21.6 0c-0.8 0-1.5 0.7-1.5 1.6 0 0.9 0.7 1.6 1.5 1.6 0.9 0 1.6-0.7 1.6-1.6 0-0.9-0.7-1.6-1.6-1.6m-21.5 0c-0.9 0-1.6 0.7-1.6 1.6 0 0.9 0.7 1.6 1.6 1.6 0.9 0 1.6-0.7 1.6-1.6 0-0.9-0.7-1.6-1.6-1.6m-21.5 0c-0.9 0-1.6 0.7-1.6 1.6 0 0.9 0.7 1.6 1.6 1.6 0.8 0 1.5-0.7 1.5-1.6 0-0.9-0.7-1.6-1.5-1.6m-21.6 0c-0.9 0-1.6 0.7-1.6 1.6 0 0.9 0.7 1.6 1.6 1.6 0.9 0 1.6-0.7 1.6-1.6 0-0.9-0.7-1.6-1.6-1.6m-21.5 0c-0.9 0-1.6 0.7-1.6 1.6 0 0.9 0.7 1.6 1.6 1.6 0.9 0 1.6-0.7 1.6-1.6 0-0.9-0.7-1.6-1.6-1.6m-21.6 0c-0.8 0-1.5 0.7-1.5 1.6 0 0.9 0.7 1.6 1.5 1.6 0.9 0 1.6-0.7 1.6-1.6 0-0.9-0.7-1.6-1.6-1.6m-21.5 0c-0.9 0-1.6 0.7-1.6 1.6 0 0.9 0.7 1.6 1.6 1.6 0.9 0 1.6-0.7 1.6-1.6 0-0.9-0.7-1.6-1.6-1.6m581.6 21.6c-0.9 0-1.6 0.7-1.6 1.5 0 0.9 0.7 1.6 1.6 1.6 0.9 0 1.6-0.7 1.6-1.6 0-0.8-0.7-1.5-1.6-1.5m-21.5 0c-0.9 0-1.6 0.7-1.6 1.5 0 0.9 0.7 1.6 1.6 1.6 0.8 0 1.6-0.7 1.6-1.6 0-0.8-0.8-1.5-1.6-1.5m-21.6 0c-0.8 0-1.5 0.7-1.5 1.5 0 0.9 0.7 1.6 1.5 1.6 0.9 0 1.6-0.7 1.6-1.6 0-0.8-0.7-1.5-1.6-1.5m-21.5 0c-0.9 0-1.6 0.7-1.6 1.5 0 0.9 0.7 1.6 1.6 1.6 0.9 0 1.6-0.7 1.6-1.6 0-0.8-0.7-1.5-1.6-1.5m-21.5 0c-0.9 0-1.6 0.7-1.6 1.5 0 0.9 0.7 1.6 1.6 1.6 0.8 0 1.5-0.7 1.5-1.6 0-0.8-0.7-1.5-1.5-1.5m-21.6 0c-0.9 0-1.6 0.7-1.6 1.5 0 0.9 0.7 1.6 1.6 1.6 0.9 0 1.6-0.7 1.6-1.6 0-0.8-0.7-1.5-1.6-1.5m-21.5 0c-0.9 0-1.6 0.7-1.6 1.5 0 0.9 0.7 1.6 1.6 1.6 0.8 0 1.6-0.7 1.6-1.6 0-0.8-0.8-1.5-1.6-1.5m-21.6 0c-0.8 0-1.6 0.7-1.6 1.5 0 0.9 0.8 1.6 1.6 1.6 0.9 0 1.6-0.7 1.6-1.6 0-0.8-0.7-1.5-1.6-1.5m-21.5 0c-0.9 0-1.6 0.7-1.6 1.5 0 0.9 0.7 1.6 1.6 1.6 0.9 0 1.6-0.7 1.6-1.6 0-0.8-0.7-1.5-1.6-1.5m-21.6 0c-0.8 0-1.5 0.7-1.5 1.5 0 0.9 0.7 1.6 1.5 1.6 0.9 0 1.6-0.7 1.6-1.6 0-0.8-0.7-1.5-1.6-1.5m-21.5 0c-0.9 0-1.6 0.7-1.6 1.5 0 0.9 0.7 1.6 1.6 1.6 0.9 0 1.6-0.7 1.6-1.6 0-0.8-0.7-1.5-1.6-1.5m-21.5 0c-0.9 0-1.6 0.7-1.6 1.5 0 0.9 0.7 1.6 1.6 1.6 0.8 0 1.5-0.7 1.5-1.6 0-0.8-0.7-1.5-1.5-1.5m-21.6 0c-0.9 0-1.6 0.7-1.6 1.5 0 0.9 0.7 1.6 1.6 1.6 0.9 0 1.6-0.7 1.6-1.6 0-0.8-0.7-1.5-1.6-1.5m-21.5 0c-0.9 0-1.6 0.7-1.6 1.5 0 0.9 0.7 1.6 1.6 1.6 0.9 0 1.6-0.7 1.6-1.6 0-0.8-0.7-1.5-1.6-1.5m-21.6 0c-0.8 0-1.5 0.7-1.5 1.5 0 0.9 0.7 1.6 1.5 1.6 0.9 0 1.6-0.7 1.6-1.6 0-0.8-0.7-1.5-1.6-1.5m-21.5 0c-0.9 0-1.6 0.7-1.6 1.5 0 0.9 0.7 1.6 1.6 1.6 0.9 0 1.6-0.7 1.6-1.6 0-0.8-0.7-1.5-1.6-1.5m-21.5 0c-0.9 0-1.6 0.7-1.6 1.5 0 0.9 0.7 1.6 1.6 1.6 0.8 0 1.5-0.7 1.5-1.6 0-0.8-0.7-1.5-1.5-1.5m-21.6 0c-0.9 0-1.6 0.7-1.6 1.5 0 0.9 0.7 1.6 1.6 1.6 0.9 0 1.6-0.7 1.6-1.6 0-0.8-0.7-1.5-1.6-1.5m-21.5 0c-0.9 0-1.6 0.7-1.6 1.5 0 0.9 0.7 1.6 1.6 1.6 0.8 0 1.6-0.7 1.6-1.6 0-0.8-0.8-1.5-1.6-1.5m-21.6 0c-0.8 0-1.6 0.7-1.6 1.5 0 0.9 0.8 1.6 1.6 1.6 0.9 0 1.6-0.7 1.6-1.6 0-0.8-0.7-1.5-1.6-1.5m-21.5 0c-0.9 0-1.6 0.7-1.6 1.5 0 0.9 0.7 1.6 1.6 1.6 0.9 0 1.6-0.7 1.6-1.6 0-0.8-0.7-1.5-1.6-1.5m-21.6 0c-0.8 0-1.5 0.7-1.5 1.5 0 0.9 0.7 1.6 1.5 1.6 0.9 0 1.6-0.7 1.6-1.6 0-0.8-0.7-1.5-1.6-1.5m-21.5 0c-0.9 0-1.6 0.7-1.6 1.5 0 0.9 0.7 1.6 1.6 1.6 0.9 0 1.6-0.7 1.6-1.6 0-0.8-0.7-1.5-1.6-1.5m-21.5 0c-0.9 0-1.6 0.7-1.6 1.5 0 0.9 0.7 1.6 1.6 1.6 0.8 0 1.5-0.7 1.5-1.6 0-0.8-0.7-1.5-1.5-1.5m-21.6 0c-0.9 0-1.6 0.7-1.6 1.5 0 0.9 0.7 1.6 1.6 1.6 0.9 0 1.6-0.7 1.6-1.6 0-0.8-0.7-1.5-1.6-1.5m-21.5 0c-0.9 0-1.6 0.7-1.6 1.5 0 0.9 0.7 1.6 1.6 1.6 0.9 0 1.6-0.7 1.6-1.6 0-0.8-0.7-1.5-1.6-1.5m-21.6 0c-0.8 0-1.5 0.7-1.5 1.5 0 0.9 0.7 1.6 1.5 1.6 0.9 0 1.6-0.7 1.6-1.6 0-0.8-0.7-1.5-1.6-1.5m-21.5 0c-0.9 0-1.6 0.7-1.6 1.5 0 0.9 0.7 1.6 1.6 1.6 0.9 0 1.6-0.7 1.6-1.6 0-0.8-0.7-1.5-1.6-1.5m581.6 21.5c-0.9 0-1.6 0.7-1.6 1.6 0 0.9 0.7 1.6 1.6 1.6 0.9 0 1.6-0.7 1.6-1.6 0-0.9-0.7-1.6-1.6-1.6m-21.5 0c-0.9 0-1.6 0.7-1.6 1.6 0 0.9 0.7 1.6 1.6 1.6 0.8 0 1.6-0.7 1.6-1.6 0-0.9-0.8-1.6-1.6-1.6m-21.6 0c-0.8 0-1.5 0.7-1.5 1.6 0 0.9 0.7 1.6 1.5 1.6 0.9 0 1.6-0.7 1.6-1.6 0-0.9-0.7-1.6-1.6-1.6m-21.5 0c-0.9 0-1.6 0.7-1.6 1.6 0 0.9 0.7 1.6 1.6 1.6 0.9 0 1.6-0.7 1.6-1.6 0-0.9-0.7-1.6-1.6-1.6m-21.5 0c-0.9 0-1.6 0.7-1.6 1.6 0 0.9 0.7 1.6 1.6 1.6 0.8 0 1.5-0.7 1.5-1.6 0-0.9-0.7-1.6-1.5-1.6m-21.6 0c-0.9 0-1.6 0.7-1.6 1.6 0 0.9 0.7 1.6 1.6 1.6 0.9 0 1.6-0.7 1.6-1.6 0-0.9-0.7-1.6-1.6-1.6m-21.5 0c-0.9 0-1.6 0.7-1.6 1.6 0 0.9 0.7 1.6 1.6 1.6 0.8 0 1.6-0.7 1.6-1.6 0-0.9-0.8-1.6-1.6-1.6m-21.6 0c-0.8 0-1.6 0.7-1.6 1.6 0 0.9 0.8 1.6 1.6 1.6 0.9 0 1.6-0.7 1.6-1.6 0-0.9-0.7-1.6-1.6-1.6m-21.5 0c-0.9 0-1.6 0.7-1.6 1.6 0 0.9 0.7 1.6 1.6 1.6 0.9 0 1.6-0.7 1.6-1.6 0-0.9-0.7-1.6-1.6-1.6m-21.6 0c-0.8 0-1.5 0.7-1.5 1.6 0 0.9 0.7 1.6 1.5 1.6 0.9 0 1.6-0.7 1.6-1.6 0-0.9-0.7-1.6-1.6-1.6m-21.5 0c-0.9 0-1.6 0.7-1.6 1.6 0 0.9 0.7 1.6 1.6 1.6 0.9 0 1.6-0.7 1.6-1.6 0-0.9-0.7-1.6-1.6-1.6m-21.5 0c-0.9 0-1.6 0.7-1.6 1.6 0 0.9 0.7 1.6 1.6 1.6 0.8 0 1.5-0.7 1.5-1.6 0-0.9-0.7-1.6-1.5-1.6m-21.6 0c-0.9 0-1.6 0.7-1.6 1.6 0 0.9 0.7 1.6 1.6 1.6 0.9 0 1.6-0.7 1.6-1.6 0-0.9-0.7-1.6-1.6-1.6m-21.5 0c-0.9 0-1.6 0.7-1.6 1.6 0 0.9 0.7 1.6 1.6 1.6 0.9 0 1.6-0.7 1.6-1.6 0-0.9-0.7-1.6-1.6-1.6m-21.6 0c-0.8 0-1.5 0.7-1.5 1.6 0 0.9 0.7 1.6 1.5 1.6 0.9 0 1.6-0.7 1.6-1.6 0-0.9-0.7-1.6-1.6-1.6m-21.5 0c-0.9 0-1.6 0.7-1.6 1.6 0 0.9 0.7 1.6 1.6 1.6 0.9 0 1.6-0.7 1.6-1.6 0-0.9-0.7-1.6-1.6-1.6m-21.5 0c-0.9 0-1.6 0.7-1.6 1.6 0 0.9 0.7 1.6 1.6 1.6 0.8 0 1.5-0.7 1.5-1.6 0-0.9-0.7-1.6-1.5-1.6m-21.6 0c-0.9 0-1.6 0.7-1.6 1.6 0 0.9 0.7 1.6 1.6 1.6 0.9 0 1.6-0.7 1.6-1.6 0-0.9-0.7-1.6-1.6-1.6m-21.5 0c-0.9 0-1.6 0.7-1.6 1.6 0 0.9 0.7 1.6 1.6 1.6 0.8 0 1.6-0.7 1.6-1.6 0-0.9-0.8-1.6-1.6-1.6m-21.6 0c-0.8 0-1.6 0.7-1.6 1.6 0 0.9 0.8 1.6 1.6 1.6 0.9 0 1.6-0.7 1.6-1.6 0-0.9-0.7-1.6-1.6-1.6m-21.5 0c-0.9 0-1.6 0.7-1.6 1.6 0 0.9 0.7 1.6 1.6 1.6 0.9 0 1.6-0.7 1.6-1.6 0-0.9-0.7-1.6-1.6-1.6m-21.6 0c-0.8 0-1.5 0.7-1.5 1.6 0 0.9 0.7 1.6 1.5 1.6 0.9 0 1.6-0.7 1.6-1.6 0-0.9-0.7-1.6-1.6-1.6m-21.5 0c-0.9 0-1.6 0.7-1.6 1.6 0 0.9 0.7 1.6 1.6 1.6 0.9 0 1.6-0.7 1.6-1.6 0-0.9-0.7-1.6-1.6-1.6m-21.5 0c-0.9 0-1.6 0.7-1.6 1.6 0 0.9 0.7 1.6 1.6 1.6 0.8 0 1.5-0.7 1.5-1.6 0-0.9-0.7-1.6-1.5-1.6m-21.6 0c-0.9 0-1.6 0.7-1.6 1.6 0 0.9 0.7 1.6 1.6 1.6 0.9 0 1.6-0.7 1.6-1.6 0-0.9-0.7-1.6-1.6-1.6m-21.5 0c-0.9 0-1.6 0.7-1.6 1.6 0 0.9 0.7 1.6 1.6 1.6 0.9 0 1.6-0.7 1.6-1.6 0-0.9-0.7-1.6-1.6-1.6m-21.6 0c-0.8 0-1.5 0.7-1.5 1.6 0 0.9 0.7 1.6 1.5 1.6 0.9 0 1.6-0.7 1.6-1.6 0-0.9-0.7-1.6-1.6-1.6m-21.5 0c-0.9 0-1.6 0.7-1.6 1.6 0 0.9 0.7 1.6 1.6 1.6 0.9 0 1.6-0.7 1.6-1.6 0-0.9-0.7-1.6-1.6-1.6m581.6 21.6c-0.9 0-1.6 0.7-1.6 1.6 0 0.8 0.7 1.5 1.6 1.5 0.9 0 1.6-0.7 1.6-1.5 0-0.9-0.7-1.6-1.6-1.6m-21.5 0c-0.9 0-1.6 0.7-1.6 1.6 0 0.8 0.7 1.5 1.6 1.5 0.8 0 1.6-0.7 1.6-1.5 0-0.9-0.8-1.6-1.6-1.6m-21.6 0c-0.8 0-1.5 0.7-1.5 1.6 0 0.8 0.7 1.5 1.5 1.5 0.9 0 1.6-0.7 1.6-1.5 0-0.9-0.7-1.6-1.6-1.6m-21.5 0c-0.9 0-1.6 0.7-1.6 1.6 0 0.8 0.7 1.5 1.6 1.5 0.9 0 1.6-0.7 1.6-1.5 0-0.9-0.7-1.6-1.6-1.6m-21.5 0c-0.9 0-1.6 0.7-1.6 1.6 0 0.8 0.7 1.5 1.6 1.5 0.8 0 1.5-0.7 1.5-1.5 0-0.9-0.7-1.6-1.5-1.6m-21.6 0c-0.9 0-1.6 0.7-1.6 1.6 0 0.8 0.7 1.5 1.6 1.5 0.9 0 1.6-0.7 1.6-1.5 0-0.9-0.7-1.6-1.6-1.6m-21.5 0c-0.9 0-1.6 0.7-1.6 1.6 0 0.8 0.7 1.5 1.6 1.5 0.8 0 1.6-0.7 1.6-1.5 0-0.9-0.8-1.6-1.6-1.6m-21.6 0c-0.8 0-1.6 0.7-1.6 1.6 0 0.8 0.8 1.5 1.6 1.5 0.9 0 1.6-0.7 1.6-1.5 0-0.9-0.7-1.6-1.6-1.6m-21.5 0c-0.9 0-1.6 0.7-1.6 1.6 0 0.8 0.7 1.5 1.6 1.5 0.9 0 1.6-0.7 1.6-1.5 0-0.9-0.7-1.6-1.6-1.6m-21.6 0c-0.8 0-1.5 0.7-1.5 1.6 0 0.8 0.7 1.5 1.5 1.5 0.9 0 1.6-0.7 1.6-1.5 0-0.9-0.7-1.6-1.6-1.6m-21.5 0c-0.9 0-1.6 0.7-1.6 1.6 0 0.8 0.7 1.5 1.6 1.5 0.9 0 1.6-0.7 1.6-1.5 0-0.9-0.7-1.6-1.6-1.6m-21.5 0c-0.9 0-1.6 0.7-1.6 1.6 0 0.8 0.7 1.5 1.6 1.5 0.8 0 1.5-0.7 1.5-1.5 0-0.9-0.7-1.6-1.5-1.6m-21.6 0c-0.9 0-1.6 0.7-1.6 1.6 0 0.8 0.7 1.5 1.6 1.5 0.9 0 1.6-0.7 1.6-1.5 0-0.9-0.7-1.6-1.6-1.6m-21.5 0c-0.9 0-1.6 0.7-1.6 1.6 0 0.8 0.7 1.5 1.6 1.5 0.9 0 1.6-0.7 1.6-1.5 0-0.9-0.7-1.6-1.6-1.6m-21.6 0c-0.8 0-1.5 0.7-1.5 1.6 0 0.8 0.7 1.5 1.5 1.5 0.9 0 1.6-0.7 1.6-1.5 0-0.9-0.7-1.6-1.6-1.6m-21.5 0c-0.9 0-1.6 0.7-1.6 1.6 0 0.8 0.7 1.5 1.6 1.5 0.9 0 1.6-0.7 1.6-1.5 0-0.9-0.7-1.6-1.6-1.6m-21.5 0c-0.9 0-1.6 0.7-1.6 1.6 0 0.8 0.7 1.5 1.6 1.5 0.8 0 1.5-0.7 1.5-1.5 0-0.9-0.7-1.6-1.5-1.6m-21.6 0c-0.9 0-1.6 0.7-1.6 1.6 0 0.8 0.7 1.5 1.6 1.5 0.9 0 1.6-0.7 1.6-1.5 0-0.9-0.7-1.6-1.6-1.6m-21.5 0c-0.9 0-1.6 0.7-1.6 1.6 0 0.8 0.7 1.5 1.6 1.5 0.8 0 1.6-0.7 1.6-1.5 0-0.9-0.8-1.6-1.6-1.6m-21.6 0c-0.8 0-1.6 0.7-1.6 1.6 0 0.8 0.8 1.5 1.6 1.5 0.9 0 1.6-0.7 1.6-1.5 0-0.9-0.7-1.6-1.6-1.6m-21.5 0c-0.9 0-1.6 0.7-1.6 1.6 0 0.8 0.7 1.5 1.6 1.5 0.9 0 1.6-0.7 1.6-1.5 0-0.9-0.7-1.6-1.6-1.6m-21.6 0c-0.8 0-1.5 0.7-1.5 1.6 0 0.8 0.7 1.5 1.5 1.5 0.9 0 1.6-0.7 1.6-1.5 0-0.9-0.7-1.6-1.6-1.6m-21.5 0c-0.9 0-1.6 0.7-1.6 1.6 0 0.8 0.7 1.5 1.6 1.5 0.9 0 1.6-0.7 1.6-1.5 0-0.9-0.7-1.6-1.6-1.6m-21.5 0c-0.9 0-1.6 0.7-1.6 1.6 0 0.8 0.7 1.5 1.6 1.5 0.8 0 1.5-0.7 1.5-1.5 0-0.9-0.7-1.6-1.5-1.6m-21.6 0c-0.9 0-1.6 0.7-1.6 1.6 0 0.8 0.7 1.5 1.6 1.5 0.9 0 1.6-0.7 1.6-1.5 0-0.9-0.7-1.6-1.6-1.6m-21.5 0c-0.9 0-1.6 0.7-1.6 1.6 0 0.8 0.7 1.5 1.6 1.5 0.9 0 1.6-0.7 1.6-1.5 0-0.9-0.7-1.6-1.6-1.6m-21.6 0c-0.8 0-1.5 0.7-1.5 1.6 0 0.8 0.7 1.5 1.5 1.5 0.9 0 1.6-0.7 1.6-1.5 0-0.9-0.7-1.6-1.6-1.6m-21.5 0c-0.9 0-1.6 0.7-1.6 1.6 0 0.8 0.7 1.5 1.6 1.5 0.9 0 1.6-0.7 1.6-1.5 0-0.9-0.7-1.6-1.6-1.6m581.6 21.5c-0.9 0-1.6 0.7-1.6 1.6 0 0.9 0.7 1.6 1.6 1.6 0.9 0 1.6-0.7 1.6-1.6 0-0.9-0.7-1.6-1.6-1.6m-21.5 0c-0.9 0-1.6 0.7-1.6 1.6 0 0.9 0.7 1.6 1.6 1.6 0.8 0 1.6-0.7 1.6-1.6 0-0.9-0.8-1.6-1.6-1.6m-21.6 0c-0.8 0-1.5 0.7-1.5 1.6 0 0.9 0.7 1.6 1.5 1.6 0.9 0 1.6-0.7 1.6-1.6 0-0.9-0.7-1.6-1.6-1.6m-21.5 0c-0.9 0-1.6 0.7-1.6 1.6 0 0.9 0.7 1.6 1.6 1.6 0.9 0 1.6-0.7 1.6-1.6 0-0.9-0.7-1.6-1.6-1.6m-21.5 0c-0.9 0-1.6 0.7-1.6 1.6 0 0.9 0.7 1.6 1.6 1.6 0.8 0 1.5-0.7 1.5-1.6 0-0.9-0.7-1.6-1.5-1.6m-21.6 0c-0.9 0-1.6 0.7-1.6 1.6 0 0.9 0.7 1.6 1.6 1.6 0.9 0 1.6-0.7 1.6-1.6 0-0.9-0.7-1.6-1.6-1.6m-21.5 0c-0.9 0-1.6 0.7-1.6 1.6 0 0.9 0.7 1.6 1.6 1.6 0.8 0 1.6-0.7 1.6-1.6 0-0.9-0.8-1.6-1.6-1.6m-21.6 0c-0.8 0-1.6 0.7-1.6 1.6 0 0.9 0.8 1.6 1.6 1.6 0.9 0 1.6-0.7 1.6-1.6 0-0.9-0.7-1.6-1.6-1.6m-21.5 0c-0.9 0-1.6 0.7-1.6 1.6 0 0.9 0.7 1.6 1.6 1.6 0.9 0 1.6-0.7 1.6-1.6 0-0.9-0.7-1.6-1.6-1.6m-21.6 0c-0.8 0-1.5 0.7-1.5 1.6 0 0.9 0.7 1.6 1.5 1.6 0.9 0 1.6-0.7 1.6-1.6 0-0.9-0.7-1.6-1.6-1.6m-21.5 0c-0.9 0-1.6 0.7-1.6 1.6 0 0.9 0.7 1.6 1.6 1.6 0.9 0 1.6-0.7 1.6-1.6 0-0.9-0.7-1.6-1.6-1.6m-21.5 0c-0.9 0-1.6 0.7-1.6 1.6 0 0.9 0.7 1.6 1.6 1.6 0.8 0 1.5-0.7 1.5-1.6 0-0.9-0.7-1.6-1.5-1.6m-21.6 0c-0.9 0-1.6 0.7-1.6 1.6 0 0.9 0.7 1.6 1.6 1.6 0.9 0 1.6-0.7 1.6-1.6 0-0.9-0.7-1.6-1.6-1.6m-21.5 0c-0.9 0-1.6 0.7-1.6 1.6 0 0.9 0.7 1.6 1.6 1.6 0.9 0 1.6-0.7 1.6-1.6 0-0.9-0.7-1.6-1.6-1.6m-21.6 0c-0.8 0-1.5 0.7-1.5 1.6 0 0.9 0.7 1.6 1.5 1.6 0.9 0 1.6-0.7 1.6-1.6 0-0.9-0.7-1.6-1.6-1.6m-21.5 0c-0.9 0-1.6 0.7-1.6 1.6 0 0.9 0.7 1.6 1.6 1.6 0.9 0 1.6-0.7 1.6-1.6 0-0.9-0.7-1.6-1.6-1.6m-21.5 0c-0.9 0-1.6 0.7-1.6 1.6 0 0.9 0.7 1.6 1.6 1.6 0.8 0 1.5-0.7 1.5-1.6 0-0.9-0.7-1.6-1.5-1.6m-21.6 0c-0.9 0-1.6 0.7-1.6 1.6 0 0.9 0.7 1.6 1.6 1.6 0.9 0 1.6-0.7 1.6-1.6 0-0.9-0.7-1.6-1.6-1.6m-21.5 0c-0.9 0-1.6 0.7-1.6 1.6 0 0.9 0.7 1.6 1.6 1.6 0.8 0 1.6-0.7 1.6-1.6 0-0.9-0.8-1.6-1.6-1.6m-21.6 0c-0.8 0-1.6 0.7-1.6 1.6 0 0.9 0.8 1.6 1.6 1.6 0.9 0 1.6-0.7 1.6-1.6 0-0.9-0.7-1.6-1.6-1.6m-21.5 0c-0.9 0-1.6 0.7-1.6 1.6 0 0.9 0.7 1.6 1.6 1.6 0.9 0 1.6-0.7 1.6-1.6 0-0.9-0.7-1.6-1.6-1.6m-21.6 0c-0.8 0-1.5 0.7-1.5 1.6 0 0.9 0.7 1.6 1.5 1.6 0.9 0 1.6-0.7 1.6-1.6 0-0.9-0.7-1.6-1.6-1.6m-21.5 0c-0.9 0-1.6 0.7-1.6 1.6 0 0.9 0.7 1.6 1.6 1.6 0.9 0 1.6-0.7 1.6-1.6 0-0.9-0.7-1.6-1.6-1.6m-21.5 0c-0.9 0-1.6 0.7-1.6 1.6 0 0.9 0.7 1.6 1.6 1.6 0.8 0 1.5-0.7 1.5-1.6 0-0.9-0.7-1.6-1.5-1.6m-21.6 0c-0.9 0-1.6 0.7-1.6 1.6 0 0.9 0.7 1.6 1.6 1.6 0.9 0 1.6-0.7 1.6-1.6 0-0.9-0.7-1.6-1.6-1.6m-21.5 0c-0.9 0-1.6 0.7-1.6 1.6 0 0.9 0.7 1.6 1.6 1.6 0.9 0 1.6-0.7 1.6-1.6 0-0.9-0.7-1.6-1.6-1.6m-21.6 0c-0.8 0-1.5 0.7-1.5 1.6 0 0.9 0.7 1.6 1.5 1.6 0.9 0 1.6-0.7 1.6-1.6 0-0.9-0.7-1.6-1.6-1.6m-21.5 0c-0.9 0-1.6 0.7-1.6 1.6 0 0.9 0.7 1.6 1.6 1.6 0.9 0 1.6-0.7 1.6-1.6 0-0.9-0.7-1.6-1.6-1.6m581.6 21.6c-0.9 0-1.6 0.7-1.6 1.6 0 0.8 0.7 1.6 1.6 1.6 0.9 0 1.6-0.8 1.6-1.6 0-0.9-0.7-1.6-1.6-1.6m-21.5 0c-0.9 0-1.6 0.7-1.6 1.6 0 0.8 0.7 1.6 1.6 1.6 0.8 0 1.6-0.8 1.6-1.6 0-0.9-0.8-1.6-1.6-1.6m-21.6 0c-0.8 0-1.5 0.7-1.5 1.6 0 0.8 0.7 1.6 1.5 1.6 0.9 0 1.6-0.8 1.6-1.6 0-0.9-0.7-1.6-1.6-1.6m-21.5 0c-0.9 0-1.6 0.7-1.6 1.6 0 0.8 0.7 1.6 1.6 1.6 0.9 0 1.6-0.8 1.6-1.6 0-0.9-0.7-1.6-1.6-1.6m-21.5 0c-0.9 0-1.6 0.7-1.6 1.6 0 0.8 0.7 1.6 1.6 1.6 0.8 0 1.5-0.8 1.5-1.6 0-0.9-0.7-1.6-1.5-1.6m-21.6 0c-0.9 0-1.6 0.7-1.6 1.6 0 0.8 0.7 1.6 1.6 1.6 0.9 0 1.6-0.8 1.6-1.6 0-0.9-0.7-1.6-1.6-1.6m-21.5 0c-0.9 0-1.6 0.7-1.6 1.6 0 0.8 0.7 1.6 1.6 1.6 0.8 0 1.6-0.8 1.6-1.6 0-0.9-0.8-1.6-1.6-1.6m-21.6 0c-0.8 0-1.6 0.7-1.6 1.6 0 0.8 0.8 1.6 1.6 1.6 0.9 0 1.6-0.8 1.6-1.6 0-0.9-0.7-1.6-1.6-1.6m-21.5 0c-0.9 0-1.6 0.7-1.6 1.6 0 0.8 0.7 1.6 1.6 1.6 0.9 0 1.6-0.8 1.6-1.6 0-0.9-0.7-1.6-1.6-1.6m-21.6 0c-0.8 0-1.5 0.7-1.5 1.6 0 0.8 0.7 1.6 1.5 1.6 0.9 0 1.6-0.8 1.6-1.6 0-0.9-0.7-1.6-1.6-1.6m-21.5 0c-0.9 0-1.6 0.7-1.6 1.6 0 0.8 0.7 1.6 1.6 1.6 0.9 0 1.6-0.8 1.6-1.6 0-0.9-0.7-1.6-1.6-1.6m-21.5 0c-0.9 0-1.6 0.7-1.6 1.6 0 0.8 0.7 1.6 1.6 1.6 0.8 0 1.5-0.8 1.5-1.6 0-0.9-0.7-1.6-1.5-1.6m-21.6 0c-0.9 0-1.6 0.7-1.6 1.6 0 0.8 0.7 1.6 1.6 1.6 0.9 0 1.6-0.8 1.6-1.6 0-0.9-0.7-1.6-1.6-1.6m-21.5 0c-0.9 0-1.6 0.7-1.6 1.6 0 0.8 0.7 1.6 1.6 1.6 0.9 0 1.6-0.8 1.6-1.6 0-0.9-0.7-1.6-1.6-1.6m-21.6 0c-0.8 0-1.5 0.7-1.5 1.6 0 0.8 0.7 1.6 1.5 1.6 0.9 0 1.6-0.8 1.6-1.6 0-0.9-0.7-1.6-1.6-1.6m-21.5 0c-0.9 0-1.6 0.7-1.6 1.6 0 0.8 0.7 1.6 1.6 1.6 0.9 0 1.6-0.8 1.6-1.6 0-0.9-0.7-1.6-1.6-1.6m-21.5 0c-0.9 0-1.6 0.7-1.6 1.6 0 0.8 0.7 1.6 1.6 1.6 0.8 0 1.5-0.8 1.5-1.6 0-0.9-0.7-1.6-1.5-1.6m-21.6 0c-0.9 0-1.6 0.7-1.6 1.6 0 0.8 0.7 1.6 1.6 1.6 0.9 0 1.6-0.8 1.6-1.6 0-0.9-0.7-1.6-1.6-1.6m-21.5 0c-0.9 0-1.6 0.7-1.6 1.6 0 0.8 0.7 1.6 1.6 1.6 0.8 0 1.6-0.8 1.6-1.6 0-0.9-0.8-1.6-1.6-1.6m-21.6 0c-0.8 0-1.6 0.7-1.6 1.6 0 0.8 0.8 1.6 1.6 1.6 0.9 0 1.6-0.8 1.6-1.6 0-0.9-0.7-1.6-1.6-1.6m-21.5 0c-0.9 0-1.6 0.7-1.6 1.6 0 0.8 0.7 1.6 1.6 1.6 0.9 0 1.6-0.8 1.6-1.6 0-0.9-0.7-1.6-1.6-1.6m-21.6 0c-0.8 0-1.5 0.7-1.5 1.6 0 0.8 0.7 1.6 1.5 1.6 0.9 0 1.6-0.8 1.6-1.6 0-0.9-0.7-1.6-1.6-1.6m-21.5 0c-0.9 0-1.6 0.7-1.6 1.6 0 0.8 0.7 1.6 1.6 1.6 0.9 0 1.6-0.8 1.6-1.6 0-0.9-0.7-1.6-1.6-1.6m-21.5 0c-0.9 0-1.6 0.7-1.6 1.6 0 0.8 0.7 1.6 1.6 1.6 0.8 0 1.5-0.8 1.5-1.6 0-0.9-0.7-1.6-1.5-1.6m-21.6 0c-0.9 0-1.6 0.7-1.6 1.6 0 0.8 0.7 1.6 1.6 1.6 0.9 0 1.6-0.8 1.6-1.6 0-0.9-0.7-1.6-1.6-1.6m-21.5 0c-0.9 0-1.6 0.7-1.6 1.6 0 0.8 0.7 1.6 1.6 1.6 0.9 0 1.6-0.8 1.6-1.6 0-0.9-0.7-1.6-1.6-1.6m-21.6 0c-0.8 0-1.5 0.7-1.5 1.6 0 0.8 0.7 1.6 1.5 1.6 0.9 0 1.6-0.8 1.6-1.6 0-0.9-0.7-1.6-1.6-1.6m-21.5 0c-0.9 0-1.6 0.7-1.6 1.6 0 0.8 0.7 1.6 1.6 1.6 0.9 0 1.6-0.8 1.6-1.6 0-0.9-0.7-1.6-1.6-1.6m581.6 21.5c-0.9 0-1.6 0.8-1.6 1.6 0 0.9 0.7 1.6 1.6 1.6 0.9 0 1.6-0.7 1.6-1.6 0-0.8-0.7-1.6-1.6-1.6m-21.5 0c-0.9 0-1.6 0.8-1.6 1.6 0 0.9 0.7 1.6 1.6 1.6 0.8 0 1.6-0.7 1.6-1.6 0-0.8-0.8-1.6-1.6-1.6m-21.6 0c-0.8 0-1.5 0.8-1.5 1.6 0 0.9 0.7 1.6 1.5 1.6 0.9 0 1.6-0.7 1.6-1.6 0-0.8-0.7-1.6-1.6-1.6m-21.5 0c-0.9 0-1.6 0.8-1.6 1.6 0 0.9 0.7 1.6 1.6 1.6 0.9 0 1.6-0.7 1.6-1.6 0-0.8-0.7-1.6-1.6-1.6m-21.5 0c-0.9 0-1.6 0.8-1.6 1.6 0 0.9 0.7 1.6 1.6 1.6 0.8 0 1.5-0.7 1.5-1.6 0-0.8-0.7-1.6-1.5-1.6m-21.6 0c-0.9 0-1.6 0.8-1.6 1.6 0 0.9 0.7 1.6 1.6 1.6 0.9 0 1.6-0.7 1.6-1.6 0-0.8-0.7-1.6-1.6-1.6m-21.5 0c-0.9 0-1.6 0.8-1.6 1.6 0 0.9 0.7 1.6 1.6 1.6 0.8 0 1.6-0.7 1.6-1.6 0-0.8-0.8-1.6-1.6-1.6m-21.6 0c-0.8 0-1.6 0.8-1.6 1.6 0 0.9 0.8 1.6 1.6 1.6 0.9 0 1.6-0.7 1.6-1.6 0-0.8-0.7-1.6-1.6-1.6m-21.5 0c-0.9 0-1.6 0.8-1.6 1.6 0 0.9 0.7 1.6 1.6 1.6 0.9 0 1.6-0.7 1.6-1.6 0-0.8-0.7-1.6-1.6-1.6m-21.6 0c-0.8 0-1.5 0.8-1.5 1.6 0 0.9 0.7 1.6 1.5 1.6 0.9 0 1.6-0.7 1.6-1.6 0-0.8-0.7-1.6-1.6-1.6m-21.5 0c-0.9 0-1.6 0.8-1.6 1.6 0 0.9 0.7 1.6 1.6 1.6 0.9 0 1.6-0.7 1.6-1.6 0-0.8-0.7-1.6-1.6-1.6m-21.5 0c-0.9 0-1.6 0.8-1.6 1.6 0 0.9 0.7 1.6 1.6 1.6 0.8 0 1.5-0.7 1.5-1.6 0-0.8-0.7-1.6-1.5-1.6m-21.6 0c-0.9 0-1.6 0.8-1.6 1.6 0 0.9 0.7 1.6 1.6 1.6 0.9 0 1.6-0.7 1.6-1.6 0-0.8-0.7-1.6-1.6-1.6m-21.5 0c-0.9 0-1.6 0.8-1.6 1.6 0 0.9 0.7 1.6 1.6 1.6 0.9 0 1.6-0.7 1.6-1.6 0-0.8-0.7-1.6-1.6-1.6m-21.6 0c-0.8 0-1.5 0.8-1.5 1.6 0 0.9 0.7 1.6 1.5 1.6 0.9 0 1.6-0.7 1.6-1.6 0-0.8-0.7-1.6-1.6-1.6m-21.5 0c-0.9 0-1.6 0.8-1.6 1.6 0 0.9 0.7 1.6 1.6 1.6 0.9 0 1.6-0.7 1.6-1.6 0-0.8-0.7-1.6-1.6-1.6m-21.5 0c-0.9 0-1.6 0.8-1.6 1.6 0 0.9 0.7 1.6 1.6 1.6 0.8 0 1.5-0.7 1.5-1.6 0-0.8-0.7-1.6-1.5-1.6m-21.6 0c-0.9 0-1.6 0.8-1.6 1.6 0 0.9 0.7 1.6 1.6 1.6 0.9 0 1.6-0.7 1.6-1.6 0-0.8-0.7-1.6-1.6-1.6m-21.5 0c-0.9 0-1.6 0.8-1.6 1.6 0 0.9 0.7 1.6 1.6 1.6 0.8 0 1.6-0.7 1.6-1.6 0-0.8-0.8-1.6-1.6-1.6m-21.6 0c-0.8 0-1.6 0.8-1.6 1.6 0 0.9 0.8 1.6 1.6 1.6 0.9 0 1.6-0.7 1.6-1.6 0-0.8-0.7-1.6-1.6-1.6m-21.5 0c-0.9 0-1.6 0.8-1.6 1.6 0 0.9 0.7 1.6 1.6 1.6 0.9 0 1.6-0.7 1.6-1.6 0-0.8-0.7-1.6-1.6-1.6m-21.6 0c-0.8 0-1.5 0.8-1.5 1.6 0 0.9 0.7 1.6 1.5 1.6 0.9 0 1.6-0.7 1.6-1.6 0-0.8-0.7-1.6-1.6-1.6m-21.5 0c-0.9 0-1.6 0.8-1.6 1.6 0 0.9 0.7 1.6 1.6 1.6 0.9 0 1.6-0.7 1.6-1.6 0-0.8-0.7-1.6-1.6-1.6m-21.5 0c-0.9 0-1.6 0.8-1.6 1.6 0 0.9 0.7 1.6 1.6 1.6 0.8 0 1.5-0.7 1.5-1.6 0-0.8-0.7-1.6-1.5-1.6m-21.6 0c-0.9 0-1.6 0.8-1.6 1.6 0 0.9 0.7 1.6 1.6 1.6 0.9 0 1.6-0.7 1.6-1.6 0-0.8-0.7-1.6-1.6-1.6m-21.5 0c-0.9 0-1.6 0.8-1.6 1.6 0 0.9 0.7 1.6 1.6 1.6 0.9 0 1.6-0.7 1.6-1.6 0-0.8-0.7-1.6-1.6-1.6m-21.6 0c-0.8 0-1.5 0.8-1.5 1.6 0 0.9 0.7 1.6 1.5 1.6 0.9 0 1.6-0.7 1.6-1.6 0-0.8-0.7-1.6-1.6-1.6m-21.5 0c-0.9 0-1.6 0.8-1.6 1.6 0 0.9 0.7 1.6 1.6 1.6 0.9 0 1.6-0.7 1.6-1.6 0-0.8-0.7-1.6-1.6-1.6m581.6 21.6c-0.9 0-1.6 0.7-1.6 1.6 0 0.9 0.7 1.6 1.6 1.6 0.9 0 1.6-0.7 1.6-1.6 0-0.9-0.7-1.6-1.6-1.6m-21.5 0c-0.9 0-1.6 0.7-1.6 1.6 0 0.9 0.7 1.6 1.6 1.6 0.8 0 1.6-0.7 1.6-1.6 0-0.9-0.8-1.6-1.6-1.6m-21.6 0c-0.8 0-1.5 0.7-1.5 1.6 0 0.9 0.7 1.6 1.5 1.6 0.9 0 1.6-0.7 1.6-1.6 0-0.9-0.7-1.6-1.6-1.6m-21.5 0c-0.9 0-1.6 0.7-1.6 1.6 0 0.9 0.7 1.6 1.6 1.6 0.9 0 1.6-0.7 1.6-1.6 0-0.9-0.7-1.6-1.6-1.6m-21.5 0c-0.9 0-1.6 0.7-1.6 1.6 0 0.9 0.7 1.6 1.6 1.6 0.8 0 1.5-0.7 1.5-1.6 0-0.9-0.7-1.6-1.5-1.6m-21.6 0c-0.9 0-1.6 0.7-1.6 1.6 0 0.9 0.7 1.6 1.6 1.6 0.9 0 1.6-0.7 1.6-1.6 0-0.9-0.7-1.6-1.6-1.6m-21.5 0c-0.9 0-1.6 0.7-1.6 1.6 0 0.9 0.7 1.6 1.6 1.6 0.8 0 1.6-0.7 1.6-1.6 0-0.9-0.8-1.6-1.6-1.6m-21.6 0c-0.8 0-1.6 0.7-1.6 1.6 0 0.9 0.8 1.6 1.6 1.6 0.9 0 1.6-0.7 1.6-1.6 0-0.9-0.7-1.6-1.6-1.6m-21.5 0c-0.9 0-1.6 0.7-1.6 1.6 0 0.9 0.7 1.6 1.6 1.6 0.9 0 1.6-0.7 1.6-1.6 0-0.9-0.7-1.6-1.6-1.6m-21.6 0c-0.8 0-1.5 0.7-1.5 1.6 0 0.9 0.7 1.6 1.5 1.6 0.9 0 1.6-0.7 1.6-1.6 0-0.9-0.7-1.6-1.6-1.6m-21.5 0c-0.9 0-1.6 0.7-1.6 1.6 0 0.9 0.7 1.6 1.6 1.6 0.9 0 1.6-0.7 1.6-1.6 0-0.9-0.7-1.6-1.6-1.6m-21.5 0c-0.9 0-1.6 0.7-1.6 1.6 0 0.9 0.7 1.6 1.6 1.6 0.8 0 1.5-0.7 1.5-1.6 0-0.9-0.7-1.6-1.5-1.6m-21.6 0c-0.9 0-1.6 0.7-1.6 1.6 0 0.9 0.7 1.6 1.6 1.6 0.9 0 1.6-0.7 1.6-1.6 0-0.9-0.7-1.6-1.6-1.6m-21.5 0c-0.9 0-1.6 0.7-1.6 1.6 0 0.9 0.7 1.6 1.6 1.6 0.9 0 1.6-0.7 1.6-1.6 0-0.9-0.7-1.6-1.6-1.6m-21.6 0c-0.8 0-1.5 0.7-1.5 1.6 0 0.9 0.7 1.6 1.5 1.6 0.9 0 1.6-0.7 1.6-1.6 0-0.9-0.7-1.6-1.6-1.6m-21.5 0c-0.9 0-1.6 0.7-1.6 1.6 0 0.9 0.7 1.6 1.6 1.6 0.9 0 1.6-0.7 1.6-1.6 0-0.9-0.7-1.6-1.6-1.6m-21.5 0c-0.9 0-1.6 0.7-1.6 1.6 0 0.9 0.7 1.6 1.6 1.6 0.8 0 1.5-0.7 1.5-1.6 0-0.9-0.7-1.6-1.5-1.6m-21.6 0c-0.9 0-1.6 0.7-1.6 1.6 0 0.9 0.7 1.6 1.6 1.6 0.9 0 1.6-0.7 1.6-1.6 0-0.9-0.7-1.6-1.6-1.6m-21.5 0c-0.9 0-1.6 0.7-1.6 1.6 0 0.9 0.7 1.6 1.6 1.6 0.8 0 1.6-0.7 1.6-1.6 0-0.9-0.8-1.6-1.6-1.6m-21.6 0c-0.8 0-1.6 0.7-1.6 1.6 0 0.9 0.8 1.6 1.6 1.6 0.9 0 1.6-0.7 1.6-1.6 0-0.9-0.7-1.6-1.6-1.6m-21.5 0c-0.9 0-1.6 0.7-1.6 1.6 0 0.9 0.7 1.6 1.6 1.6 0.9 0 1.6-0.7 1.6-1.6 0-0.9-0.7-1.6-1.6-1.6m-21.6 0c-0.8 0-1.5 0.7-1.5 1.6 0 0.9 0.7 1.6 1.5 1.6 0.9 0 1.6-0.7 1.6-1.6 0-0.9-0.7-1.6-1.6-1.6m-21.5 0c-0.9 0-1.6 0.7-1.6 1.6 0 0.9 0.7 1.6 1.6 1.6 0.9 0 1.6-0.7 1.6-1.6 0-0.9-0.7-1.6-1.6-1.6m-21.5 0c-0.9 0-1.6 0.7-1.6 1.6 0 0.9 0.7 1.6 1.6 1.6 0.8 0 1.5-0.7 1.5-1.6 0-0.9-0.7-1.6-1.5-1.6m-21.6 0c-0.9 0-1.6 0.7-1.6 1.6 0 0.9 0.7 1.6 1.6 1.6 0.9 0 1.6-0.7 1.6-1.6 0-0.9-0.7-1.6-1.6-1.6m-21.5 0c-0.9 0-1.6 0.7-1.6 1.6 0 0.9 0.7 1.6 1.6 1.6 0.9 0 1.6-0.7 1.6-1.6 0-0.9-0.7-1.6-1.6-1.6m-21.6 0c-0.8 0-1.5 0.7-1.5 1.6 0 0.9 0.7 1.6 1.5 1.6 0.9 0 1.6-0.7 1.6-1.6 0-0.9-0.7-1.6-1.6-1.6m-21.5 0c-0.9 0-1.6 0.7-1.6 1.6 0 0.9 0.7 1.6 1.6 1.6 0.9 0 1.6-0.7 1.6-1.6 0-0.9-0.7-1.6-1.6-1.6m581.6 21.6c-0.9 0-1.6 0.7-1.6 1.5 0 0.9 0.7 1.6 1.6 1.6 0.9 0 1.6-0.7 1.6-1.6 0-0.8-0.7-1.5-1.6-1.5m-21.5 0c-0.9 0-1.6 0.7-1.6 1.5 0 0.9 0.7 1.6 1.6 1.6 0.8 0 1.6-0.7 1.6-1.6 0-0.8-0.8-1.5-1.6-1.5m-21.6 0c-0.8 0-1.5 0.7-1.5 1.5 0 0.9 0.7 1.6 1.5 1.6 0.9 0 1.6-0.7 1.6-1.6 0-0.8-0.7-1.5-1.6-1.5m-21.5 0c-0.9 0-1.6 0.7-1.6 1.5 0 0.9 0.7 1.6 1.6 1.6 0.9 0 1.6-0.7 1.6-1.6 0-0.8-0.7-1.5-1.6-1.5m-21.5 0c-0.9 0-1.6 0.7-1.6 1.5 0 0.9 0.7 1.6 1.6 1.6 0.8 0 1.5-0.7 1.5-1.6 0-0.8-0.7-1.5-1.5-1.5m-21.6 0c-0.9 0-1.6 0.7-1.6 1.5 0 0.9 0.7 1.6 1.6 1.6 0.9 0 1.6-0.7 1.6-1.6 0-0.8-0.7-1.5-1.6-1.5m-21.5 0c-0.9 0-1.6 0.7-1.6 1.5 0 0.9 0.7 1.6 1.6 1.6 0.8 0 1.6-0.7 1.6-1.6 0-0.8-0.8-1.5-1.6-1.5m-21.6 0c-0.8 0-1.6 0.7-1.6 1.5 0 0.9 0.8 1.6 1.6 1.6 0.9 0 1.6-0.7 1.6-1.6 0-0.8-0.7-1.5-1.6-1.5m-21.5 0c-0.9 0-1.6 0.7-1.6 1.5 0 0.9 0.7 1.6 1.6 1.6 0.9 0 1.6-0.7 1.6-1.6 0-0.8-0.7-1.5-1.6-1.5m-21.6 0c-0.8 0-1.5 0.7-1.5 1.5 0 0.9 0.7 1.6 1.5 1.6 0.9 0 1.6-0.7 1.6-1.6 0-0.8-0.7-1.5-1.6-1.5m-21.5 0c-0.9 0-1.6 0.7-1.6 1.5 0 0.9 0.7 1.6 1.6 1.6 0.9 0 1.6-0.7 1.6-1.6 0-0.8-0.7-1.5-1.6-1.5m-21.5 0c-0.9 0-1.6 0.7-1.6 1.5 0 0.9 0.7 1.6 1.6 1.6 0.8 0 1.5-0.7 1.5-1.6 0-0.8-0.7-1.5-1.5-1.5m-21.6 0c-0.9 0-1.6 0.7-1.6 1.5 0 0.9 0.7 1.6 1.6 1.6 0.9 0 1.6-0.7 1.6-1.6 0-0.8-0.7-1.5-1.6-1.5m-21.5 0c-0.9 0-1.6 0.7-1.6 1.5 0 0.9 0.7 1.6 1.6 1.6 0.9 0 1.6-0.7 1.6-1.6 0-0.8-0.7-1.5-1.6-1.5m-21.6 0c-0.8 0-1.5 0.7-1.5 1.5 0 0.9 0.7 1.6 1.5 1.6 0.9 0 1.6-0.7 1.6-1.6 0-0.8-0.7-1.5-1.6-1.5m-21.5 0c-0.9 0-1.6 0.7-1.6 1.5 0 0.9 0.7 1.6 1.6 1.6 0.9 0 1.6-0.7 1.6-1.6 0-0.8-0.7-1.5-1.6-1.5m-21.5 0c-0.9 0-1.6 0.7-1.6 1.5 0 0.9 0.7 1.6 1.6 1.6 0.8 0 1.5-0.7 1.5-1.6 0-0.8-0.7-1.5-1.5-1.5m-21.6 0c-0.9 0-1.6 0.7-1.6 1.5 0 0.9 0.7 1.6 1.6 1.6 0.9 0 1.6-0.7 1.6-1.6 0-0.8-0.7-1.5-1.6-1.5m-21.5 0c-0.9 0-1.6 0.7-1.6 1.5 0 0.9 0.7 1.6 1.6 1.6 0.8 0 1.6-0.7 1.6-1.6 0-0.8-0.8-1.5-1.6-1.5m-21.6 0c-0.8 0-1.6 0.7-1.6 1.5 0 0.9 0.8 1.6 1.6 1.6 0.9 0 1.6-0.7 1.6-1.6 0-0.8-0.7-1.5-1.6-1.5m-21.5 0c-0.9 0-1.6 0.7-1.6 1.5 0 0.9 0.7 1.6 1.6 1.6 0.9 0 1.6-0.7 1.6-1.6 0-0.8-0.7-1.5-1.6-1.5m-21.6 0c-0.8 0-1.5 0.7-1.5 1.5 0 0.9 0.7 1.6 1.5 1.6 0.9 0 1.6-0.7 1.6-1.6 0-0.8-0.7-1.5-1.6-1.5m-21.5 0c-0.9 0-1.6 0.7-1.6 1.5 0 0.9 0.7 1.6 1.6 1.6 0.9 0 1.6-0.7 1.6-1.6 0-0.8-0.7-1.5-1.6-1.5m-21.5 0c-0.9 0-1.6 0.7-1.6 1.5 0 0.9 0.7 1.6 1.6 1.6 0.8 0 1.5-0.7 1.5-1.6 0-0.8-0.7-1.5-1.5-1.5m-21.6 0c-0.9 0-1.6 0.7-1.6 1.5 0 0.9 0.7 1.6 1.6 1.6 0.9 0 1.6-0.7 1.6-1.6 0-0.8-0.7-1.5-1.6-1.5m-21.5 0c-0.9 0-1.6 0.7-1.6 1.5 0 0.9 0.7 1.6 1.6 1.6 0.9 0 1.6-0.7 1.6-1.6 0-0.8-0.7-1.5-1.6-1.5m-21.6 0c-0.8 0-1.5 0.7-1.5 1.5 0 0.9 0.7 1.6 1.5 1.6 0.9 0 1.6-0.7 1.6-1.6 0-0.8-0.7-1.5-1.6-1.5m-21.5 0c-0.9 0-1.6 0.7-1.6 1.5 0 0.9 0.7 1.6 1.6 1.6 0.9 0 1.6-0.7 1.6-1.6 0-0.8-0.7-1.5-1.6-1.5m581.6-301.8c-0.9 0-1.6 0.7-1.6 1.5 0 0.9 0.7 1.6 1.6 1.6 0.9 0 1.6-0.7 1.6-1.6 0-0.8-0.7-1.5-1.6-1.5m-21.5 0c-0.9 0-1.6 0.7-1.6 1.5 0 0.9 0.7 1.6 1.6 1.6 0.8 0 1.6-0.7 1.6-1.6 0-0.8-0.8-1.5-1.6-1.5m-21.6 0c-0.8 0-1.5 0.7-1.5 1.5 0 0.9 0.7 1.6 1.5 1.6 0.9 0 1.6-0.7 1.6-1.6 0-0.8-0.7-1.5-1.6-1.5m-21.5 0c-0.9 0-1.6 0.7-1.6 1.5 0 0.9 0.7 1.6 1.6 1.6 0.9 0 1.6-0.7 1.6-1.6 0-0.8-0.7-1.5-1.6-1.5m-21.5 0c-0.9 0-1.6 0.7-1.6 1.5 0 0.9 0.7 1.6 1.6 1.6 0.8 0 1.5-0.7 1.5-1.6 0-0.8-0.7-1.5-1.5-1.5m-21.6 0c-0.9 0-1.6 0.7-1.6 1.5 0 0.9 0.7 1.6 1.6 1.6 0.9 0 1.6-0.7 1.6-1.6 0-0.8-0.7-1.5-1.6-1.5m-21.5 0c-0.9 0-1.6 0.7-1.6 1.5 0 0.9 0.7 1.6 1.6 1.6 0.8 0 1.6-0.7 1.6-1.6 0-0.8-0.8-1.5-1.6-1.5m-21.6 0c-0.8 0-1.6 0.7-1.6 1.5 0 0.9 0.8 1.6 1.6 1.6 0.9 0 1.6-0.7 1.6-1.6 0-0.8-0.7-1.5-1.6-1.5m-21.5 0c-0.9 0-1.6 0.7-1.6 1.5 0 0.9 0.7 1.6 1.6 1.6 0.9 0 1.6-0.7 1.6-1.6 0-0.8-0.7-1.5-1.6-1.5m-21.6 0c-0.8 0-1.5 0.7-1.5 1.5 0 0.9 0.7 1.6 1.5 1.6 0.9 0 1.6-0.7 1.6-1.6 0-0.8-0.7-1.5-1.6-1.5m-21.5 0c-0.9 0-1.6 0.7-1.6 1.5 0 0.9 0.7 1.6 1.6 1.6 0.9 0 1.6-0.7 1.6-1.6 0-0.8-0.7-1.5-1.6-1.5m-21.5 0c-0.9 0-1.6 0.7-1.6 1.5 0 0.9 0.7 1.6 1.6 1.6 0.8 0 1.5-0.7 1.5-1.6 0-0.8-0.7-1.5-1.5-1.5m-21.6 0c-0.9 0-1.6 0.7-1.6 1.5 0 0.9 0.7 1.6 1.6 1.6 0.9 0 1.6-0.7 1.6-1.6 0-0.8-0.7-1.5-1.6-1.5m-21.5 0c-0.9 0-1.6 0.7-1.6 1.5 0 0.9 0.7 1.6 1.6 1.6 0.9 0 1.6-0.7 1.6-1.6 0-0.8-0.7-1.5-1.6-1.5m-21.6 0c-0.8 0-1.5 0.7-1.5 1.5 0 0.9 0.7 1.6 1.5 1.6 0.9 0 1.6-0.7 1.6-1.6 0-0.8-0.7-1.5-1.6-1.5m-21.5 0c-0.9 0-1.6 0.7-1.6 1.5 0 0.9 0.7 1.6 1.6 1.6 0.9 0 1.6-0.7 1.6-1.6 0-0.8-0.7-1.5-1.6-1.5m-21.5 0c-0.9 0-1.6 0.7-1.6 1.5 0 0.9 0.7 1.6 1.6 1.6 0.8 0 1.5-0.7 1.5-1.6 0-0.8-0.7-1.5-1.5-1.5m-21.6 0c-0.9 0-1.6 0.7-1.6 1.5 0 0.9 0.7 1.6 1.6 1.6 0.9 0 1.6-0.7 1.6-1.6 0-0.8-0.7-1.5-1.6-1.5m-21.5 0c-0.9 0-1.6 0.7-1.6 1.5 0 0.9 0.7 1.6 1.6 1.6 0.8 0 1.6-0.7 1.6-1.6 0-0.8-0.8-1.5-1.6-1.5m-21.6 0c-0.8 0-1.6 0.7-1.6 1.5 0 0.9 0.8 1.6 1.6 1.6 0.9 0 1.6-0.7 1.6-1.6 0-0.8-0.7-1.5-1.6-1.5m-21.5 0c-0.9 0-1.6 0.7-1.6 1.5 0 0.9 0.7 1.6 1.6 1.6 0.9 0 1.6-0.7 1.6-1.6 0-0.8-0.7-1.5-1.6-1.5m-21.6 0c-0.8 0-1.5 0.7-1.5 1.5 0 0.9 0.7 1.6 1.5 1.6 0.9 0 1.6-0.7 1.6-1.6 0-0.8-0.7-1.5-1.6-1.5m-21.5 0c-0.9 0-1.6 0.7-1.6 1.5 0 0.9 0.7 1.6 1.6 1.6 0.9 0 1.6-0.7 1.6-1.6 0-0.8-0.7-1.5-1.6-1.5m-21.5 0c-0.9 0-1.6 0.7-1.6 1.5 0 0.9 0.7 1.6 1.6 1.6 0.8 0 1.5-0.7 1.5-1.6 0-0.8-0.7-1.5-1.5-1.5m-21.6 0c-0.9 0-1.6 0.7-1.6 1.5 0 0.9 0.7 1.6 1.6 1.6 0.9 0 1.6-0.7 1.6-1.6 0-0.8-0.7-1.5-1.6-1.5m-21.5 0c-0.9 0-1.6 0.7-1.6 1.5 0 0.9 0.7 1.6 1.6 1.6 0.9 0 1.6-0.7 1.6-1.6 0-0.8-0.7-1.5-1.6-1.5m-21.6 0c-0.8 0-1.5 0.7-1.5 1.5 0 0.9 0.7 1.6 1.5 1.6 0.9 0 1.6-0.7 1.6-1.6 0-0.8-0.7-1.5-1.6-1.5m-21.5 0c-0.9 0-1.6 0.7-1.6 1.5 0 0.9 0.7 1.6 1.6 1.6 0.9 0 1.6-0.7 1.6-1.6 0-0.8-0.7-1.5-1.6-1.5m581.6 21.5c-0.9 0-1.6 0.7-1.6 1.6 0 0.9 0.7 1.6 1.6 1.6 0.9 0 1.6-0.7 1.6-1.6 0-0.9-0.7-1.6-1.6-1.6m-21.5 0c-0.9 0-1.6 0.7-1.6 1.6 0 0.9 0.7 1.6 1.6 1.6 0.8 0 1.6-0.7 1.6-1.6 0-0.9-0.8-1.6-1.6-1.6m-21.6 0c-0.8 0-1.5 0.7-1.5 1.6 0 0.9 0.7 1.6 1.5 1.6 0.9 0 1.6-0.7 1.6-1.6 0-0.9-0.7-1.6-1.6-1.6m-21.5 0c-0.9 0-1.6 0.7-1.6 1.6 0 0.9 0.7 1.6 1.6 1.6 0.9 0 1.6-0.7 1.6-1.6 0-0.9-0.7-1.6-1.6-1.6m-21.5 0c-0.9 0-1.6 0.7-1.6 1.6 0 0.9 0.7 1.6 1.6 1.6 0.8 0 1.5-0.7 1.5-1.6 0-0.9-0.7-1.6-1.5-1.6m-21.6 0c-0.9 0-1.6 0.7-1.6 1.6 0 0.9 0.7 1.6 1.6 1.6 0.9 0 1.6-0.7 1.6-1.6 0-0.9-0.7-1.6-1.6-1.6m-21.5 0c-0.9 0-1.6 0.7-1.6 1.6 0 0.9 0.7 1.6 1.6 1.6 0.8 0 1.6-0.7 1.6-1.6 0-0.9-0.8-1.6-1.6-1.6m-21.6 0c-0.8 0-1.6 0.7-1.6 1.6 0 0.9 0.8 1.6 1.6 1.6 0.9 0 1.6-0.7 1.6-1.6 0-0.9-0.7-1.6-1.6-1.6m-21.5 0c-0.9 0-1.6 0.7-1.6 1.6 0 0.9 0.7 1.6 1.6 1.6 0.9 0 1.6-0.7 1.6-1.6 0-0.9-0.7-1.6-1.6-1.6m-21.6 0c-0.8 0-1.5 0.7-1.5 1.6 0 0.9 0.7 1.6 1.5 1.6 0.9 0 1.6-0.7 1.6-1.6 0-0.9-0.7-1.6-1.6-1.6m-21.5 0c-0.9 0-1.6 0.7-1.6 1.6 0 0.9 0.7 1.6 1.6 1.6 0.9 0 1.6-0.7 1.6-1.6 0-0.9-0.7-1.6-1.6-1.6m-21.5 0c-0.9 0-1.6 0.7-1.6 1.6 0 0.9 0.7 1.6 1.6 1.6 0.8 0 1.5-0.7 1.5-1.6 0-0.9-0.7-1.6-1.5-1.6m-21.6 0c-0.9 0-1.6 0.7-1.6 1.6 0 0.9 0.7 1.6 1.6 1.6 0.9 0 1.6-0.7 1.6-1.6 0-0.9-0.7-1.6-1.6-1.6m-21.5 0c-0.9 0-1.6 0.7-1.6 1.6 0 0.9 0.7 1.6 1.6 1.6 0.9 0 1.6-0.7 1.6-1.6 0-0.9-0.7-1.6-1.6-1.6m-21.6 0c-0.8 0-1.5 0.7-1.5 1.6 0 0.9 0.7 1.6 1.5 1.6 0.9 0 1.6-0.7 1.6-1.6 0-0.9-0.7-1.6-1.6-1.6m-21.5 0c-0.9 0-1.6 0.7-1.6 1.6 0 0.9 0.7 1.6 1.6 1.6 0.9 0 1.6-0.7 1.6-1.6 0-0.9-0.7-1.6-1.6-1.6m-21.5 0c-0.9 0-1.6 0.7-1.6 1.6 0 0.9 0.7 1.6 1.6 1.6 0.8 0 1.5-0.7 1.5-1.6 0-0.9-0.7-1.6-1.5-1.6m-21.6 0c-0.9 0-1.6 0.7-1.6 1.6 0 0.9 0.7 1.6 1.6 1.6 0.9 0 1.6-0.7 1.6-1.6 0-0.9-0.7-1.6-1.6-1.6m-21.5 0c-0.9 0-1.6 0.7-1.6 1.6 0 0.9 0.7 1.6 1.6 1.6 0.8 0 1.6-0.7 1.6-1.6 0-0.9-0.8-1.6-1.6-1.6m-21.6 0c-0.8 0-1.6 0.7-1.6 1.6 0 0.9 0.8 1.6 1.6 1.6 0.9 0 1.6-0.7 1.6-1.6 0-0.9-0.7-1.6-1.6-1.6m-21.5 0c-0.9 0-1.6 0.7-1.6 1.6 0 0.9 0.7 1.6 1.6 1.6 0.9 0 1.6-0.7 1.6-1.6 0-0.9-0.7-1.6-1.6-1.6m-21.6 0c-0.8 0-1.5 0.7-1.5 1.6 0 0.9 0.7 1.6 1.5 1.6 0.9 0 1.6-0.7 1.6-1.6 0-0.9-0.7-1.6-1.6-1.6m-21.5 0c-0.9 0-1.6 0.7-1.6 1.6 0 0.9 0.7 1.6 1.6 1.6 0.9 0 1.6-0.7 1.6-1.6 0-0.9-0.7-1.6-1.6-1.6m-21.5 0c-0.9 0-1.6 0.7-1.6 1.6 0 0.9 0.7 1.6 1.6 1.6 0.8 0 1.5-0.7 1.5-1.6 0-0.9-0.7-1.6-1.5-1.6m-21.6 0c-0.9 0-1.6 0.7-1.6 1.6 0 0.9 0.7 1.6 1.6 1.6 0.9 0 1.6-0.7 1.6-1.6 0-0.9-0.7-1.6-1.6-1.6m-21.5 0c-0.9 0-1.6 0.7-1.6 1.6 0 0.9 0.7 1.6 1.6 1.6 0.9 0 1.6-0.7 1.6-1.6 0-0.9-0.7-1.6-1.6-1.6m-21.6 0c-0.8 0-1.5 0.7-1.5 1.6 0 0.9 0.7 1.6 1.5 1.6 0.9 0 1.6-0.7 1.6-1.6 0-0.9-0.7-1.6-1.6-1.6m-21.5 0c-0.9 0-1.6 0.7-1.6 1.6 0 0.9 0.7 1.6 1.6 1.6 0.9 0 1.6-0.7 1.6-1.6 0-0.9-0.7-1.6-1.6-1.6m581.6-43.1c-0.9 0-1.6 0.7-1.6 1.6 0 0.9 0.7 1.6 1.6 1.6 0.9 0 1.6-0.7 1.6-1.6 0-0.9-0.7-1.6-1.6-1.6m-21.5 0c-0.9 0-1.6 0.7-1.6 1.6 0 0.9 0.7 1.6 1.6 1.6 0.8 0 1.6-0.7 1.6-1.6 0-0.9-0.8-1.6-1.6-1.6m-21.6 0c-0.8 0-1.5 0.7-1.5 1.6 0 0.9 0.7 1.6 1.5 1.6 0.9 0 1.6-0.7 1.6-1.6 0-0.9-0.7-1.6-1.6-1.6m-21.5 0c-0.9 0-1.6 0.7-1.6 1.6 0 0.9 0.7 1.6 1.6 1.6 0.9 0 1.6-0.7 1.6-1.6 0-0.9-0.7-1.6-1.6-1.6m-21.5 0c-0.9 0-1.6 0.7-1.6 1.6 0 0.9 0.7 1.6 1.6 1.6 0.8 0 1.5-0.7 1.5-1.6 0-0.9-0.7-1.6-1.5-1.6m-21.6 0c-0.9 0-1.6 0.7-1.6 1.6 0 0.9 0.7 1.6 1.6 1.6 0.9 0 1.6-0.7 1.6-1.6 0-0.9-0.7-1.6-1.6-1.6m-21.5 0c-0.9 0-1.6 0.7-1.6 1.6 0 0.9 0.7 1.6 1.6 1.6 0.8 0 1.6-0.7 1.6-1.6 0-0.9-0.8-1.6-1.6-1.6m-21.6 0c-0.8 0-1.6 0.7-1.6 1.6 0 0.9 0.8 1.6 1.6 1.6 0.9 0 1.6-0.7 1.6-1.6 0-0.9-0.7-1.6-1.6-1.6m-21.5 0c-0.9 0-1.6 0.7-1.6 1.6 0 0.9 0.7 1.6 1.6 1.6 0.9 0 1.6-0.7 1.6-1.6 0-0.9-0.7-1.6-1.6-1.6m-21.6 0c-0.8 0-1.5 0.7-1.5 1.6 0 0.9 0.7 1.6 1.5 1.6 0.9 0 1.6-0.7 1.6-1.6 0-0.9-0.7-1.6-1.6-1.6m-21.5 0c-0.9 0-1.6 0.7-1.6 1.6 0 0.9 0.7 1.6 1.6 1.6 0.9 0 1.6-0.7 1.6-1.6 0-0.9-0.7-1.6-1.6-1.6m-21.5 0c-0.9 0-1.6 0.7-1.6 1.6 0 0.9 0.7 1.6 1.6 1.6 0.8 0 1.5-0.7 1.5-1.6 0-0.9-0.7-1.6-1.5-1.6m-21.6 0c-0.9 0-1.6 0.7-1.6 1.6 0 0.9 0.7 1.6 1.6 1.6 0.9 0 1.6-0.7 1.6-1.6 0-0.9-0.7-1.6-1.6-1.6m-21.5 0c-0.9 0-1.6 0.7-1.6 1.6 0 0.9 0.7 1.6 1.6 1.6 0.9 0 1.6-0.7 1.6-1.6 0-0.9-0.7-1.6-1.6-1.6m-21.6 0c-0.8 0-1.5 0.7-1.5 1.6 0 0.9 0.7 1.6 1.5 1.6 0.9 0 1.6-0.7 1.6-1.6 0-0.9-0.7-1.6-1.6-1.6m-21.5 0c-0.9 0-1.6 0.7-1.6 1.6 0 0.9 0.7 1.6 1.6 1.6 0.9 0 1.6-0.7 1.6-1.6 0-0.9-0.7-1.6-1.6-1.6m-21.5 0c-0.9 0-1.6 0.7-1.6 1.6 0 0.9 0.7 1.6 1.6 1.6 0.8 0 1.5-0.7 1.5-1.6 0-0.9-0.7-1.6-1.5-1.6m-21.6 0c-0.9 0-1.6 0.7-1.6 1.6 0 0.9 0.7 1.6 1.6 1.6 0.9 0 1.6-0.7 1.6-1.6 0-0.9-0.7-1.6-1.6-1.6m-21.5 0c-0.9 0-1.6 0.7-1.6 1.6 0 0.9 0.7 1.6 1.6 1.6 0.8 0 1.6-0.7 1.6-1.6 0-0.9-0.8-1.6-1.6-1.6m-21.6 0c-0.8 0-1.6 0.7-1.6 1.6 0 0.9 0.8 1.6 1.6 1.6 0.9 0 1.6-0.7 1.6-1.6 0-0.9-0.7-1.6-1.6-1.6m-21.5 0c-0.9 0-1.6 0.7-1.6 1.6 0 0.9 0.7 1.6 1.6 1.6 0.9 0 1.6-0.7 1.6-1.6 0-0.9-0.7-1.6-1.6-1.6m-21.6 0c-0.8 0-1.5 0.7-1.5 1.6 0 0.9 0.7 1.6 1.5 1.6 0.9 0 1.6-0.7 1.6-1.6 0-0.9-0.7-1.6-1.6-1.6m-21.5 0c-0.9 0-1.6 0.7-1.6 1.6 0 0.9 0.7 1.6 1.6 1.6 0.9 0 1.6-0.7 1.6-1.6 0-0.9-0.7-1.6-1.6-1.6m-21.5 0c-0.9 0-1.6 0.7-1.6 1.6 0 0.9 0.7 1.6 1.6 1.6 0.8 0 1.5-0.7 1.5-1.6 0-0.9-0.7-1.6-1.5-1.6m-21.6 0c-0.9 0-1.6 0.7-1.6 1.6 0 0.9 0.7 1.6 1.6 1.6 0.9 0 1.6-0.7 1.6-1.6 0-0.9-0.7-1.6-1.6-1.6m-21.5 0c-0.9 0-1.6 0.7-1.6 1.6 0 0.9 0.7 1.6 1.6 1.6 0.9 0 1.6-0.7 1.6-1.6 0-0.9-0.7-1.6-1.6-1.6m-21.6 0c-0.8 0-1.5 0.7-1.5 1.6 0 0.9 0.7 1.6 1.5 1.6 0.9 0 1.6-0.7 1.6-1.6 0-0.9-0.7-1.6-1.6-1.6m-21.5 0c-0.9 0-1.6 0.7-1.6 1.6 0 0.9 0.7 1.6 1.6 1.6 0.9 0 1.6-0.7 1.6-1.6 0-0.9-0.7-1.6-1.6-1.6m581.6 344.9c-0.9 0-1.6 0.7-1.6 1.6 0 0.9 0.7 1.6 1.6 1.6 0.9 0 1.6-0.7 1.6-1.6 0-0.9-0.7-1.6-1.6-1.6m-21.5 0c-0.9 0-1.6 0.7-1.6 1.6 0 0.9 0.7 1.6 1.6 1.6 0.8 0 1.6-0.7 1.6-1.6 0-0.9-0.8-1.6-1.6-1.6m-21.6 0c-0.8 0-1.5 0.7-1.5 1.6 0 0.9 0.7 1.6 1.5 1.6 0.9 0 1.6-0.7 1.6-1.6 0-0.9-0.7-1.6-1.6-1.6m-21.5 0c-0.9 0-1.6 0.7-1.6 1.6 0 0.9 0.7 1.6 1.6 1.6 0.9 0 1.6-0.7 1.6-1.6 0-0.9-0.7-1.6-1.6-1.6m-21.5 0c-0.9 0-1.6 0.7-1.6 1.6 0 0.9 0.7 1.6 1.6 1.6 0.8 0 1.5-0.7 1.5-1.6 0-0.9-0.7-1.6-1.5-1.6m-21.6 0c-0.9 0-1.6 0.7-1.6 1.6 0 0.9 0.7 1.6 1.6 1.6 0.9 0 1.6-0.7 1.6-1.6 0-0.9-0.7-1.6-1.6-1.6m-21.5 0c-0.9 0-1.6 0.7-1.6 1.6 0 0.9 0.7 1.6 1.6 1.6 0.8 0 1.6-0.7 1.6-1.6 0-0.9-0.8-1.6-1.6-1.6m-21.6 0c-0.8 0-1.6 0.7-1.6 1.6 0 0.9 0.8 1.6 1.6 1.6 0.9 0 1.6-0.7 1.6-1.6 0-0.9-0.7-1.6-1.6-1.6m-21.5 0c-0.9 0-1.6 0.7-1.6 1.6 0 0.9 0.7 1.6 1.6 1.6 0.9 0 1.6-0.7 1.6-1.6 0-0.9-0.7-1.6-1.6-1.6m-21.6 0c-0.8 0-1.5 0.7-1.5 1.6 0 0.9 0.7 1.6 1.5 1.6 0.9 0 1.6-0.7 1.6-1.6 0-0.9-0.7-1.6-1.6-1.6m-21.5 0c-0.9 0-1.6 0.7-1.6 1.6 0 0.9 0.7 1.6 1.6 1.6 0.9 0 1.6-0.7 1.6-1.6 0-0.9-0.7-1.6-1.6-1.6m-21.5 0c-0.9 0-1.6 0.7-1.6 1.6 0 0.9 0.7 1.6 1.6 1.6 0.8 0 1.5-0.7 1.5-1.6 0-0.9-0.7-1.6-1.5-1.6m-21.6 0c-0.9 0-1.6 0.7-1.6 1.6 0 0.9 0.7 1.6 1.6 1.6 0.9 0 1.6-0.7 1.6-1.6 0-0.9-0.7-1.6-1.6-1.6m-21.5 0c-0.9 0-1.6 0.7-1.6 1.6 0 0.9 0.7 1.6 1.6 1.6 0.9 0 1.6-0.7 1.6-1.6 0-0.9-0.7-1.6-1.6-1.6m-21.6 0c-0.8 0-1.5 0.7-1.5 1.6 0 0.9 0.7 1.6 1.5 1.6 0.9 0 1.6-0.7 1.6-1.6 0-0.9-0.7-1.6-1.6-1.6m-21.5 0c-0.9 0-1.6 0.7-1.6 1.6 0 0.9 0.7 1.6 1.6 1.6 0.9 0 1.6-0.7 1.6-1.6 0-0.9-0.7-1.6-1.6-1.6m-21.5 0c-0.9 0-1.6 0.7-1.6 1.6 0 0.9 0.7 1.6 1.6 1.6 0.8 0 1.5-0.7 1.5-1.6 0-0.9-0.7-1.6-1.5-1.6m-21.6 0c-0.9 0-1.6 0.7-1.6 1.6 0 0.9 0.7 1.6 1.6 1.6 0.9 0 1.6-0.7 1.6-1.6 0-0.9-0.7-1.6-1.6-1.6m-21.5 0c-0.9 0-1.6 0.7-1.6 1.6 0 0.9 0.7 1.6 1.6 1.6 0.8 0 1.6-0.7 1.6-1.6 0-0.9-0.8-1.6-1.6-1.6m-21.6 0c-0.8 0-1.6 0.7-1.6 1.6 0 0.9 0.8 1.6 1.6 1.6 0.9 0 1.6-0.7 1.6-1.6 0-0.9-0.7-1.6-1.6-1.6m-21.5 0c-0.9 0-1.6 0.7-1.6 1.6 0 0.9 0.7 1.6 1.6 1.6 0.9 0 1.6-0.7 1.6-1.6 0-0.9-0.7-1.6-1.6-1.6m-21.6 0c-0.8 0-1.5 0.7-1.5 1.6 0 0.9 0.7 1.6 1.5 1.6 0.9 0 1.6-0.7 1.6-1.6 0-0.9-0.7-1.6-1.6-1.6m-21.5 0c-0.9 0-1.6 0.7-1.6 1.6 0 0.9 0.7 1.6 1.6 1.6 0.9 0 1.6-0.7 1.6-1.6 0-0.9-0.7-1.6-1.6-1.6m-21.5 0c-0.9 0-1.6 0.7-1.6 1.6 0 0.9 0.7 1.6 1.6 1.6 0.8 0 1.5-0.7 1.5-1.6 0-0.9-0.7-1.6-1.5-1.6m-21.6 0c-0.9 0-1.6 0.7-1.6 1.6 0 0.9 0.7 1.6 1.6 1.6 0.9 0 1.6-0.7 1.6-1.6 0-0.9-0.7-1.6-1.6-1.6m-21.5 0c-0.9 0-1.6 0.7-1.6 1.6 0 0.9 0.7 1.6 1.6 1.6 0.9 0 1.6-0.7 1.6-1.6 0-0.9-0.7-1.6-1.6-1.6m-21.6 0c-0.8 0-1.5 0.7-1.5 1.6 0 0.9 0.7 1.6 1.5 1.6 0.9 0 1.6-0.7 1.6-1.6 0-0.9-0.7-1.6-1.6-1.6m-21.5 0c-0.9 0-1.6 0.7-1.6 1.6 0 0.9 0.7 1.6 1.6 1.6 0.9 0 1.6-0.7 1.6-1.6 0-0.9-0.7-1.6-1.6-1.6m-366-129.3c-0.9 0-1.6 0.7-1.6 1.6 0 0.8 0.7 1.5 1.6 1.5 0.9 0 1.6-0.7 1.6-1.5 0-0.9-0.7-1.6-1.6-1.6m-21.5 0c-0.9 0-1.6 0.7-1.6 1.6 0 0.8 0.7 1.5 1.6 1.5 0.8 0 1.5-0.7 1.5-1.5 0-0.9-0.7-1.6-1.5-1.6m-21.6 0c-0.9 0-1.6 0.7-1.6 1.6 0 0.8 0.7 1.5 1.6 1.5 0.9 0 1.6-0.7 1.6-1.5 0-0.9-0.7-1.6-1.6-1.6m-21.5 0c-0.9 0-1.6 0.7-1.6 1.6 0 0.8 0.7 1.5 1.6 1.5 0.9 0 1.6-0.7 1.6-1.5 0-0.9-0.7-1.6-1.6-1.6m-21.6 0c-0.8 0-1.5 0.7-1.5 1.6 0 0.8 0.7 1.5 1.5 1.5 0.9 0 1.6-0.7 1.6-1.5 0-0.9-0.7-1.6-1.6-1.6m-21.5 0c-0.9 0-1.6 0.7-1.6 1.6 0 0.8 0.7 1.5 1.6 1.5 0.9 0 1.6-0.7 1.6-1.5 0-0.9-0.7-1.6-1.6-1.6m-21.5 0c-0.9 0-1.6 0.7-1.6 1.6 0 0.8 0.7 1.5 1.6 1.5 0.8 0 1.5-0.7 1.5-1.5 0-0.9-0.7-1.6-1.5-1.6m-21.6 0c-0.9 0-1.6 0.7-1.6 1.6 0 0.8 0.7 1.5 1.6 1.5 0.9 0 1.6-0.7 1.6-1.5 0-0.9-0.7-1.6-1.6-1.6m-21.5 0c-0.9 0-1.6 0.7-1.6 1.6 0 0.8 0.7 1.5 1.6 1.5 0.8 0 1.6-0.7 1.6-1.5 0-0.9-0.8-1.6-1.6-1.6m172.3 21.5c-0.9 0-1.6 0.7-1.6 1.6 0 0.9 0.7 1.6 1.6 1.6 0.9 0 1.6-0.7 1.6-1.6 0-0.9-0.7-1.6-1.6-1.6m-21.5 0c-0.9 0-1.6 0.7-1.6 1.6 0 0.9 0.7 1.6 1.6 1.6 0.8 0 1.5-0.7 1.5-1.6 0-0.9-0.7-1.6-1.5-1.6m-21.6 0c-0.9 0-1.6 0.7-1.6 1.6 0 0.9 0.7 1.6 1.6 1.6 0.9 0 1.6-0.7 1.6-1.6 0-0.9-0.7-1.6-1.6-1.6m-21.5 0c-0.9 0-1.6 0.7-1.6 1.6 0 0.9 0.7 1.6 1.6 1.6 0.9 0 1.6-0.7 1.6-1.6 0-0.9-0.7-1.6-1.6-1.6m-21.6 0c-0.8 0-1.5 0.7-1.5 1.6 0 0.9 0.7 1.6 1.5 1.6 0.9 0 1.6-0.7 1.6-1.6 0-0.9-0.7-1.6-1.6-1.6m-21.5 0c-0.9 0-1.6 0.7-1.6 1.6 0 0.9 0.7 1.6 1.6 1.6 0.9 0 1.6-0.7 1.6-1.6 0-0.9-0.7-1.6-1.6-1.6m-21.5 0c-0.9 0-1.6 0.7-1.6 1.6 0 0.9 0.7 1.6 1.6 1.6 0.8 0 1.5-0.7 1.5-1.6 0-0.9-0.7-1.6-1.5-1.6m-21.6 0c-0.9 0-1.6 0.7-1.6 1.6 0 0.9 0.7 1.6 1.6 1.6 0.9 0 1.6-0.7 1.6-1.6 0-0.9-0.7-1.6-1.6-1.6m-21.5 0c-0.9 0-1.6 0.7-1.6 1.6 0 0.9 0.7 1.6 1.6 1.6 0.8 0 1.6-0.7 1.6-1.6 0-0.9-0.8-1.6-1.6-1.6m172.3 21.6c-0.9 0-1.6 0.7-1.6 1.6 0 0.8 0.7 1.6 1.6 1.6 0.9 0 1.6-0.8 1.6-1.6 0-0.9-0.7-1.6-1.6-1.6m-21.5 0c-0.9 0-1.6 0.7-1.6 1.6 0 0.8 0.7 1.6 1.6 1.6 0.8 0 1.5-0.8 1.5-1.6 0-0.9-0.7-1.6-1.5-1.6m-21.6 0c-0.9 0-1.6 0.7-1.6 1.6 0 0.8 0.7 1.6 1.6 1.6 0.9 0 1.6-0.8 1.6-1.6 0-0.9-0.7-1.6-1.6-1.6m-21.5 0c-0.9 0-1.6 0.7-1.6 1.6 0 0.8 0.7 1.6 1.6 1.6 0.9 0 1.6-0.8 1.6-1.6 0-0.9-0.7-1.6-1.6-1.6m-21.6 0c-0.8 0-1.5 0.7-1.5 1.6 0 0.8 0.7 1.6 1.5 1.6 0.9 0 1.6-0.8 1.6-1.6 0-0.9-0.7-1.6-1.6-1.6m-21.5 0c-0.9 0-1.6 0.7-1.6 1.6 0 0.8 0.7 1.6 1.6 1.6 0.9 0 1.6-0.8 1.6-1.6 0-0.9-0.7-1.6-1.6-1.6m-21.5 0c-0.9 0-1.6 0.7-1.6 1.6 0 0.8 0.7 1.6 1.6 1.6 0.8 0 1.5-0.8 1.5-1.6 0-0.9-0.7-1.6-1.5-1.6m-21.6 0c-0.9 0-1.6 0.7-1.6 1.6 0 0.8 0.7 1.6 1.6 1.6 0.9 0 1.6-0.8 1.6-1.6 0-0.9-0.7-1.6-1.6-1.6m-21.5 0c-0.9 0-1.6 0.7-1.6 1.6 0 0.8 0.7 1.6 1.6 1.6 0.8 0 1.6-0.8 1.6-1.6 0-0.9-0.8-1.6-1.6-1.6m172.3 21.5c-0.9 0-1.6 0.8-1.6 1.6 0 0.9 0.7 1.6 1.6 1.6 0.9 0 1.6-0.7 1.6-1.6 0-0.8-0.7-1.6-1.6-1.6m-21.5 0c-0.9 0-1.6 0.8-1.6 1.6 0 0.9 0.7 1.6 1.6 1.6 0.8 0 1.5-0.7 1.5-1.6 0-0.8-0.7-1.6-1.5-1.6m-21.6 0c-0.9 0-1.6 0.8-1.6 1.6 0 0.9 0.7 1.6 1.6 1.6 0.9 0 1.6-0.7 1.6-1.6 0-0.8-0.7-1.6-1.6-1.6m-21.5 0c-0.9 0-1.6 0.8-1.6 1.6 0 0.9 0.7 1.6 1.6 1.6 0.9 0 1.6-0.7 1.6-1.6 0-0.8-0.7-1.6-1.6-1.6m-21.6 0c-0.8 0-1.5 0.8-1.5 1.6 0 0.9 0.7 1.6 1.5 1.6 0.9 0 1.6-0.7 1.6-1.6 0-0.8-0.7-1.6-1.6-1.6m-21.5 0c-0.9 0-1.6 0.8-1.6 1.6 0 0.9 0.7 1.6 1.6 1.6 0.9 0 1.6-0.7 1.6-1.6 0-0.8-0.7-1.6-1.6-1.6m-21.5 0c-0.9 0-1.6 0.8-1.6 1.6 0 0.9 0.7 1.6 1.6 1.6 0.8 0 1.5-0.7 1.5-1.6 0-0.8-0.7-1.6-1.5-1.6m-21.6 0c-0.9 0-1.6 0.8-1.6 1.6 0 0.9 0.7 1.6 1.6 1.6 0.9 0 1.6-0.7 1.6-1.6 0-0.8-0.7-1.6-1.6-1.6m-21.5 0c-0.9 0-1.6 0.8-1.6 1.6 0 0.9 0.7 1.6 1.6 1.6 0.8 0 1.6-0.7 1.6-1.6 0-0.8-0.8-1.6-1.6-1.6m172.3 21.6c-0.9 0-1.6 0.7-1.6 1.6 0 0.9 0.7 1.6 1.6 1.6 0.9 0 1.6-0.7 1.6-1.6 0-0.9-0.7-1.6-1.6-1.6m-21.5 0c-0.9 0-1.6 0.7-1.6 1.6 0 0.9 0.7 1.6 1.6 1.6 0.8 0 1.5-0.7 1.5-1.6 0-0.9-0.7-1.6-1.5-1.6m-21.6 0c-0.9 0-1.6 0.7-1.6 1.6 0 0.9 0.7 1.6 1.6 1.6 0.9 0 1.6-0.7 1.6-1.6 0-0.9-0.7-1.6-1.6-1.6m-21.5 0c-0.9 0-1.6 0.7-1.6 1.6 0 0.9 0.7 1.6 1.6 1.6 0.9 0 1.6-0.7 1.6-1.6 0-0.9-0.7-1.6-1.6-1.6m-21.6 0c-0.8 0-1.5 0.7-1.5 1.6 0 0.9 0.7 1.6 1.5 1.6 0.9 0 1.6-0.7 1.6-1.6 0-0.9-0.7-1.6-1.6-1.6m-21.5 0c-0.9 0-1.6 0.7-1.6 1.6 0 0.9 0.7 1.6 1.6 1.6 0.9 0 1.6-0.7 1.6-1.6 0-0.9-0.7-1.6-1.6-1.6m-21.5 0c-0.9 0-1.6 0.7-1.6 1.6 0 0.9 0.7 1.6 1.6 1.6 0.8 0 1.5-0.7 1.5-1.6 0-0.9-0.7-1.6-1.5-1.6m-21.6 0c-0.9 0-1.6 0.7-1.6 1.6 0 0.9 0.7 1.6 1.6 1.6 0.9 0 1.6-0.7 1.6-1.6 0-0.9-0.7-1.6-1.6-1.6m-21.5 0c-0.9 0-1.6 0.7-1.6 1.6 0 0.9 0.7 1.6 1.6 1.6 0.8 0 1.6-0.7 1.6-1.6 0-0.9-0.8-1.6-1.6-1.6"/>
			</g>
		</g>
	</g>
</svg>